<svg width="99" height="106" viewBox="0 0 99 106" fill="none" xmlns="http://www.w3.org/2000/svg">
<g clip-path="url(#clip0_111_14)">
<path d="M39.8539 32.375C39.8539 31.6187 39.2579 31 38.5294 31C37.801 31 37.205 31.6187 37.205 32.375V33.75H35.8805C35.1521 33.75 34.5561 34.3688 34.5561 35.125C34.5561 35.8812 35.1521 36.5 35.8805 36.5H37.205V39.25H32.9171C31.9982 39.25 31.245 40.032 31.245 40.9859C31.245 41.2008 31.2863 41.407 31.3526 41.6133L34.0429 48.875H33.8939C32.7929 48.875 31.9072 49.7945 31.9072 50.9375C31.9072 52.0805 32.7929 53 33.8939 53H34.225L32.9005 64H44.1583L42.8339 53H43.165C44.2659 53 45.1517 52.0805 45.1517 50.9375C45.1517 49.7945 44.2659 48.875 43.165 48.875H43.016L45.7063 41.6133C45.7808 41.4156 45.8139 41.2008 45.8139 40.9859C45.8139 40.0234 45.0606 39.25 44.1418 39.25H39.8539V36.5H41.1783C41.9068 36.5 42.5028 35.8812 42.5028 35.125C42.5028 34.3688 41.9068 33.75 41.1783 33.75H39.8539V32.375ZM31.9072 66.75L28.3312 71.7C28.0746 72.0609 27.9338 72.4906 27.9338 72.9375C27.9338 74.0805 28.8196 75 29.9205 75H47.1383C48.2393 75 49.125 74.0805 49.125 72.9375C49.125 72.4906 48.9843 72.0609 48.7277 71.7L45.1517 66.75H31.9072ZM55.7473 66.75L52.1712 71.7C51.9146 72.0609 51.7739 72.4906 51.7739 72.9375C51.7739 74.0805 52.6596 75 53.7606 75H68.3295C69.4305 75 70.3162 74.0805 70.3162 72.9375C70.3162 72.4906 70.1755 72.0609 69.9189 71.7L66.3428 66.75H55.7473ZM53.0984 48.875V53.3352C53.0984 54.0055 53.3301 54.65 53.7606 55.1484L56.0121 57.8125L55.83 64H66.2187L65.9455 57.8125L68.2881 55.1656C68.7351 54.6586 68.9917 53.9969 68.9917 53.3008V48.875C68.9917 48.1187 68.3957 47.5 67.6673 47.5H66.3428C65.6144 47.5 65.0184 48.1187 65.0184 48.875V50.25H63.0317V48.875C63.0317 48.1187 62.4357 47.5 61.7073 47.5H60.3828C59.6544 47.5 59.0584 48.1187 59.0584 48.875V50.25H57.0717V48.875C57.0717 48.1187 56.4757 47.5 55.7473 47.5H54.4228C53.6944 47.5 53.0984 48.1187 53.0984 48.875ZM59.7206 57.125C59.7206 56.3687 60.3166 55.75 61.045 55.75C61.7735 55.75 62.3695 56.3687 62.3695 57.125V59.875H59.7206V57.125Z" fill="#F4EDED"/>
</g>
<path d="M95.1459 52.9054C95.1459 80.6838 74.3099 102.811 49.0729 102.811C23.836 102.811 3 80.6838 3 52.9054C3 25.127 23.836 3 49.0729 3C74.3099 3 95.1459 25.127 95.1459 52.9054Z" stroke="url(#paint0_angular_111_14)" stroke-width="6"/>
<defs>
<radialGradient id="paint0_angular_111_14" cx="0" cy="0" r="1" gradientUnits="userSpaceOnUse" gradientTransform="translate(49.0729 52.9054) rotate(133.927) scale(96.8545 93.2019)">
<stop stop-color="#7EE081"/>
<stop offset="1" stop-color="#7EE081" stop-opacity="0"/>
</radialGradient>
<clipPath id="clip0_111_14">
<rect width="42.3824" height="44" fill="white" transform="translate(27.9338 31)"/>
</clipPath>
</defs>
</svg>
