<svg width="99" height="106" viewBox="0 0 99 106" fill="none" xmlns="http://www.w3.org/2000/svg">
<g clip-path="url(#clip0_111_15)">
<path d="M42.5029 33.0625C42.5029 31.9195 41.6172 31 40.5162 31C39.4153 31 38.5295 31.9195 38.5295 33.0625V36.5C35.6075 36.5 33.2318 38.9664 33.2318 42H29.9206C28.8197 42 27.934 42.9195 27.934 44.0625C27.934 45.2055 28.8197 46.125 29.9206 46.125H33.2318V50.9375H29.9206C28.8197 50.9375 27.934 51.857 27.934 53C27.934 54.143 28.8197 55.0625 29.9206 55.0625H33.2318V59.875H29.9206C28.8197 59.875 27.934 60.7945 27.934 61.9375C27.934 63.0805 28.8197 64 29.9206 64H33.2318C33.2318 67.0336 35.6075 69.5 38.5295 69.5V72.9375C38.5295 74.0805 39.4153 75 40.5162 75C41.6172 75 42.5029 74.0805 42.5029 72.9375V69.5H47.1385V72.9375C47.1385 74.0805 48.0242 75 49.1251 75C50.2261 75 51.1118 74.0805 51.1118 72.9375V69.5H55.7474V72.9375C55.7474 74.0805 56.6331 75 57.7341 75C58.835 75 59.7207 74.0805 59.7207 72.9375V69.5C62.6428 69.5 65.0185 67.0336 65.0185 64H68.3296C69.4306 64 70.3163 63.0805 70.3163 61.9375C70.3163 60.7945 69.4306 59.875 68.3296 59.875H65.0185V55.0625H68.3296C69.4306 55.0625 70.3163 54.143 70.3163 53C70.3163 51.857 69.4306 50.9375 68.3296 50.9375H65.0185V46.125H68.3296C69.4306 46.125 70.3163 45.2055 70.3163 44.0625C70.3163 42.9195 69.4306 42 68.3296 42H65.0185C65.0185 38.9664 62.6428 36.5 59.7207 36.5V33.0625C59.7207 31.9195 58.835 31 57.7341 31C56.6331 31 55.7474 31.9195 55.7474 33.0625V36.5H51.1118V33.0625C51.1118 31.9195 50.2261 31 49.1251 31C48.0242 31 47.1385 31.9195 47.1385 33.0625V36.5H42.5029V33.0625ZM41.1784 42H57.0718C58.537 42 59.7207 43.2289 59.7207 44.75V61.25C59.7207 62.7711 58.537 64 57.0718 64H41.1784C39.7133 64 38.5295 62.7711 38.5295 61.25V44.75C38.5295 43.2289 39.7133 42 41.1784 42ZM57.0718 44.75H41.1784V61.25H57.0718V44.75Z" fill="#F4EDED"/>
</g>
<path d="M95.1459 52.9054C95.1459 80.6838 74.3099 102.811 49.0729 102.811C23.836 102.811 3 80.6838 3 52.9054C3 25.127 23.836 3 49.0729 3C74.3099 3 95.1459 25.127 95.1459 52.9054Z" stroke="url(#paint0_angular_111_15)" stroke-width="6"/>
<defs>
<radialGradient id="paint0_angular_111_15" cx="0" cy="0" r="1" gradientUnits="userSpaceOnUse" gradientTransform="translate(49.0729 52.9054) rotate(133.927) scale(96.8545 93.2019)">
<stop stop-color="#7EE081"/>
<stop offset="1" stop-color="#7EE081" stop-opacity="0"/>
</radialGradient>
<clipPath id="clip0_111_15">
<rect width="42.3824" height="44" fill="white" transform="translate(27.934 31)"/>
</clipPath>
</defs>
</svg>
