<svg width="159" height="158" viewBox="0 0 159 158" fill="none" xmlns="http://www.w3.org/2000/svg">
<path d="M34.0296 125.231C34.0296 125.231 47.6429 140.572 69.3647 139.988C91.0866 139.403 109.705 124.772 125.101 113.321C140.496 101.869 144.737 83.9326 135.917 69.8611C127.098 55.7896 112.884 61.5882 94.888 52.361C76.8918 43.1338 73.498 37.9483 53.3688 40.037C33.2396 42.1258 17.7619 64.6155 19.8823 88.7326C22.0026 112.85 34.0296 125.231 34.0296 125.231Z" fill="#CFD8DC"/>
<path opacity="0.7" d="M34.0296 125.231C34.0296 125.231 47.6429 140.572 69.3647 139.988C91.0866 139.403 109.705 124.772 125.101 113.321C140.496 101.869 144.737 83.9326 135.917 69.8611C127.098 55.7896 112.884 61.5882 94.888 52.361C76.8918 43.1338 73.498 37.9483 53.3688 40.037C33.2396 42.1258 17.7619 64.6155 19.8823 88.7326C22.0026 112.85 34.0296 125.231 34.0296 125.231Z" fill="white"/>
<path opacity="0.2" d="M103.031 103.37V59.9829C103.031 59.0248 102.255 58.248 101.296 58.248H82.6334C81.6753 58.248 80.8986 59.0248 80.8986 59.9829V103.37C80.8986 104.328 81.6753 105.105 82.6334 105.105H101.296C102.255 105.105 103.031 104.328 103.031 103.37Z" fill="black"/>
<path d="M102.102 102.816V59.4297C102.102 58.4715 101.325 57.6948 100.367 57.6948H81.7043C80.7461 57.6948 79.9694 58.4715 79.9694 59.4297V102.816C79.9694 103.775 80.7461 104.551 81.7043 104.551H100.367C101.325 104.551 102.102 103.775 102.102 102.816Z" fill="#B5B5B5" stroke="#263238" stroke-linecap="round" stroke-linejoin="round"/>
<path d="M100.367 57.6919H81.7012C81.4735 57.6919 81.2481 57.7368 81.0378 57.824C80.8274 57.9112 80.6364 58.0391 80.4756 58.2002C80.3147 58.3613 80.1872 58.5526 80.1004 58.7631C80.0136 58.9735 79.9691 59.1991 79.9695 59.4267V60.4822H102.089V59.4267C102.09 58.9686 101.91 58.5287 101.587 58.2035C101.264 57.8784 100.825 57.6944 100.367 57.6919Z" fill="#CFD8DC" stroke="#263238" stroke-linecap="round" stroke-linejoin="round"/>
<path d="M95.4219 62.7764H81.2651V85.9044H95.4219V62.7764Z" fill="#263238" stroke="#263238" stroke-linecap="round" stroke-linejoin="round"/>
<path d="M79.96 102.068V102.826C79.9595 103.054 80.004 103.279 80.0909 103.49C80.1777 103.7 80.3052 103.892 80.466 104.053C80.6269 104.214 80.8179 104.342 81.0282 104.429C81.2385 104.516 81.464 104.561 81.6916 104.561H100.358C100.585 104.561 100.811 104.516 101.021 104.429C101.231 104.342 101.423 104.214 101.583 104.053C101.744 103.892 101.872 103.7 101.959 103.49C102.045 103.279 102.09 103.054 102.089 102.826V102.068H79.96Z" fill="#CFD8DC" stroke="#263238" stroke-linecap="round" stroke-linejoin="round"/>
<path d="M94.1231 97.271H89.7371V102.055H94.1231V97.271Z" stroke="#263238" stroke-linecap="round" stroke-linejoin="round"/>
<path d="M93.1278 97.2707C93.1278 97.0145 93.0518 96.764 92.9095 96.5509C92.7671 96.3378 92.5648 96.1718 92.328 96.0737C92.0913 95.9757 91.8308 95.95 91.5795 96C91.3281 96.05 91.0973 96.1734 90.9161 96.3546C90.7349 96.5358 90.6115 96.7666 90.5615 97.0179C90.5115 97.2693 90.5372 97.5298 90.6352 97.7665C90.7333 98.0032 90.8994 98.2056 91.1124 98.348C91.3255 98.4903 91.576 98.5663 91.8322 98.5663C92.0024 98.5663 92.1708 98.5328 92.328 98.4677C92.4852 98.4026 92.628 98.3071 92.7484 98.1868C92.8687 98.0665 92.9641 97.9237 93.0292 97.7665C93.0943 97.6093 93.1278 97.4408 93.1278 97.2707Z" stroke="#263238" stroke-linecap="round" stroke-linejoin="round"/>
<path d="M91.4341 95.9752V85.9043" stroke="#263238" stroke-linecap="round" stroke-linejoin="round"/>
<path d="M85.351 88.897H81.2651V94.0825H85.351V88.897Z" stroke="#263238" stroke-linecap="round" stroke-linejoin="round"/>
<path d="M95.9181 102.055H91.9302V104.548H95.9181V102.055Z" fill="#263238" stroke="#263238" stroke-linecap="round" stroke-linejoin="round"/>
<path d="M90.9885 67.9048H88.8681L86.3844 73.6465H88.1761L86.0684 79.2808L90.9158 72.1708H89.0198L90.9885 67.9048Z" fill="#CFD8DC"/>
<path opacity="0.2" d="M51.3779 107.863H54.6296V129.983H51.3779C51.1505 129.983 50.9253 129.938 50.7152 129.851C50.5051 129.764 50.3142 129.637 50.1534 129.476C49.9926 129.315 49.8651 129.124 49.7781 128.914C49.691 128.704 49.6462 128.479 49.6462 128.252V109.598C49.6458 109.37 49.6903 109.145 49.7771 108.934C49.864 108.724 49.9915 108.533 50.1523 108.372C50.3132 108.21 50.5042 108.083 50.7145 107.995C50.9248 107.908 51.1502 107.863 51.3779 107.863Z" fill="black"/>
<path d="M50.7964 107.38H54.048V129.5H50.7964C50.5687 129.5 50.3433 129.455 50.133 129.368C49.9227 129.281 49.7316 129.153 49.5708 128.992C49.4099 128.83 49.2825 128.639 49.1956 128.429C49.1088 128.218 49.0643 127.993 49.0647 127.765V109.112C49.0647 108.652 49.2471 108.212 49.5719 107.887C49.8967 107.562 50.3371 107.38 50.7964 107.38Z" fill="#CFD8DC" stroke="#263238" stroke-linecap="round" stroke-linejoin="round"/>
<path opacity="0.2" d="M114.676 107.936H111.424V117.46C111.707 117.258 112.041 117.137 112.389 117.111C112.736 117.086 113.084 117.157 113.394 117.316C113.704 117.476 113.964 117.717 114.146 118.015C114.327 118.312 114.423 118.654 114.423 119.002C114.423 119.351 114.327 119.693 114.146 119.99C113.964 120.287 113.704 120.529 113.394 120.689C113.084 120.848 112.736 120.919 112.389 120.893C112.041 120.868 111.707 120.747 111.424 120.544V130.069H114.676C115.136 130.069 115.577 129.886 115.902 129.561C116.228 129.235 116.411 128.794 116.411 128.334V109.671C116.411 109.211 116.228 108.769 115.902 108.444C115.577 108.119 115.136 107.936 114.676 107.936Z" fill="black"/>
<path d="M114.12 107.38H110.868V116.92C111.151 116.717 111.485 116.596 111.833 116.571C112.18 116.546 112.528 116.616 112.838 116.776C113.148 116.935 113.408 117.177 113.589 117.474C113.771 117.772 113.867 118.114 113.867 118.462C113.867 118.81 113.771 119.152 113.589 119.45C113.408 119.747 113.148 119.989 112.838 120.148C112.528 120.308 112.18 120.378 111.833 120.353C111.485 120.328 111.151 120.207 110.868 120.004V129.528H114.12C114.347 129.528 114.573 129.483 114.783 129.396C114.993 129.309 115.184 129.181 115.345 129.02C115.506 128.859 115.633 128.668 115.72 128.457C115.807 128.247 115.852 128.021 115.851 127.793V109.112C115.851 108.652 115.669 108.212 115.344 107.887C115.019 107.562 114.579 107.38 114.12 107.38Z" fill="#CFD8DC" stroke="#263238" stroke-linecap="round" stroke-linejoin="round"/>
<path opacity="0.2" d="M104.968 108.123H61.5815C60.6234 108.123 59.8467 108.899 59.8467 109.857V128.52C59.8467 129.478 60.6234 130.255 61.5815 130.255H104.968C105.926 130.255 106.703 129.478 106.703 128.52V109.857C106.703 108.899 105.926 108.123 104.968 108.123Z" fill="black"/>
<path d="M103.856 107.38H60.4692C59.5111 107.38 58.7344 108.157 58.7344 109.115V127.778C58.7344 128.736 59.5111 129.513 60.4692 129.513H103.856C104.814 129.513 105.591 128.736 105.591 127.778V109.115C105.591 108.157 104.814 107.38 103.856 107.38Z" fill="#263238" stroke="#263238" stroke-linecap="round" stroke-linejoin="round"/>
<path d="M103.316 107.876H61.0095C60.0514 107.876 59.2747 108.653 59.2747 109.611V127.282C59.2747 128.24 60.0514 129.016 61.0095 129.016H103.316C104.274 129.016 105.05 128.24 105.05 127.282V109.611C105.05 108.653 104.274 107.876 103.316 107.876Z" fill="#CFD8DC" stroke="#263238" stroke-linecap="round" stroke-linejoin="round"/>
<path d="M62.58 108.675H93.8102V128.416H62.58C62.0847 128.416 61.6096 128.219 61.2594 127.869C60.9092 127.519 60.7124 127.044 60.7124 126.548V110.543C60.7124 110.048 60.9092 109.573 61.2594 109.222C61.6096 108.872 62.0847 108.675 62.58 108.675Z" fill="#B5B5B5" stroke="#263238" stroke-linecap="round" stroke-linejoin="round"/>
<path d="M102.699 119.641C103.415 119.641 103.995 119.06 103.995 118.345C103.995 117.629 103.415 117.049 102.699 117.049C101.984 117.049 101.404 117.629 101.404 118.345C101.404 119.06 101.984 119.641 102.699 119.641Z" fill="#263238" stroke="#263238" stroke-linecap="round" stroke-linejoin="round"/>
<path d="M95.719 124.627H94.8215V128.416H95.719V124.627Z" stroke="#263238" stroke-linecap="round" stroke-linejoin="round"/>
<path d="M95.719 118.844H94.8215V122.633H95.719V118.844Z" stroke="#263238" stroke-linecap="round" stroke-linejoin="round"/>
<path d="M70.3631 88.581H61.5151V88.0975C61.5151 87.9718 61.4652 87.8513 61.3763 87.7624C61.2874 87.6735 61.1669 87.6235 61.0411 87.6235C60.9154 87.6235 60.7949 87.6735 60.706 87.7624C60.6171 87.8513 60.5671 87.9718 60.5671 88.0975V95.6815C60.5671 95.8072 60.6171 95.9278 60.706 96.0167C60.7949 96.1056 60.9154 96.1555 61.0411 96.1555C61.1669 96.1555 61.2874 96.1056 61.3763 96.0167C61.4652 95.9278 61.5151 95.8072 61.5151 95.6815V95.0021H70.3631C70.6677 95.0013 70.9594 94.8797 71.1744 94.6641C71.3895 94.4485 71.5102 94.1564 71.5102 93.8519V89.7439C71.5119 89.592 71.4835 89.4414 71.4266 89.3006C71.3698 89.1598 71.2856 89.0316 71.1789 88.9235C71.0723 88.8154 70.9453 88.7295 70.8053 88.6707C70.6653 88.6119 70.515 88.5814 70.3631 88.581ZM61.5151 89.213H67.5191V94.3638H61.5151V89.213ZM70.8782 93.8519C70.8782 93.9888 70.8241 94.1201 70.7275 94.2172C70.631 94.3143 70.5 94.3693 70.3631 94.3701H68.1227V89.2193H70.3631C70.4997 89.2193 70.6308 89.2736 70.7274 89.3702C70.8239 89.4668 70.8782 89.5978 70.8782 89.7344V93.8519Z" fill="#263238"/>
<path d="M65.1332 78.2285H61.4265V86.1064H67.9045V80.7723L65.1332 78.2285Z" fill="#CFD8DC" stroke="#263238" stroke-linecap="round" stroke-linejoin="round"/>
<path d="M65.5631 80.5513H63.2121C62.7741 80.5513 62.4189 80.9064 62.4189 81.3444V84.1631C62.4189 84.6012 62.7741 84.9563 63.2121 84.9563H65.5631C66.0012 84.9563 66.3563 84.6012 66.3563 84.1631V81.3444C66.3563 80.9064 66.0012 80.5513 65.5631 80.5513Z" fill="white" stroke="#263238" stroke-linecap="round" stroke-linejoin="round"/>
<path d="M64.3496 80.6304V84.9596" stroke="#263238" stroke-linecap="round" stroke-linejoin="round"/>
<path d="M62.4189 82.8359H66.3152" stroke="#263238" stroke-linecap="round" stroke-linejoin="round"/>
<path d="M63.3638 84.9218V83.939C63.3638 83.6776 63.4676 83.4268 63.6525 83.2419C63.8374 83.057 64.0882 82.9531 64.3497 82.9531H64.3845C64.6462 82.9531 64.8973 83.0569 65.0827 83.2417C65.2681 83.4265 65.3727 83.6773 65.3735 83.939V84.9566" stroke="#263238" stroke-linecap="round" stroke-linejoin="round"/>
<path d="M65.3735 80.7789V81.7617C65.3727 82.0234 65.2681 82.2742 65.0827 82.459C64.8973 82.6438 64.6462 82.7476 64.3845 82.7476H64.3497C64.2202 82.7476 64.092 82.7221 63.9724 82.6725C63.8528 82.623 63.7441 82.5504 63.6525 82.4588C63.561 82.3673 63.4884 82.2586 63.4388 82.139C63.3893 82.0193 63.3638 81.8911 63.3638 81.7617V80.7441" stroke="#263238" stroke-linecap="round" stroke-linejoin="round"/>
<path opacity="0.2" d="M127.158 73.2268C127.158 73.1849 127.141 73.1448 127.112 73.1151C127.082 73.0855 127.042 73.0688 127 73.0688H120.724C120.683 73.0697 120.643 73.0866 120.613 73.116C120.584 73.1455 120.567 73.1852 120.566 73.2268V77.8626C120.567 77.9042 120.584 77.9438 120.614 77.9732L121.919 93.9659C121.917 93.9732 121.917 93.9808 121.919 93.988V110.521C121.918 110.544 121.923 110.567 121.933 110.588C121.943 110.609 121.958 110.627 121.976 110.641L122.851 116.051C122.857 116.088 122.876 116.122 122.904 116.146C122.932 116.17 122.968 116.184 123.006 116.184H123.252L123.464 128.271C123.473 128.371 123.519 128.464 123.593 128.531C123.667 128.599 123.763 128.637 123.864 128.637C123.964 128.637 124.061 128.599 124.135 128.531C124.209 128.464 124.254 128.371 124.263 128.271L124.472 116.181H124.715C124.753 116.181 124.789 116.167 124.818 116.143C124.847 116.119 124.867 116.085 124.873 116.048L125.745 110.638C125.764 110.624 125.779 110.606 125.789 110.585C125.8 110.564 125.805 110.541 125.805 110.518V93.988C125.804 93.9808 125.804 93.9732 125.805 93.9659L127.111 77.9732C127.139 77.9435 127.155 77.9038 127.155 77.8626L127.158 73.2268Z" fill="black"/>
<path d="M123.059 128.508C122.996 128.507 122.936 128.482 122.891 128.438C122.847 128.394 122.821 128.334 122.819 128.271L122.585 114.92H123.533L123.303 128.271C123.301 128.334 123.275 128.395 123.229 128.439C123.184 128.483 123.123 128.508 123.059 128.508Z" fill="white" stroke="#263238" stroke-miterlimit="10"/>
<path d="M126.159 77.875H119.969L121.283 93.9531H121.286V110.521H124.845V93.9531H124.848L126.159 77.875Z" fill="#263238" stroke="#263238" stroke-linecap="round" stroke-linejoin="round"/>
<path d="M126.197 73.2266H119.931V77.8591H126.197V73.2266Z" fill="#CFD8DC" stroke="#263238" stroke-linecap="round" stroke-linejoin="round"/>
<path d="M123.916 116.026H122.216L121.331 110.546H124.797L123.916 116.026Z" fill="#CFD8DC" stroke="#263238" stroke-linecap="round" stroke-linejoin="round"/>
<path opacity="0.2" d="M42.9313 78.0522C42.9282 78.013 42.9114 77.976 42.8839 77.9479C42.847 77.9021 42.7965 77.8692 42.7397 77.8539C42.683 77.8385 42.6228 77.8416 42.5679 77.8626C42.1128 78.0522 42.0686 79.9545 42.0623 84.941C42.0623 87.9493 42.0623 91.3621 41.8189 93.6057C41.1062 99.548 39.9442 105.428 38.3429 111.194C38.0016 112.345 37.746 113.52 37.5782 114.708C37.4043 113.523 37.1445 112.352 36.8009 111.204C35.1981 105.437 34.0361 99.5577 33.3249 93.6152C33.0879 91.3716 33.0847 87.9588 33.0815 84.9505C33.0815 79.964 33.0341 78.0617 32.5791 77.8721C32.5241 77.852 32.4642 77.8495 32.4076 77.8647C32.351 77.88 32.3006 77.9124 32.2631 77.9574C32.2352 77.985 32.2193 78.0225 32.2189 78.0617C32.2189 78.2229 31.5205 94.2725 32.6929 101.006C33.2174 104.008 33.8052 107.036 34.374 109.962C35.0881 113.637 35.7043 116.813 36.0109 119.012C36.4469 122.134 36.4406 126.087 36.4153 127.642C36.4149 127.74 36.4338 127.837 36.4709 127.928C36.508 128.018 36.5626 128.101 36.6315 128.17C36.7005 128.24 36.7825 128.295 36.8728 128.333C36.9631 128.371 37.06 128.391 37.1579 128.391H37.9859C38.0838 128.391 38.1807 128.372 38.271 128.334C38.3614 128.296 38.4433 128.241 38.5121 128.171C38.5809 128.101 38.6352 128.019 38.6718 127.928C38.7084 127.837 38.7266 127.74 38.7253 127.642C38.7032 126.087 38.6937 122.137 39.1298 119.012C39.4458 116.8 40.0557 113.64 40.7698 109.962C41.3355 107.036 41.9232 104.008 42.4478 101.006C43.6201 94.263 42.9376 78.2134 42.9313 78.0522ZM37.5782 117.473C37.5866 117.511 37.5972 117.548 37.6098 117.584L37.5782 117.612L37.5466 117.584C37.5561 117.552 37.5656 117.517 37.5782 117.473Z" fill="black"/>
<path d="M42.0811 78.1406C41.1331 77.1926 41.8441 88.4896 41.2911 93.7036C40.5824 99.6559 39.4203 105.545 37.8151 111.321C36.3931 116.219 37.1041 117.72 37.1041 117.72L36.8861 117.897C36.7628 117.792 36.668 117.72 36.668 117.72C36.668 117.72 37.379 116.219 35.957 111.321C34.3518 105.545 33.1898 99.6559 32.481 93.7036C31.928 88.4896 32.639 77.1926 31.691 78.1406C31.691 78.1406 30.98 94.2566 32.165 101.051C33.35 107.845 34.93 115.113 35.483 119.063C35.9254 122.223 35.9128 126.23 35.8907 127.715C35.8894 127.792 35.9035 127.868 35.9322 127.94C35.9608 128.012 36.0035 128.077 36.0576 128.132C36.1117 128.187 36.1762 128.231 36.2474 128.26C36.3186 128.29 36.3949 128.306 36.4721 128.306H37.3C37.3772 128.306 37.4536 128.29 37.5247 128.26C37.5959 128.231 37.6604 128.187 37.7146 128.132C37.7687 128.077 37.8113 128.012 37.84 127.94C37.8686 127.868 37.8827 127.792 37.8815 127.715C37.8593 126.23 37.8499 122.216 38.2891 119.063C38.8421 115.113 40.4221 107.845 41.6071 101.051C42.7921 94.2566 42.0811 78.1406 42.0811 78.1406Z" fill="#263238" stroke="#263238" stroke-linecap="round" stroke-linejoin="round"/>
<path opacity="0.2" d="M121.464 44.0254C123.064 38.3332 124.951 32.7255 127.117 27.2236L114.208 26.7212C114.208 26.7212 110.461 36.4256 108.966 39.1179C107.471 41.8102 105.575 42.5939 103.382 43.504C101.189 44.414 95.0082 48.2882 94.4078 49.786C93.8074 51.2839 93.1122 55.7679 92.5118 57.2626C91.9114 58.7573 90.7169 59.5536 88.922 60.0529C88.5713 60.1508 88.2142 60.2425 87.8729 60.331H87.8476L87.5095 60.4194L87.3294 60.4668L87.2125 60.4984L87.0513 60.5458L86.9375 60.5806L86.7764 60.6312L86.6816 60.6596L86.4509 60.7418L86.4067 60.7607C86.3466 60.7828 86.2897 60.805 86.236 60.8302L86.1634 60.8618L86.0401 60.925L85.9738 60.9598L85.8631 61.0262L85.8158 61.0609C85.7699 61.0934 85.7266 61.1293 85.6862 61.1684C85.655 61.2007 85.6264 61.2356 85.6009 61.2726C85.5923 61.2856 85.5849 61.2994 85.5788 61.3137C85.5635 61.3409 85.5508 61.3695 85.5408 61.399C85.5342 61.4143 85.5289 61.4302 85.525 61.4464C85.5216 61.4779 85.5216 61.5097 85.525 61.5412C85.5234 61.5559 85.5234 61.5708 85.525 61.5855C85.5271 61.6351 85.5367 61.6841 85.5535 61.7308C85.8505 62.6283 88.7419 63.2287 91.6333 62.8305C94.5247 62.4324 95.6212 61.6329 96.5187 60.4352C97.4161 59.2376 98.9108 56.6432 99.508 56.3494L100.108 56.0334C100.108 56.0334 100.007 66.7015 100.206 67.9971C100.405 69.2927 99.309 73.7799 97.1159 79.1646C96.384 80.8788 96.0057 82.7232 96.0036 84.5871V84.6124C96.0089 85.0354 96.0416 85.4576 96.1015 85.8764C96.1531 86.2377 96.227 86.5955 96.3228 86.9476C96.3512 87.0488 96.3828 87.1499 96.4112 87.2447V87.2605C96.4744 87.4564 96.5408 87.6365 96.6071 87.7977C96.6387 87.8704 96.6672 87.9399 96.6988 88.0031L96.7178 88.0442C96.7472 88.1052 96.7757 88.1621 96.8031 88.2148C96.8037 88.2232 96.8037 88.2317 96.8031 88.2401C96.8347 88.3001 96.8663 88.357 96.901 88.4107V88.4265C96.9295 88.4708 96.9547 88.515 96.9832 88.5529L97.0085 88.5908L97.0717 88.6762L97.097 88.7046L97.1791 88.7962C97.8775 89.4946 99.271 89.4946 99.5712 89.1944C99.8714 88.8942 99.6723 84.9063 100.27 82.3151C100.867 79.7239 104.355 72.8351 105.354 71.4478C106.116 70.3291 106.814 69.1686 107.446 67.9718C106.979 71.2161 106.143 74.3966 104.956 77.4518C102.962 82.6374 100.867 86.0249 100.469 87.5228C100.071 89.0206 101.565 89.9149 102.463 89.5167C103.36 89.1186 105.253 85.1275 105.939 83.7339C106.624 82.3404 108.666 79.0002 108.666 79.0002C109.211 79.0656 109.763 78.9894 110.27 78.7791C110.777 78.5688 111.222 78.2314 111.56 77.7994C111.706 77.6162 111.86 77.4108 112.022 77.1927C112.606 77.2646 113.199 77.1985 113.753 77C115.248 76.5038 115.15 75.006 115.747 73.524C116 72.9319 116.339 72.3804 116.752 71.8871C117.2 71.5927 117.572 71.1977 117.839 70.7337C118.136 69.9974 118.594 64.5243 119.053 60.3499C119.185 54.8302 119.994 49.3476 121.464 44.0254Z" fill="black"/>
<mask id="mask0_321_1085" style="mask-type:luminance" maskUnits="userSpaceOnUse" x="109" y="69" width="8" height="7">
<path d="M116.256 69.457C116.256 69.457 114.761 70.7526 114.164 72.2473C113.567 73.742 113.665 75.2398 112.17 75.7233C110.676 76.2068 109.778 75.7233 109.778 75.7233C109.778 75.7233 110.973 72.7339 111.674 71.7354C112.376 70.7368 116.256 69.457 116.256 69.457Z" fill="white"/>
</mask>
<g mask="url(#mask0_321_1085)">
<path d="M116.256 69.457C116.256 69.457 114.761 70.7526 114.164 72.2473C113.567 73.742 113.665 75.2398 112.17 75.7233C110.676 76.2068 109.778 75.7233 109.778 75.7233C109.778 75.7233 110.973 72.7339 111.674 71.7354C112.376 70.7368 116.256 69.457 116.256 69.457Z" fill="#CFD8DC"/>
<path opacity="0.5" d="M116.256 69.457C116.256 69.457 114.761 70.7526 114.164 72.2473C113.567 73.742 113.665 75.2398 112.17 75.7233C110.676 76.2068 109.778 75.7233 109.778 75.7233C109.778 75.7233 110.973 72.7339 111.674 71.7354C112.376 70.7368 116.256 69.457 116.256 69.457Z" fill="white"/>
</g>
<path d="M116.256 69.457C116.256 69.457 114.761 70.7526 114.164 72.2473C113.567 73.742 113.665 75.2398 112.17 75.7233C110.676 76.2068 109.778 75.7233 109.778 75.7233C109.778 75.7233 110.973 72.7339 111.674 71.7354C112.376 70.7368 116.256 69.457 116.256 69.457Z" stroke="#263238" stroke-linecap="round" stroke-linejoin="round"/>
<path d="M112.628 25.457C112.628 25.457 108.881 35.1614 107.386 37.8537C105.891 40.546 103.995 41.3297 101.802 42.2398C99.6091 43.1499 93.4281 47.024 92.8277 48.5219C92.2273 50.0197 91.5321 54.5038 90.9317 55.9984C90.3313 57.4931 89.1368 58.2894 87.342 58.7887C85.5471 59.288 83.6542 59.5882 83.9544 60.4825C84.2546 61.3767 87.1429 61.9803 90.0343 61.5822C92.9257 61.184 94.0222 60.3845 94.9196 59.1869C95.8171 57.9892 97.3118 55.3949 97.909 55.101L98.5094 54.785C98.5094 54.785 98.4083 65.4531 98.6074 66.7487C98.8064 68.0443 97.7099 72.5316 95.5169 77.9162C93.3238 83.3008 94.9196 86.8874 95.618 87.5858C96.3164 88.2842 97.7099 88.2841 98.0101 87.9839C98.3103 87.6837 98.1112 83.6958 98.7085 81.1046C99.3057 78.5134 102.794 71.6246 103.793 70.2374C104.554 69.1186 105.253 67.9582 105.885 66.7614C105.417 70.0057 104.582 73.1862 103.395 76.2414C101.401 81.427 99.3057 84.8145 98.9076 86.3123C98.5094 87.8102 100.004 88.7044 100.902 88.3063C101.799 87.9081 103.692 83.917 104.378 82.5235C105.063 81.1299 107.086 77.7361 107.086 77.7361C107.631 77.8014 108.183 77.7253 108.69 77.515C109.197 77.3046 109.642 76.9672 109.98 76.5353C111.175 75.0406 113.071 71.9501 113.071 71.9501C113.071 71.9501 115.861 70.4523 116.259 69.4569C116.657 68.4615 117.356 58.7887 117.956 55.398C118.556 52.0074 120.247 44.733 121.144 41.8416C122.042 38.9502 128.583 26.4556 128.583 26.4556" fill="white"/>
<mask id="mask1_321_1085" style="mask-type:luminance" maskUnits="userSpaceOnUse" x="83" y="25" width="46" height="64">
<path d="M112.628 25.457C112.628 25.457 108.881 35.1614 107.386 37.8537C105.891 40.546 103.995 41.3297 101.802 42.2398C99.6091 43.1499 93.4281 47.024 92.8277 48.5219C92.2273 50.0197 91.5321 54.5038 90.9317 55.9984C90.3313 57.4931 89.1368 58.2894 87.342 58.7887C85.5471 59.288 83.6542 59.5882 83.9544 60.4825C84.2546 61.3767 87.1429 61.9803 90.0343 61.5822C92.9257 61.184 94.0222 60.3845 94.9196 59.1869C95.8171 57.9892 97.3118 55.3949 97.909 55.101L98.5094 54.785C98.5094 54.785 98.4083 65.4531 98.6074 66.7487C98.8064 68.0443 97.7099 72.5316 95.5169 77.9162C93.3238 83.3008 94.9196 86.8874 95.618 87.5858C96.3164 88.2842 97.7099 88.2841 98.0101 87.9839C98.3103 87.6837 98.1112 83.6958 98.7085 81.1046C99.3057 78.5134 102.794 71.6246 103.793 70.2374C104.554 69.1186 105.253 67.9582 105.885 66.7614C105.417 70.0057 104.582 73.1862 103.395 76.2414C101.401 81.427 99.3057 84.8145 98.9076 86.3123C98.5094 87.8102 100.004 88.7044 100.902 88.3063C101.799 87.9081 103.692 83.917 104.378 82.5235C105.063 81.1299 107.086 77.7361 107.086 77.7361C107.631 77.8014 108.183 77.7253 108.69 77.515C109.197 77.3046 109.642 76.9672 109.98 76.5353C111.175 75.0406 113.071 71.9501 113.071 71.9501C113.071 71.9501 115.861 70.4523 116.259 69.4569C116.657 68.4615 117.356 58.7887 117.956 55.398C118.556 52.0074 120.247 44.733 121.144 41.8416C122.042 38.9502 128.583 26.4556 128.583 26.4556" fill="white"/>
</mask>
<g mask="url(#mask1_321_1085)">
<path d="M94.9228 59.1868C95.8202 57.9924 97.3149 55.3948 97.9122 55.101L98.5126 54.785C98.5126 54.785 97.0242 51.9125 95.5485 54.0202C94.0728 56.128 91.9682 59.3038 90.0722 59.5123C88.7576 59.6608 87.5442 59.3006 86.296 59.0668C84.893 59.427 83.7174 59.762 83.9576 60.4824C84.2546 61.3799 87.146 61.9803 90.0374 61.5821C92.9288 61.184 94.0254 60.3845 94.9228 59.1868Z" fill="#CFD8DC"/>
<path d="M94.411 82.8965C94.3383 85.4782 95.1694 87.1499 95.6212 87.6017C96.3196 88.3001 97.7132 88.3001 98.0134 87.9999C98.3136 87.6997 98.1145 83.7118 98.7117 81.1206C99.309 78.5294 102.798 71.6406 103.796 70.2533C104.558 69.1346 105.256 67.9741 105.888 66.7773C105.888 66.7773 103.556 71.1002 101.028 73.6282C98.7876 75.8687 95.558 78.2734 94.411 82.8965Z" fill="#CFD8DC"/>
<path d="M124.412 34.6558C122.38 38.1654 120.128 41.5428 117.669 44.7678C113.245 50.6643 113.036 58.0398 112.404 61.1998C111.772 64.3598 112.192 67.308 109.876 70.6798C107.56 74.0515 106.084 76.788 106.084 76.788L105.888 66.7645C105.421 70.0088 104.585 73.1893 103.398 76.2445C101.404 81.4301 99.3089 84.8176 98.9108 86.3154C98.5126 87.8133 100.007 88.7076 100.905 88.3094C101.802 87.9112 103.695 83.9202 104.381 82.5266C105.066 81.133 107.086 77.736 107.086 77.736C107.631 77.8014 108.183 77.7253 108.69 77.5149C109.197 77.3046 109.642 76.9672 109.98 76.5352C111.175 75.0406 113.071 71.9501 113.071 71.9501C113.071 71.9501 115.861 70.4522 116.259 69.4568C116.657 68.4614 117.356 58.7887 117.956 55.398C118.557 52.0073 120.247 44.733 121.145 41.8416C121.562 40.5049 122.999 37.525 124.428 34.7063L124.412 34.6558Z" fill="#CFD8DC"/>
<g opacity="0.5">
<path d="M94.9228 59.1868C95.8202 57.9924 97.3149 55.3948 97.9122 55.101L98.5126 54.785C98.5126 54.785 97.0242 51.9125 95.5485 54.0202C94.0728 56.128 91.9682 59.3038 90.0722 59.5123C88.7576 59.6608 87.5442 59.3006 86.296 59.0668C84.893 59.427 83.7174 59.762 83.9576 60.4824C84.2546 61.3799 87.146 61.9803 90.0374 61.5821C92.9288 61.184 94.0254 60.3845 94.9228 59.1868Z" fill="white"/>
<path d="M94.411 82.8965C94.3383 85.4782 95.1694 87.1499 95.6212 87.6017C96.3196 88.3001 97.7132 88.3001 98.0134 87.9999C98.3136 87.6997 98.1145 83.7118 98.7117 81.1206C99.309 78.5294 102.798 71.6406 103.796 70.2533C104.558 69.1346 105.256 67.9741 105.888 66.7773C105.888 66.7773 103.556 71.1002 101.028 73.6282C98.7876 75.8687 95.558 78.2734 94.411 82.8965Z" fill="white"/>
<path d="M124.412 34.6558C122.38 38.1654 120.128 41.5428 117.669 44.7678C113.245 50.6643 113.036 58.0398 112.404 61.1998C111.772 64.3598 112.192 67.308 109.876 70.6798C107.56 74.0515 106.084 76.788 106.084 76.788L105.888 66.7645C105.421 70.0088 104.585 73.1893 103.398 76.2445C101.404 81.4301 99.3089 84.8176 98.9108 86.3154C98.5126 87.8133 100.007 88.7076 100.905 88.3094C101.802 87.9112 103.695 83.9202 104.381 82.5266C105.066 81.133 107.086 77.736 107.086 77.736C107.631 77.8014 108.183 77.7253 108.69 77.5149C109.197 77.3046 109.642 76.9672 109.98 76.5352C111.175 75.0406 113.071 71.9501 113.071 71.9501C113.071 71.9501 115.861 70.4522 116.259 69.4568C116.657 68.4614 117.356 58.7887 117.956 55.398C118.557 52.0073 120.247 44.733 121.145 41.8416C121.562 40.5049 122.999 37.525 124.428 34.7063L124.412 34.6558Z" fill="white"/>
</g>
</g>
<path d="M112.628 25.457C112.628 25.457 108.881 35.1614 107.386 37.8537C105.891 40.546 103.995 41.3297 101.802 42.2398C99.6091 43.1499 93.4281 47.024 92.8277 48.5219C92.2273 50.0197 91.5321 54.5038 90.9317 55.9984C90.3313 57.4931 89.1368 58.2894 87.342 58.7887C85.5471 59.288 83.6542 59.5882 83.9544 60.4825C84.2546 61.3767 87.1429 61.9803 90.0343 61.5822C92.9257 61.184 94.0222 60.3845 94.9196 59.1869C95.8171 57.9892 97.3118 55.3949 97.909 55.101L98.5094 54.785C98.5094 54.785 98.4083 65.4531 98.6074 66.7487C98.8064 68.0443 97.7099 72.5316 95.5169 77.9162C93.3238 83.3008 94.9196 86.8874 95.618 87.5858C96.3164 88.2842 97.7099 88.2841 98.0101 87.9839C98.3103 87.6837 98.1112 83.6958 98.7085 81.1046C99.3057 78.5134 102.794 71.6246 103.793 70.2374C104.554 69.1186 105.253 67.9582 105.885 66.7614C105.417 70.0057 104.582 73.1862 103.395 76.2414C101.401 81.427 99.3057 84.8145 98.9076 86.3123C98.5094 87.8102 100.004 88.7044 100.902 88.3063C101.799 87.9081 103.692 83.917 104.378 82.5235C105.063 81.1299 107.086 77.7361 107.086 77.7361C107.631 77.8014 108.183 77.7253 108.69 77.515C109.197 77.3046 109.642 76.9672 109.98 76.5353C111.175 75.0406 113.071 71.9501 113.071 71.9501C113.071 71.9501 115.861 70.4523 116.259 69.4569C116.657 68.4615 117.356 58.7887 117.956 55.398C118.556 52.0074 120.247 44.733 121.144 41.8416C122.042 38.9502 128.583 26.4556 128.583 26.4556" stroke="#263238" stroke-linecap="round" stroke-linejoin="round"/>
<path d="M106.504 65.2004C106.504 65.2004 107.348 64.7802 107.556 63.3044C107.685 62.3977 107.756 61.4836 107.768 60.5679" stroke="#263238" stroke-linecap="round" stroke-linejoin="round"/>
<path d="M107.086 77.7363C107.086 77.7363 110.176 72.1557 110.675 71.8555C111.175 71.5553 112.767 70.6579 112.868 69.2643C112.97 67.8707 113.068 66.1738 113.068 66.1738" stroke="#263238" stroke-linecap="round" stroke-linejoin="round"/>
<path d="M53.5393 26.228C53.5393 26.228 56.9394 38.3624 57.6473 39.8571C58.3551 41.3518 62.1313 43.7439 62.8297 47.0335C63.528 50.323 64.4255 51.7197 65.2218 54.213C66.0181 56.7062 66.7196 56.7062 65.522 58.7981C64.3243 60.8901 64.1253 62.1888 64.9247 63.4844C65.7242 64.78 69.8101 66.4738 69.3108 67.4723C68.8115 68.4709 68.3123 68.7679 67.9141 68.7679H67.5159C67.5159 68.7679 68.4134 72.0575 67.9141 73.2551C67.4148 74.4528 66.2203 75.2491 65.8222 74.6487C65.424 74.0483 64.7257 73.154 64.7257 73.154C64.7257 73.154 65.522 74.7498 64.5266 74.9489C63.5312 75.148 63.3289 74.8509 61.8343 74.1526C60.3396 73.4542 56.9489 72.7559 56.9489 72.7559C56.9489 72.7559 52.961 74.3359 51.6654 74.7498C50.3698 75.1638 48.774 74.6487 48.774 74.6487C48.774 74.6487 44.4859 76.3456 43.7875 74.9647C43.0891 73.5838 42.593 67.7883 42.2928 66.6918C41.9926 65.5953 40.9972 64.6979 41.1963 63.0009C41.3954 61.304 41.8947 60.3086 41.9958 59.6134C42.0969 58.9182 44.6849 46.2529 44.6849 43.4627C44.6849 40.6724 39.8027 26.7147 39.8027 26.7147" fill="white"/>
<path d="M53.5393 26.228C53.5393 26.228 56.9394 38.3624 57.6473 39.8571C58.3551 41.3518 62.1313 43.7439 62.8297 47.0335C63.528 50.323 64.4255 51.7197 65.2218 54.213C66.0181 56.7062 66.7196 56.7062 65.522 58.7981C64.3243 60.8901 64.1253 62.1888 64.9247 63.4844C65.7242 64.78 69.8101 66.4738 69.3108 67.4723C68.8115 68.4709 68.3123 68.7679 67.9141 68.7679H67.5159C67.5159 68.7679 68.4134 72.0575 67.9141 73.2551C67.4148 74.4528 66.2203 75.2491 65.8222 74.6487C65.424 74.0483 64.7257 73.154 64.7257 73.154C64.7257 73.154 65.522 74.7498 64.5266 74.9489C63.5312 75.148 63.3289 74.8509 61.8343 74.1526C60.3396 73.4542 56.9489 72.7559 56.9489 72.7559C56.9489 72.7559 52.961 74.3359 51.6654 74.7498C50.3698 75.1638 48.774 74.6487 48.774 74.6487C48.774 74.6487 44.4859 76.3456 43.7875 74.9647C43.0891 73.5838 42.593 67.7883 42.2928 66.6918C41.9926 65.5953 40.9972 64.6979 41.1963 63.0009C41.3954 61.304 41.8947 60.3086 41.9958 59.6134C42.0969 58.9182 44.6849 46.2529 44.6849 43.4627C44.6849 40.6724 39.8027 26.7147 39.8027 26.7147" stroke="#263238" stroke-linecap="round" stroke-linejoin="round"/>
<path d="M57.8401 51.2109C57.8401 51.2109 59.4201 57.8912 60.3333 60.1853C61.2466 62.4795 62.125 64.8716 63.1236 65.7691C64.1222 66.6665 67.1115 68.2591 67.5097 68.7584" stroke="#263238" stroke-linecap="round" stroke-linejoin="round"/>
<path d="M50.9575 58.6909C50.9575 58.6909 57.3376 67.8549 58.2255 69.258C59.1135 70.661 61.8153 70.6515 62.5136 71.2519L64.7067 73.1479" stroke="#263238" stroke-linecap="round" stroke-linejoin="round"/>
<path d="M44.884 61.2817C44.884 61.2817 47.5764 64.5713 49.7694 67.8609C51.9624 71.1504 52.1647 71.9499 53.2454 72.2469C54.3261 72.544 56.9331 72.7462 56.9331 72.7462" stroke="#263238" stroke-linecap="round" stroke-linejoin="round"/>
<path d="M42.7827 66.3599C42.7827 66.3599 47.3679 72.5408 47.766 73.4383C47.9613 73.9337 48.3116 74.3527 48.7646 74.6327" stroke="#263238" stroke-linecap="round" stroke-linejoin="round"/>
<path d="M50.8563 52.3076C50.8563 52.3076 48.7644 53.4073 49.0646 54.3016C49.2811 54.9204 49.5474 55.5207 49.861 56.0965" stroke="#263238" stroke-linecap="round" stroke-linejoin="round"/>
<path d="M45.2759 55.6982C45.2759 55.6982 43.3799 56.2955 43.282 57.392C43.2307 58.0805 43.3684 58.7699 43.6801 59.386" stroke="#263238" stroke-linecap="round" stroke-linejoin="round"/>
<path d="M81.2051 68.5371H66.4763V70.2214H81.2051V68.5371Z" fill="white" stroke="#263238" stroke-linecap="round" stroke-linejoin="round"/>
<path opacity="0.2" d="M54.5031 29.3533C54.5031 29.3533 59.4674 40.4575 60.1658 41.9553C60.8642 43.4532 64.6498 45.8421 65.3482 49.1317C66.0466 52.4213 66.944 53.818 67.7403 56.3112C68.5366 58.8045 69.2382 58.8013 68.0405 60.8964C66.8429 62.9915 66.6438 64.2839 67.4433 65.5827C68.2428 66.8814 72.3286 68.572 71.8294 69.5706C71.3301 70.5691 70.8308 70.8662 70.4326 70.8662H70.0345C70.0345 70.8662 70.9319 74.1557 70.4326 75.3502C69.9334 76.5447 68.7389 77.3442 68.3407 76.7469C67.9426 76.1497 67.2442 75.2523 67.2442 75.2523C67.2442 75.2523 68.0405 76.8481 67.0451 77.0471C66.0497 77.2462 65.8475 76.946 64.3528 76.2477C62.8581 75.5493 59.4674 74.8541 59.4674 74.8541C59.4674 74.8541 55.4795 76.4341 54.1839 76.8481C52.8883 77.262 51.2925 76.7469 51.2925 76.7469C51.2925 76.7469 47.0044 78.4407 46.306 77.0471C45.6077 75.6536 45.1116 69.8676 44.8114 68.7711C44.5112 67.6746 43.5158 66.7771 43.7149 65.0834C43.9139 63.3896 44.4132 62.3911 44.5143 61.6927C44.6154 60.9943 47.2035 48.3354 47.2035 45.5419C47.2035 42.7485 42.3213 28.7939 42.3213 28.7939" fill="black"/>
<path d="M53.5393 26.228C53.5393 26.228 56.9394 38.3624 57.6473 39.8571C58.3551 41.3518 62.1313 43.7439 62.8297 47.0335C63.528 50.323 64.4255 51.7197 65.2218 54.213C66.0181 56.7062 66.7196 56.7062 65.522 58.7981C64.3243 60.8901 64.1253 62.1888 64.9247 63.4844C65.7242 64.78 69.8101 66.4738 69.3108 67.4723C68.8115 68.4709 68.3123 68.7679 67.9141 68.7679H67.5159C67.5159 68.7679 68.4134 72.0575 67.9141 73.2551C67.4148 74.4528 66.2203 75.2491 65.8222 74.6487C65.424 74.0483 64.7257 73.154 64.7257 73.154C64.7257 73.154 65.522 74.7498 64.5266 74.9489C63.5312 75.148 63.3289 74.8509 61.8343 74.1526C60.3396 73.4542 56.9489 72.7559 56.9489 72.7559C56.9489 72.7559 52.961 74.3359 51.6654 74.7498C50.3698 75.1638 48.774 74.6487 48.774 74.6487C48.774 74.6487 44.4859 76.3456 43.7875 74.9647C43.0891 73.5838 42.593 67.7883 42.2928 66.6918C41.9926 65.5953 40.9972 64.6979 41.1963 63.0009C41.3954 61.304 41.8947 60.3086 41.9958 59.6134C42.0969 58.9182 44.6849 46.2529 44.6849 43.4627C44.6849 40.6724 39.8027 26.7147 39.8027 26.7147" fill="white"/>
<mask id="mask2_321_1085" style="mask-type:luminance" maskUnits="userSpaceOnUse" x="39" y="26" width="31" height="50">
<path d="M53.5393 26.228C53.5393 26.228 56.9394 38.3624 57.6473 39.8571C58.3551 41.3518 62.1313 43.7439 62.8297 47.0335C63.528 50.323 64.4255 51.7197 65.2218 54.213C66.0181 56.7062 66.7196 56.7062 65.522 58.7981C64.3243 60.8901 64.1253 62.1888 64.9247 63.4844C65.7242 64.78 69.8101 66.4738 69.3108 67.4723C68.8115 68.4709 68.3123 68.7679 67.9141 68.7679H67.5159C67.5159 68.7679 68.4134 72.0575 67.9141 73.2551C67.4148 74.4528 66.2203 75.2491 65.8222 74.6487C65.424 74.0483 64.7257 73.154 64.7257 73.154C64.7257 73.154 65.522 74.7498 64.5266 74.9489C63.5312 75.148 63.3289 74.8509 61.8343 74.1526C60.3396 73.4542 56.9489 72.7559 56.9489 72.7559C56.9489 72.7559 52.961 74.3359 51.6654 74.7498C50.3698 75.1638 48.774 74.6487 48.774 74.6487C48.774 74.6487 44.4859 76.3456 43.7875 74.9647C43.0891 73.5838 42.593 67.7883 42.2928 66.6918C41.9926 65.5953 40.9972 64.6979 41.1963 63.0009C41.3954 61.304 41.8947 60.3086 41.9958 59.6134C42.0969 58.9182 44.6849 46.2529 44.6849 43.4627C44.6849 40.6724 39.8027 26.7147 39.8027 26.7147" fill="white"/>
</mask>
<g mask="url(#mask2_321_1085)">
<path d="M51.5201 72.9962C50.2829 73.2468 49.0274 73.3969 47.766 73.445C47.766 73.445 47.8355 75.8308 43.7781 74.9396C44.4764 76.3364 48.7646 74.6236 48.7646 74.6236C48.7646 74.6236 50.3604 75.1229 51.656 74.7248C52.9516 74.3266 56.9395 72.7308 56.9395 72.7308C56.9395 72.7308 60.3302 73.4292 61.8248 74.1275C63.3195 74.8259 63.5186 75.1229 64.5172 74.9238C65.5157 74.7248 64.7162 73.129 64.7162 73.129C64.7162 73.129 65.4146 74.0264 65.8128 74.6236C66.2109 75.2209 67.3928 74.4246 67.9047 73.2301C68.4166 72.0356 67.5065 68.7429 67.5065 68.7429H67.9047C68.3028 68.7429 68.8021 68.4269 69.3014 67.4473C69.8007 66.4677 65.7116 64.755 64.9153 63.4594C64.119 62.1638 64.3149 60.8682 65.5126 58.7731C66.7102 56.678 66.0118 56.6812 65.2124 54.1879C64.4129 51.6947 63.5186 50.3011 62.8202 47.0084C62.1882 44.0317 59.0282 41.7881 57.9128 40.2808C58.6665 42.2886 59.6304 44.2111 60.7884 46.0162C63.7398 50.4402 63.9484 54.6524 63.1078 56.9687C62.2672 59.285 61.4204 61.1842 61.4204 61.1842L58.4721 54.6682C58.4721 54.6682 58.8924 60.9882 59.7361 62.464C60.5798 63.9397 61.0001 65.624 62.4758 66.888C63.9515 68.152 66.0561 69.6245 64.3718 69.6245C62.6875 69.6245 58.2351 69.258 58.2351 69.258C58.2351 69.258 58.6838 70.8885 56.3644 70.8885C54.7319 70.848 53.1083 70.6362 51.5201 70.2565C51.5201 70.2565 53.6278 72.576 51.5201 72.9962Z" fill="#CFD8DC"/>
<path opacity="0.5" d="M51.5201 72.9962C50.2829 73.2468 49.0274 73.3969 47.766 73.445C47.766 73.445 47.8355 75.8308 43.7781 74.9396C44.4764 76.3364 48.7646 74.6236 48.7646 74.6236C48.7646 74.6236 50.3604 75.1229 51.656 74.7248C52.9516 74.3266 56.9395 72.7308 56.9395 72.7308C56.9395 72.7308 60.3302 73.4292 61.8248 74.1275C63.3195 74.8259 63.5186 75.1229 64.5172 74.9238C65.5157 74.7248 64.7162 73.129 64.7162 73.129C64.7162 73.129 65.4146 74.0264 65.8128 74.6236C66.2109 75.2209 67.3928 74.4246 67.9047 73.2301C68.4166 72.0356 67.5065 68.7429 67.5065 68.7429H67.9047C68.3028 68.7429 68.8021 68.4269 69.3014 67.4473C69.8007 66.4677 65.7116 64.755 64.9153 63.4594C64.119 62.1638 64.3149 60.8682 65.5126 58.7731C66.7102 56.678 66.0118 56.6812 65.2124 54.1879C64.4129 51.6947 63.5186 50.3011 62.8202 47.0084C62.1882 44.0317 59.0282 41.7881 57.9128 40.2808C58.6665 42.2886 59.6304 44.2111 60.7884 46.0162C63.7398 50.4402 63.9484 54.6524 63.1078 56.9687C62.2672 59.285 61.4204 61.1842 61.4204 61.1842L58.4721 54.6682C58.4721 54.6682 58.8924 60.9882 59.7361 62.464C60.5798 63.9397 61.0001 65.624 62.4758 66.888C63.9515 68.152 66.0561 69.6245 64.3718 69.6245C62.6875 69.6245 58.2351 69.258 58.2351 69.258C58.2351 69.258 58.6838 70.8885 56.3644 70.8885C54.7319 70.848 53.1083 70.6362 51.5201 70.2565C51.5201 70.2565 53.6278 72.576 51.5201 72.9962Z" fill="white"/>
</g>
<path d="M53.5393 26.228C53.5393 26.228 56.9394 38.3624 57.6473 39.8571C58.3551 41.3518 62.1313 43.7439 62.8297 47.0335C63.528 50.323 64.4255 51.7197 65.2218 54.213C66.0181 56.7062 66.7196 56.7062 65.522 58.7981C64.3243 60.8901 64.1253 62.1888 64.9247 63.4844C65.7242 64.78 69.8101 66.4738 69.3108 67.4723C68.8115 68.4709 68.3123 68.7679 67.9141 68.7679H67.5159C67.5159 68.7679 68.4134 72.0575 67.9141 73.2551C67.4148 74.4528 66.2203 75.2491 65.8222 74.6487C65.424 74.0483 64.7257 73.154 64.7257 73.154C64.7257 73.154 65.522 74.7498 64.5266 74.9489C63.5312 75.148 63.3289 74.8509 61.8343 74.1526C60.3396 73.4542 56.9489 72.7559 56.9489 72.7559C56.9489 72.7559 52.961 74.3359 51.6654 74.7498C50.3698 75.1638 48.774 74.6487 48.774 74.6487C48.774 74.6487 44.4859 76.3456 43.7875 74.9647C43.0891 73.5838 42.593 67.7883 42.2928 66.6918C41.9926 65.5953 40.9972 64.6979 41.1963 63.0009C41.3954 61.304 41.8947 60.3086 41.9958 59.6134C42.0969 58.9182 44.6849 46.2529 44.6849 43.4627C44.6849 40.6724 39.8027 26.7147 39.8027 26.7147" stroke="#263238" stroke-linecap="round" stroke-linejoin="round"/>
<path d="M57.8401 51.2109C57.8401 51.2109 59.4201 57.8912 60.3333 60.1853C61.2466 62.4795 62.125 64.8716 63.1236 65.7691C64.1222 66.6665 67.1115 68.2591 67.5097 68.7584" stroke="#263238" stroke-linecap="round" stroke-linejoin="round"/>
<path d="M50.9575 58.6909C50.9575 58.6909 57.3376 67.8549 58.2255 69.258C59.1135 70.661 61.8153 70.6515 62.5136 71.2519L64.7067 73.1479" stroke="#263238" stroke-linecap="round" stroke-linejoin="round"/>
<path d="M44.884 61.2817C44.884 61.2817 47.5764 64.5713 49.7694 67.8609C51.9624 71.1504 52.1647 71.9499 53.2454 72.2469C54.3261 72.544 56.9331 72.7462 56.9331 72.7462" stroke="#263238" stroke-linecap="round" stroke-linejoin="round"/>
<path d="M42.7827 66.3599C42.7827 66.3599 47.3679 72.5408 47.766 73.4383C47.9613 73.9337 48.3116 74.3527 48.7646 74.6327" stroke="#263238" stroke-linecap="round" stroke-linejoin="round"/>
<path d="M50.8563 52.3076C50.8563 52.3076 48.7644 53.4073 49.0646 54.3016C49.2811 54.9204 49.5474 55.5207 49.861 56.0965" stroke="#263238" stroke-linecap="round" stroke-linejoin="round"/>
<path d="M45.2759 55.6982C45.2759 55.6982 43.3799 56.2955 43.282 57.392C43.2307 58.0805 43.3684 58.7699 43.6801 59.386" stroke="#263238" stroke-linecap="round" stroke-linejoin="round"/>
</svg>
