<svg width="32" height="22" viewBox="0 0 32 22" fill="none" xmlns="http://www.w3.org/2000/svg">
<path fill-rule="evenodd" clip-rule="evenodd" d="M3.85742 6.79935C3.85742 5.50605 4.24889 4.39644 5.03111 3.47087C5.82507 2.55741 6.77902 2.10032 7.89333 2.10032C8.59271 2.10032 9.25618 2.31392 9.8848 2.74074C9.4816 3.72612 9.28 4.74602 9.28 5.80223C9.28 7.45223 9.73085 8.94061 10.6315 10.2702C10.3467 10.5429 10.08 10.7626 9.83147 10.9288L6.16889 12.6197C5.67147 12.8568 5.27431 13.2253 4.97778 13.7233C4.66987 14.2099 4.51556 14.7503 4.51556 15.3434V19.8822H0.906667C0.657422 19.8822 0.444089 19.7815 0.266311 19.5796C0.0888889 19.3661 0 19.1165 0 18.8321V14.5068C0 14.2808 0.0476445 14.0853 0.142222 13.9194C0.248889 13.7415 0.390756 13.6108 0.568533 13.5279L6.04444 10.9822C5.38098 10.5789 4.84764 10.0089 4.44444 9.27311C4.05333 8.52589 3.85742 7.70107 3.85742 6.79935ZM21.2978 10.1812C22.1632 8.83987 22.5956 7.38068 22.5956 5.80223C22.5956 4.79408 22.406 3.79162 22.0263 2.7945C22.6663 2.33136 23.3596 2.10068 24.1067 2.10068C25.2206 2.10068 26.1685 2.55741 26.9511 3.47123C27.7447 4.3968 28.1422 5.50641 28.1422 6.79971C28.1422 7.67793 27.9463 8.49065 27.5556 9.23822C27.1765 9.96194 26.661 10.5258 26.0089 10.9292L31.4311 13.5282C31.8101 13.718 32 14.044 32 14.5072V18.8324C32 19.1169 31.9111 19.3664 31.7333 19.58C31.5556 19.7815 31.3422 19.8826 31.0933 19.8826H27.36V15.343C27.36 14.7617 27.2181 14.2277 26.9333 13.7411C26.6254 13.2545 26.2286 12.8867 25.7422 12.6375L22.24 10.9822C21.8962 10.7569 21.5822 10.4899 21.2978 10.1812ZM20.7111 4.2366C20.8654 4.78233 20.9422 5.30456 20.9422 5.80223C20.9422 6.74026 20.7463 7.64767 20.3556 8.52553C19.8578 9.58175 19.1765 10.3827 18.3111 10.9284L25.0133 14.1323C25.227 14.2395 25.3988 14.3993 25.5292 14.6129C25.6476 14.8272 25.707 15.0696 25.707 15.343V20.6828C25.707 21.0388 25.5947 21.3475 25.3689 21.6084C25.1556 21.8697 24.8953 22 24.587 22H7.28889C6.98098 22 6.72 21.8701 6.50702 21.6084C6.2816 21.3478 6.16889 21.0388 6.16889 20.6828V15.343C6.16889 15.0696 6.23431 14.8272 6.3648 14.6129C6.49529 14.3993 6.66702 14.2395 6.88 14.1323L13.6356 10.964C12.7826 10.4418 12.101 9.67715 11.5911 8.66828C11.1648 7.77832 10.9515 6.82285 10.9515 5.80223C10.9515 5.29175 11.0286 4.72252 11.1822 4.09385C11.5019 2.8835 12.0949 1.89812 12.96 1.1388C13.8372 0.379482 14.8267 0 15.9292 0C17.0667 0 18.08 0.396926 18.9689 1.19256C19.834 1.97537 20.4149 2.99065 20.7111 4.2366Z" fill="#F4EDED"/>
</svg>
