<svg width="158" height="158" viewBox="0 0 158 158" fill="none" xmlns="http://www.w3.org/2000/svg">
<path d="M158 120.838H0V120.917H158V120.838Z" fill="#EBEBEB"/>
<path d="M140.269 125.392H121.344V125.471H140.269V125.392Z" fill="#EBEBEB"/>
<path d="M107.092 123.682H90.4802V123.761H107.092V123.682Z" fill="#EBEBEB"/>
<path d="M119.634 125.354H114.468V125.433H119.634V125.354Z" fill="#EBEBEB"/>
<path d="M33.1104 123.645H17.7307V123.724H33.1104V123.645Z" fill="#EBEBEB"/>
<path d="M37.8093 123.645H34.5134V123.724H37.8093V123.645Z" fill="#EBEBEB"/>
<path d="M63.9364 124.324H53.303V124.403H63.9364V124.324Z" fill="#EBEBEB"/>
<path d="M74.8921 106.745H13.8757C13.3977 106.744 12.9395 106.553 12.6018 106.215C12.2641 105.877 12.0745 105.418 12.0745 104.94V19.1684C12.0786 18.6932 12.2701 18.2388 12.6074 17.9039C12.9446 17.569 13.4004 17.3807 13.8757 17.3799H74.8921C75.3706 17.3799 75.8296 17.57 76.168 17.9084C76.5064 18.2468 76.6965 18.7057 76.6965 19.1842V104.94C76.6965 105.419 76.5064 105.878 76.168 106.216C75.8296 106.555 75.3706 106.745 74.8921 106.745ZM13.8757 17.4431C13.4186 17.4439 12.9806 17.6261 12.6577 17.9495C12.3348 18.273 12.1535 18.7114 12.1535 19.1684V104.94C12.1535 105.397 12.3348 105.836 12.6577 106.159C12.9806 106.483 13.4186 106.665 13.8757 106.666H74.8921C75.3494 106.665 75.7878 106.483 76.1112 106.159C76.4346 105.836 76.6166 105.398 76.6175 104.94V19.1684C76.6166 18.7111 76.4346 18.2727 76.1112 17.9494C75.7878 17.626 75.3494 17.4439 74.8921 17.4431H13.8757Z" fill="#EBEBEB"/>
<path d="M143.246 106.745H82.2262C81.7479 106.744 81.2895 106.553 80.9513 106.215C80.6131 105.877 80.4227 105.419 80.4219 104.94V19.1684C80.4269 18.6929 80.6191 18.2385 80.9568 17.9037C81.2946 17.5689 81.7507 17.3807 82.2262 17.3799H143.246C143.721 17.3815 144.176 17.5702 144.512 17.905C144.849 18.2398 145.04 18.6937 145.044 19.1684V104.94C145.044 105.418 144.855 105.876 144.518 106.214C144.181 106.552 143.723 106.743 143.246 106.745ZM82.2262 17.4431C81.7689 17.4439 81.3305 17.626 81.0071 17.9494C80.6838 18.2727 80.5017 18.7111 80.5009 19.1684V104.94C80.5017 105.398 80.6838 105.836 81.0071 106.159C81.3305 106.483 81.7689 106.665 82.2262 106.666H143.246C143.703 106.665 144.142 106.483 144.465 106.159C144.788 105.836 144.97 105.398 144.971 104.94V19.1684C144.97 18.7111 144.788 18.2727 144.465 17.9494C144.142 17.626 143.703 17.4439 143.246 17.4431H82.2262Z" fill="#EBEBEB"/>
<path d="M37.0225 24.2626C35.926 23.204 34.7757 24.3195 34.4945 23.1913C34.2132 22.0632 32.1087 21.4565 30.9963 22.4361C29.884 23.4157 29.3689 24.1109 27.8079 23.5263C26.2469 22.9417 25.5201 23.3651 24.9892 24.1583C24.4583 24.9514 20.5652 24.5596 21.3457 25.6719H36.2736C36.2736 25.6719 38.0463 25.2485 37.0225 24.2626Z" fill="#EBEBEB"/>
<path d="M24.4553 46.1358C27.8618 44.3914 28.064 46.2306 30.216 44.3693C32.3679 42.5081 36.7856 41.5253 37.1301 43.1338C37.4745 44.7422 37.2881 45.8861 40.7293 44.9223C44.1705 43.9585 44.7362 44.66 44.4328 45.9398C44.1295 47.2196 51.1162 46.6034 48.1458 48.4362H23.5673C23.5673 48.4362 21.2827 47.7632 24.4553 46.1358Z" fill="#F5F5F5"/>
<path d="M141.754 24.8377C141.369 23.8897 139.422 23.5737 137.33 24.31C135.238 25.0463 138.12 20.4358 134.398 21.21C129.086 22.3129 129.282 25.6119 127.342 25.318C125.401 25.0242 119.097 25.8236 121.691 27.4732H139.88C139.88 27.4732 142.137 25.7826 141.754 24.8377Z" fill="#EBEBEB"/>
<path d="M109.731 46.6887C115.199 46.6887 119.631 42.2562 119.631 36.7885C119.631 31.3207 115.199 26.8882 109.731 26.8882C104.263 26.8882 99.8308 31.3207 99.8308 36.7885C99.8308 42.2562 104.263 46.6887 109.731 46.6887Z" fill="#F5F5F5"/>
<path d="M79.9039 29.369C79.3256 27.9502 76.4089 27.473 73.2679 28.5822C70.1268 29.6914 74.4497 22.7741 68.8786 23.9338C60.9154 25.5865 61.2125 30.5319 58.3021 30.0769C55.3918 29.6218 45.9528 30.8384 49.8396 33.3064H77.0883C77.0883 33.3064 80.479 30.7879 79.9039 29.369Z" fill="#F5F5F5"/>
<path d="M108.922 53.7201C97.5272 35.8882 93.7162 106.77 77.2526 87.2729C60.789 67.7757 52.3139 86.2049 48.1332 98.4088C45.6158 105.746 43.5765 113.238 42.0281 120.838H122.643C122.643 120.838 116.737 65.9524 108.922 53.7201Z" fill="#FAFAFA"/>
<path d="M91.8707 107.557C88.0534 100.33 80.3178 89.4278 65.2825 100.962C50.2472 112.496 46.768 70.5278 36.359 81.0886C29.2269 88.3281 23.8296 120.838 23.8296 120.838H97.4386C95.9948 116.249 94.1309 111.803 91.8707 107.557Z" fill="#F5F5F5"/>
<path d="M85.993 110.96C89.8071 105.588 97.5459 97.4636 112.581 106.052C127.616 114.641 131.096 83.4237 141.505 91.27C148.637 96.642 154.031 120.838 154.031 120.838H80.425C81.9074 117.348 83.775 114.035 85.993 110.96Z" fill="#F0F0F0"/>
<path d="M13.9798 108.104C21.6523 104.719 24.2182 118.171 35.3035 114.471C46.3888 110.771 52.0957 114.269 54.9113 116.582C57.7269 118.895 59.0193 120.838 59.0193 120.838H4.73999C4.73999 120.838 8.71843 110.423 13.9798 108.104Z" fill="#E6E6E6"/>
<path d="M79 135.109C112.838 135.109 140.269 133.507 140.269 131.532C140.269 129.556 112.838 127.955 79 127.955C45.1619 127.955 17.7307 129.556 17.7307 131.532C17.7307 133.507 45.1619 135.109 79 135.109Z" fill="#F5F5F5"/>
<path d="M97.6441 104.034H97.3281V106.211H97.6441V104.034Z" fill="#CFD8DC"/>
<path d="M97.6441 94.4146H97.3281V101.787H97.6441V94.4146Z" fill="#CFD8DC"/>
<path d="M95.7481 28.8604H91.7443C91.308 28.8604 90.9543 29.214 90.9543 29.6504V129.086C90.9543 129.522 91.308 129.876 91.7443 129.876H95.7481C96.1844 129.876 96.5381 129.522 96.5381 129.086V29.6504C96.5381 29.214 96.1844 28.8604 95.7481 28.8604Z" fill="#CFD8DC"/>
<path opacity="0.4" d="M96.5381 91.2196L90.9543 88.1102V83.0542H96.5381V91.2196Z" fill="#263238"/>
<path d="M128.634 83.8789H55.6382L58.8614 31.4956H131.857L128.634 83.8789Z" fill="#CFD8DC"/>
<path opacity="0.8" d="M128.634 83.8789H55.6382L58.8614 31.4956H131.857L128.634 83.8789Z" fill="white"/>
<path d="M56.978 82.6151L60.0464 32.7598H130.514L127.446 82.6151H56.978Z" fill="white"/>
<path d="M129.197 83.8789H128.634L131.857 31.4956H132.417L129.197 83.8789Z" fill="#CFD8DC"/>
<path opacity="0.4" d="M77.1041 40.072C76.5775 40.1991 76.1043 40.4888 75.7516 40.9C75.1449 41.6457 75.0343 42.6664 74.4307 43.39C73.8967 44.022 72.974 44.2306 72.5347 44.97C72.2187 45.5009 72.2756 46.1677 71.9912 46.7144C71.631 47.3969 70.8915 47.6908 70.3164 48.149C69.5801 48.7399 69.321 49.5678 68.787 50.3231C67.8801 51.6124 66.3854 52.3676 65.3268 53.54C64.2682 54.7123 63.7089 56.4377 64.3314 57.7902C64.8528 58.9214 66.0378 59.5376 66.9953 60.3182C67.8042 60.9786 68.5121 62.0119 68.2751 63.1622C68.0381 64.3124 66.8815 65.0108 66.2558 65.9303C65.6839 66.774 65.4279 67.7726 65.1846 68.749C64.9078 69.6633 64.7641 70.6126 64.758 71.5678C64.8812 74.4971 67.6494 76.649 70.3543 77.1831C71.4316 77.4306 72.5594 77.3322 73.5775 76.9018C74.1763 76.6255 74.6862 76.1878 75.0501 75.6378C75.7485 74.5476 75.0501 73.4258 76.7028 73.1446C77.2041 73.0274 77.7232 73.007 78.2322 73.0846C78.4811 73.126 78.7132 73.237 78.9016 73.4047C79.0901 73.5725 79.2272 73.7902 79.2971 74.0326C79.354 74.3012 79.2971 74.5919 79.3761 74.8542C79.4264 75.0153 79.5125 75.163 79.628 75.2861C79.7435 75.4092 79.8853 75.5046 80.0429 75.5652C80.8203 75.8812 81.5344 75.5494 81.9895 74.8036C82.3497 74.219 82.5425 73.5933 83.0196 73.0846C83.9547 72.1713 84.9807 71.356 86.0817 70.6514C87.0297 69.9972 88.0851 69.4474 89.2037 69.3368C90.2276 69.2325 91.3494 69.558 91.9751 70.3575C92.6576 71.2328 92.2911 72.5126 93.1316 73.35C93.5514 73.7334 94.0764 73.9821 94.6389 74.0642C96.1454 74.3118 97.69 73.9859 98.9681 73.1509C99.5956 72.7646 100.11 72.2196 100.46 71.5709C100.918 70.645 100.605 69.8045 100.776 68.8596C101.019 67.425 102.286 67.169 103.481 67.0016C104.918 66.7892 106.253 66.1317 107.298 65.1214C108.044 64.4009 109.064 63.7847 110.044 64.2745C110.438 64.495 110.783 64.7914 111.061 65.1466C111.643 65.8197 112.145 66.5623 112.739 67.2259C114.187 68.8407 117.41 70.1426 118.87 67.4787C119.094 67.0682 119.211 66.6081 119.211 66.1405C119.211 65.6728 119.094 65.2127 118.87 64.8022C118.44 64.0596 117.644 63.3233 118.067 62.3374C118.547 61.2251 119.89 61.184 120.09 59.7841C120.263 58.5675 119.565 57.4173 120.355 56.2765C120.829 55.594 121.587 55.2306 122.175 54.6649C123.755 53.1386 123.42 50.9266 123.998 49.0306C124.747 46.5785 127.737 46.1456 126.776 43.191C126.562 42.4425 126.253 41.7246 125.857 41.0548C125.456 40.3846 124.84 39.87 124.109 39.5949C122.551 39.0672 122.036 40.1131 120.917 40.8936C119.799 41.6742 118.582 40.7009 117.824 40.0246C115.691 38.1286 112.597 37.6799 110.113 39.5917C109.387 40.1542 108.685 40.783 107.848 41.1433C105.778 42.0312 101.913 41.2886 100.494 39.6486C100.207 39.2436 99.8978 38.8544 99.5685 38.4826C99.1428 38.1232 98.6082 37.918 98.0514 37.9002C97.4945 37.8824 96.948 38.0531 96.5002 38.3846C95.963 38.7828 95.5775 39.3832 94.9897 39.6928C93.9911 40.2206 92.7998 40.0657 91.8297 40.6566C90.7806 41.2886 89.8737 42.1987 88.5717 41.769C87.8102 41.5162 87.3077 40.8494 86.7421 40.2869C86.1765 39.7244 85.4212 39.2188 84.6186 39.4211C83.4683 39.7086 83.304 41.3613 82.0906 41.5035C81.6166 41.5572 81.1931 41.2981 80.8013 41.058C80.0492 40.5392 79.1929 40.1908 78.2923 40.0373C77.8974 39.977 77.4948 39.9888 77.1041 40.072Z" fill="#CFD8DC"/>
<path opacity="0.4" d="M113.239 73.1571C112.569 72.345 112.743 70.2942 111.396 70.4806C110.578 70.5944 110.651 70.9546 109.921 70.4364C109.434 70.0919 109.207 69.6085 108.322 69.6021C104.915 69.5769 104.89 74.4622 107.45 75.6757C108.199 76.0327 108.673 75.3249 109.346 75.3597C110.019 75.3944 110.414 76.1402 110.796 76.5731C111.224 77.1078 111.809 77.4935 112.47 77.6751C113.13 77.8567 113.83 77.8249 114.471 77.5843C115.612 77.2146 116.614 75.7768 116.08 74.6139C115.593 73.5837 113.978 74.0546 113.239 73.1571Z" fill="#CFD8DC"/>
<path d="M67.6745 62.1635L67.4944 62.0087C68.0442 61.3767 68.0095 60.6752 67.9715 59.9421C67.9282 59.4842 67.9494 59.0225 68.0347 58.5706C68.2307 57.7427 68.79 57.4077 69.3335 57.0823C69.7608 56.8775 70.1237 56.5595 70.3826 56.1627C70.765 55.4738 70.4079 54.8766 70.0287 54.2446C69.9276 54.0771 69.8233 53.9001 69.7411 53.7295C69.5318 53.2834 69.4438 52.7899 69.4859 52.299C69.5281 51.808 69.699 51.3368 69.9813 50.9329C70.2427 50.5253 70.5994 50.1874 71.0205 49.9484C71.4417 49.7095 71.9147 49.5767 72.3987 49.5615C74.0514 49.5077 75.7357 50.6485 76.5952 51.7355C76.9112 52.1242 77.1861 52.5382 77.4579 52.9395C77.6917 53.2808 77.9319 53.6347 78.1878 53.9697C78.4445 54.3463 78.7731 54.6685 79.1548 54.9177C80.1249 55.4896 81.2246 54.9176 81.9767 54.3299C83.1948 53.3874 84.6728 52.8414 86.2111 52.7657C87.5351 52.7025 88.7549 52.5413 89.0962 51.2363C89.1739 50.9012 89.2183 50.5593 89.2289 50.2156C89.2144 49.6207 89.3618 49.0331 89.6555 48.5155C90.0911 47.8672 90.6938 47.3486 91.3998 47.0145C92.8562 46.2794 94.5279 46.091 96.1113 46.4836C96.713 46.6202 97.2619 46.9287 97.6913 47.3716C98.1432 47.8867 98.2127 48.4965 98.2759 49.0843C98.2881 49.5767 98.4239 50.0581 98.6709 50.4842C99.1829 51.2299 100.251 51.7103 101.366 51.7103H101.401C102.403 51.7103 103.493 51.3658 104.738 50.6864L104.858 50.6201C106.018 50.0397 107.116 49.343 108.135 48.5408C108.45 48.2466 108.718 47.9068 108.931 47.5327C109.058 47.3337 109.187 47.1283 109.339 46.9292C109.949 46.1329 110.793 45.9022 111.599 46.2972C111.773 46.377 111.928 46.4956 112.05 46.6439C112.172 46.7923 112.259 46.9666 112.303 47.1535C112.327 47.3082 112.333 47.4653 112.319 47.6212C112.306 47.7441 112.306 47.868 112.319 47.9909C112.372 48.2219 112.489 48.4333 112.657 48.601C112.825 48.7686 113.036 48.8857 113.267 48.9389C113.784 49.0623 114.32 49.0869 114.847 49.0116C115.899 48.9263 116.019 48.4807 116.187 47.8614C116.275 47.4436 116.453 47.0501 116.708 46.708C117.156 46.1634 117.747 45.7551 118.415 45.5293C119.547 45.179 120.758 45.179 121.891 45.5293C124.716 46.3161 127.512 48.7177 127.402 51.7798H127.165C127.272 48.8694 124.494 46.5089 121.827 45.7758C120.739 45.4429 119.576 45.4429 118.487 45.7758C117.861 45.9867 117.306 46.3687 116.885 46.8786C116.65 47.1954 116.489 47.5601 116.411 47.9467C116.241 48.5787 116.076 49.1696 114.863 49.2707C114.31 49.3472 113.747 49.3193 113.204 49.1886C112.929 49.1244 112.678 48.9839 112.479 48.7831C112.281 48.5824 112.143 48.3297 112.082 48.0541C112.068 47.9155 112.068 47.7757 112.082 47.637C112.098 47.5005 112.098 47.3627 112.082 47.2262C112.043 47.0753 111.97 46.9351 111.869 46.8159C111.769 46.6967 111.643 46.6015 111.501 46.5373C110.805 46.1834 110.072 46.392 109.538 47.0903C109.393 47.2799 109.263 47.479 109.14 47.6749C108.914 48.0696 108.63 48.4276 108.296 48.7367C107.265 49.5495 106.155 50.2557 104.981 50.8444L104.861 50.9108C103.582 51.6091 102.453 51.9504 101.414 51.9631C100.181 51.9631 99.0565 51.4638 98.4845 50.6359C98.2153 50.1768 98.0664 49.6573 98.0516 49.1254C97.9852 48.5471 97.9252 48.0036 97.5239 47.5454C97.124 47.1362 96.6132 46.8529 96.0545 46.7301C94.5287 46.3506 92.9175 46.5311 91.5135 47.2389C90.845 47.5545 90.2741 48.0446 89.8609 48.6577C89.591 49.1397 89.4556 49.6854 89.469 50.2377C89.4613 50.5965 89.4158 50.9534 89.3332 51.3026C88.916 52.8826 87.2981 52.9585 86.2269 53.009C84.7348 53.081 83.3009 53.6093 82.1189 54.5227C81.3099 55.1547 80.1186 55.7645 79.0315 55.1294C78.6263 54.8671 78.2755 54.5291 77.9982 54.134C77.7391 53.7927 77.4958 53.4356 77.2588 53.0912C76.9902 52.693 76.7089 52.2822 76.4056 51.8999C75.5555 50.8286 73.9029 49.7574 72.405 49.8174C71.9579 49.8285 71.5204 49.9496 71.1313 50.1701C70.7422 50.3906 70.4134 50.7036 70.1741 51.0814C69.9153 51.4508 69.7583 51.8818 69.7189 52.3311C69.6795 52.7805 69.7591 53.2322 69.9497 53.641C70.0287 53.8053 70.1267 53.957 70.2278 54.1371C70.607 54.7691 71.0336 55.4865 70.5849 56.2923C70.3085 56.7266 69.9168 57.0756 69.4536 57.3003C68.929 57.6163 68.4361 57.9102 68.2623 58.6401C68.1819 59.0703 68.1627 59.5097 68.2054 59.9452C68.2559 60.672 68.2875 61.4557 67.6745 62.1635Z" fill="white"/>
<path d="M90.1201 70.5185L89.8862 70.4806C89.9601 70.1681 90.1111 69.8791 90.3255 69.64C90.4789 69.4631 90.6027 69.2625 90.692 69.0459C90.7715 68.7635 90.8046 68.47 90.79 68.1769C90.7739 67.8572 90.8102 67.537 90.8974 67.2289C91.0236 66.8656 91.2628 66.5522 91.58 66.3346C91.8143 66.1675 92.0764 66.0434 92.3542 65.9681C92.9716 65.8313 93.6107 65.8238 94.2312 65.946C94.5122 66.0211 94.8097 66.0056 95.0813 65.9017C95.3973 65.7279 95.4921 65.3866 95.5837 65.0296C95.633 64.6443 95.8246 64.2915 96.1209 64.0405C96.5285 63.7498 97.1037 63.7245 97.7862 64.0089L98.0643 64.1258C98.4299 64.3234 98.837 64.4317 99.2525 64.4418C99.954 64.3881 100.302 63.8951 100.668 63.3706C100.753 63.2473 100.842 63.1272 100.93 63.0072C101.194 62.7039 101.51 62.4503 101.863 62.2582C102.163 62.0883 102.436 61.8754 102.675 61.6262C102.823 61.4343 102.941 61.2213 103.026 60.9942C103.098 60.8175 103.184 60.6464 103.281 60.4823C103.501 60.1467 103.824 59.8914 104.201 59.7546C104.578 59.6179 104.99 59.6071 105.373 59.7239C105.562 59.8 105.742 59.8931 105.914 60.002C106.024 60.0684 106.138 60.1379 106.255 60.1948C107.519 60.792 110.047 60.3085 111.112 59.2689C111.44 58.919 111.719 58.5269 111.943 58.1028L112.126 57.7868C113.163 56.0931 115.204 55.401 117.211 56.0615C117.871 56.2795 118.791 56.4976 119.236 55.8529C119.346 55.6857 119.446 55.5127 119.537 55.3347C119.824 54.7975 120.093 54.2887 121.003 54.2255C121.551 54.2042 122.091 54.3641 122.539 54.6806L122.406 54.8765C122 54.5918 121.514 54.4465 121.019 54.4625C120.241 54.5162 120.033 54.9049 119.755 55.4453C119.659 55.631 119.554 55.8113 119.439 55.9856C118.914 56.763 117.878 56.5292 117.144 56.2858C115.248 55.6538 113.311 56.3111 112.335 57.9101L112.155 58.2103C111.92 58.6522 111.627 59.0604 111.283 59.4237C110.161 60.5202 107.491 61.0258 106.16 60.3938C106.036 60.3326 105.914 60.2651 105.797 60.1916C105.638 60.0914 105.471 60.0057 105.298 59.9356C104.965 59.8385 104.61 59.8502 104.284 59.969C103.958 60.0878 103.679 60.3075 103.487 60.5961C103.397 60.7507 103.318 60.9112 103.25 61.0764C103.157 61.3274 103.025 61.5621 102.858 61.7716C102.604 62.0352 102.312 62.2598 101.992 62.4384C101.665 62.6156 101.371 62.8499 101.126 63.1304C101.038 63.2473 100.953 63.3642 100.87 63.4843C100.485 64.031 100.09 64.5935 99.2904 64.6567C98.8371 64.6592 98.3902 64.5507 97.9885 64.3407C97.8968 64.3028 97.8083 64.2617 97.7167 64.2269C97.2964 64.0594 96.7055 63.9109 96.2758 64.2269C96.0293 64.4479 95.8719 64.7513 95.8333 65.0801C95.7322 65.4751 95.6279 65.8796 95.2013 66.104C94.8858 66.2341 94.5365 66.2584 94.2059 66.1735C93.617 66.0571 93.0105 66.0625 92.4237 66.1893C92.1754 66.2535 91.9402 66.3604 91.7285 66.5053C91.4526 66.6937 91.2435 66.9648 91.1313 67.2795C91.0532 67.5643 91.0212 67.8598 91.0365 68.1548C91.052 68.4747 91.0146 68.795 90.9259 69.1028C90.8299 69.3424 90.6966 69.5654 90.5309 69.7632C90.3321 69.9761 90.1907 70.236 90.1201 70.5185Z" fill="white"/>
<path d="M69.0492 35.3923H61.8318L61.876 34.7065H69.0903L69.0492 35.3923Z" fill="#CFD8DC"/>
<path d="M68.9101 37.6325H61.6958L61.7369 36.9468H68.9543L68.9101 37.6325Z" fill="#CFD8DC"/>
<path d="M46.7681 46.4995C45.9592 47.8361 45.1123 49.236 44.3444 50.6075C43.9589 51.2963 43.5923 51.9852 43.2605 52.6646C43.0962 53.0059 42.9445 53.344 42.8118 53.6695C42.6873 53.9626 42.5818 54.2635 42.4958 54.5701C42.4791 54.6262 42.4653 54.6832 42.4547 54.7407C42.4439 54.7856 42.4355 54.8309 42.4294 54.8766C42.4212 54.9944 42.4212 55.1127 42.4294 55.2305C42.4405 55.5326 42.485 55.8326 42.5622 56.1248C42.7399 56.8237 42.9811 57.5048 43.2826 58.1599C43.9359 59.5881 44.6745 60.9758 45.4946 62.3153L45.5168 62.3532C45.6511 62.5653 45.7031 62.8194 45.6629 63.0672C45.6227 63.3151 45.493 63.5397 45.2984 63.6984C45.1039 63.8572 44.8579 63.9392 44.607 63.9288C44.3561 63.9185 44.1176 63.8167 43.9368 63.6425C42.6462 62.4582 41.5035 61.1224 40.5334 59.664C40.0166 58.8849 39.5834 58.0534 39.241 57.1834C39.0512 56.694 38.9105 56.187 38.8207 55.6698C38.7737 55.3771 38.7484 55.0814 38.7449 54.785C38.7449 54.6365 38.7449 54.469 38.7638 54.3078C38.7828 54.1467 38.7986 54.0139 38.8176 53.8654C38.9905 52.9129 39.2681 51.9824 39.6455 51.0909C39.9615 50.2599 40.3438 49.4699 40.7325 48.702C41.5002 47.1706 42.3614 45.6879 43.3111 44.2622C43.6044 43.8012 44.0688 43.4757 44.6022 43.3572C45.1355 43.2386 45.6941 43.3369 46.1551 43.6302C46.616 43.9235 46.9416 44.3879 47.0601 44.9213C47.1786 45.4546 47.0804 46.0132 46.7871 46.4742L46.7681 46.4995Z" fill="#263238"/>
<path d="M45.9181 62.805L46.3194 64.069L43.3806 64.3312C43.2902 63.7833 43.3536 63.221 43.5639 62.707C43.6461 62.5318 43.7728 62.3812 43.9314 62.2703C44.09 62.1594 44.2749 62.0921 44.4677 62.075L44.7268 62.0466C44.9821 62.0179 45.2396 62.0776 45.4563 62.2155C45.673 62.3535 45.836 62.5615 45.9181 62.805Z" fill="#7F3E3B"/>
<path d="M46.5627 65.7754L44.3128 66.2305L43.3806 64.3219L46.3194 64.0596L46.5627 65.7754Z" fill="#7F3E3B"/>
<path d="M53.9983 35.4584C53.9983 35.6575 54.0773 35.8313 54.2068 35.8502C54.3364 35.8692 54.4533 35.7175 54.4691 35.5342C54.4849 35.3509 54.3901 35.1582 54.2606 35.1424C54.131 35.1266 54.0109 35.2593 53.9983 35.4584Z" fill="#263238"/>
<path d="M54.0582 35.8281C54.2518 36.4715 54.5291 37.0867 54.883 37.6578C54.5069 37.939 53.916 37.7083 53.916 37.7083L54.0582 35.8281Z" fill="#630F0F"/>
<path d="M53.3503 34.2544C53.3285 34.2477 53.3091 34.2351 53.2942 34.2178C53.2794 34.2006 53.2697 34.1794 53.2664 34.1569C53.2631 34.1344 53.2663 34.1114 53.2755 34.0906C53.2848 34.0698 53.2998 34.0521 53.3187 34.0395C53.4808 33.9487 53.6622 33.8977 53.8478 33.8905C54.0335 33.8834 54.2182 33.9203 54.3868 33.9984C54.4153 34.0127 54.4371 34.0375 54.4477 34.0675C54.4583 34.0976 54.4569 34.1305 54.4437 34.1596C54.429 34.1867 54.4041 34.207 54.3745 34.2159C54.3449 34.2247 54.3129 34.2215 54.2857 34.207C54.1521 34.1456 54.0057 34.1173 53.8588 34.1245C53.712 34.1316 53.569 34.174 53.442 34.248C53.4282 34.256 53.4128 34.2607 53.3969 34.2618C53.381 34.2629 53.3651 34.2604 53.3503 34.2544Z" fill="#263238"/>
<path d="M47.6783 36.7886C48.0986 38.6151 48.5694 41.9583 47.3623 43.1433C47.3623 43.1433 47.9216 44.9983 51.2902 45.0741C54.9937 45.1594 52.9966 43.2697 52.9966 43.2697C50.9552 42.7389 50.9552 41.2347 51.2586 39.8285L47.6783 36.7886Z" fill="#7F3E3B"/>
<path d="M46.1771 43.7533C45.7916 43.5005 46.3035 41.2569 46.6764 41.0357C47.6686 40.4479 51.9694 40.6786 53.8591 41.851C54.4595 42.5272 54.3615 43.9492 54.3615 43.9492L46.1771 43.7533Z" fill="#263238"/>
<path d="M45.8517 129.225C46.1045 129.225 46.351 129.2 46.4426 129.08C46.4717 129.039 46.4874 128.989 46.4874 128.939C46.4874 128.889 46.4717 128.84 46.4426 128.798C46.4228 128.763 46.3956 128.732 46.363 128.707C46.3303 128.683 46.2928 128.665 46.253 128.656C45.8896 128.561 45.2166 129.01 45.1881 129.029C45.1787 129.035 45.1715 129.044 45.1675 129.054C45.1635 129.064 45.163 129.075 45.166 129.086C45.1681 129.097 45.1733 129.108 45.1812 129.116C45.189 129.125 45.1991 129.131 45.2102 129.133C45.4206 129.185 45.6354 129.215 45.8517 129.225ZM46.1487 128.76C46.1729 128.757 46.1973 128.757 46.2214 128.76C46.2445 128.766 46.2662 128.776 46.2852 128.79C46.3042 128.804 46.3202 128.822 46.332 128.843C46.3889 128.941 46.3573 128.982 46.332 128.994C46.2277 129.13 45.7221 129.118 45.3493 129.045C45.5859 128.89 45.8553 128.793 46.1361 128.76H46.1487Z" fill="#CFD8DC"/>
<path d="M45.2135 129.136H45.2419C45.4947 129.004 45.9782 128.476 45.9181 128.188C45.9078 128.145 45.8833 128.105 45.8485 128.077C45.8136 128.048 45.7704 128.032 45.7254 128.03C45.6819 128.022 45.6372 128.024 45.5946 128.035C45.5519 128.047 45.5124 128.068 45.4789 128.097C45.1945 128.324 45.1629 129.045 45.1629 129.067C45.1624 129.078 45.1648 129.088 45.1698 129.098C45.1748 129.107 45.1822 129.115 45.1913 129.121C45.1969 129.128 45.2046 129.134 45.2135 129.136ZM45.6875 128.144H45.7159C45.7917 128.144 45.7981 128.192 45.8012 128.207C45.8391 128.372 45.5326 128.773 45.283 128.96C45.2912 128.681 45.3862 128.411 45.5547 128.188C45.5928 128.159 45.6395 128.144 45.6875 128.144Z" fill="#CFD8DC"/>
<path d="M65.3552 127.196C65.6712 127.127 65.9461 127.016 66.003 126.852C66.0175 126.808 66.018 126.76 66.0044 126.715C65.9909 126.67 65.9639 126.631 65.9272 126.602C65.8699 126.545 65.793 126.513 65.7123 126.511C65.2825 126.492 64.5873 127.168 64.5589 127.196C64.5527 127.206 64.5493 127.217 64.5493 127.228C64.5493 127.239 64.5527 127.25 64.5589 127.26C64.5643 127.271 64.5728 127.281 64.5834 127.287C64.5941 127.294 64.6064 127.297 64.6189 127.297C64.8669 127.286 65.1134 127.252 65.3552 127.196ZM65.5985 126.64C65.6362 126.634 65.6746 126.634 65.7123 126.64C65.7369 126.64 65.7613 126.644 65.7841 126.654C65.8069 126.663 65.8276 126.677 65.845 126.694C65.9051 126.757 65.9019 126.795 65.8924 126.82C65.8261 127 65.2257 127.136 64.7643 127.184C65.0019 126.947 65.2859 126.762 65.5985 126.64Z" fill="#CFD8DC"/>
<path d="M64.6159 127.297H64.638C64.8876 127.101 65.3111 126.444 65.1878 126.179C65.1594 126.119 65.093 126.049 64.9319 126.068C64.8751 126.075 64.8204 126.094 64.7714 126.123C64.7223 126.152 64.6801 126.192 64.6475 126.239C64.4168 126.555 64.5369 127.231 64.5432 127.259C64.5455 127.27 64.5501 127.279 64.5567 127.287C64.5633 127.296 64.5716 127.302 64.5811 127.307L64.6159 127.297ZM64.9319 126.179H64.9666C65.0709 126.179 65.0899 126.204 65.0962 126.217C65.1689 126.378 64.8971 126.877 64.6538 127.127C64.6028 126.849 64.6393 126.562 64.7581 126.305C64.794 126.244 64.8515 126.199 64.9192 126.179H64.9319Z" fill="#CFD8DC"/>
<path d="M61.9772 128.248L64.2651 127.784L63.3076 121.745L61.0166 122.21L61.9772 128.248Z" fill="#7F3E3B"/>
<path d="M42.363 129.032L44.8816 129.288L45.4282 123.679L42.9097 123.42L42.363 129.032Z" fill="#7F3E3B"/>
<path d="M45.0205 128.783L42.2271 128.697C42.1789 128.696 42.1317 128.711 42.094 128.742C42.0564 128.772 42.0307 128.814 42.0217 128.862L41.5919 131.052C41.5823 131.107 41.5848 131.163 41.5992 131.217C41.6136 131.271 41.6396 131.322 41.6754 131.365C41.7111 131.408 41.7558 131.442 41.8064 131.466C41.8569 131.49 41.912 131.503 41.968 131.503C42.9413 131.503 43.4121 131.475 44.6413 131.503C45.3966 131.526 47.7792 131.712 48.8157 131.639C49.8522 131.567 49.8553 130.533 49.4193 130.467C47.4664 130.183 46.0539 129.519 45.4282 128.941C45.3154 128.841 45.1709 128.785 45.0205 128.783Z" fill="#263238"/>
<path d="M64.2682 127.032L61.6675 127.632C61.6202 127.643 61.5782 127.67 61.5492 127.709C61.5202 127.748 61.5061 127.796 61.5095 127.844L61.6517 130.11C61.6551 130.165 61.6703 130.219 61.6964 130.268C61.7225 130.317 61.7588 130.36 61.8029 130.393C61.847 130.427 61.8978 130.45 61.9519 130.463C62.006 130.475 62.062 130.475 62.1163 130.464C63.0643 130.23 64.3915 129.86 65.5701 129.588C66.9511 129.272 67.5546 129.212 69.1694 128.839C70.149 128.612 70.1332 127.544 69.7003 127.547C67.7189 127.563 66.7931 127.727 64.8971 127.089C64.6967 127.012 64.4791 126.993 64.2682 127.032Z" fill="#263238"/>
<path opacity="0.2" d="M63.3044 121.749L63.8006 124.861L61.5127 125.326L61.0166 122.213L63.3044 121.749Z" fill="black"/>
<path opacity="0.2" d="M42.9097 123.42L45.4282 123.679L45.1438 126.57L42.6284 126.314L42.9097 123.42Z" fill="black"/>
<path d="M47.3749 34.1535C47.3433 36.6151 47.2011 38.0466 48.345 39.4654C48.6981 39.9319 49.1723 40.2925 49.7161 40.5081C50.2599 40.7238 50.8525 40.7861 51.4292 40.6883C52.006 40.5906 52.5449 40.3365 52.9873 39.9537C53.4297 39.5709 53.7586 39.0742 53.9382 38.5174C54.6271 36.3939 54.5702 32.722 52.2381 31.4327C49.9061 30.1434 47.4002 31.6887 47.3749 34.1535Z" fill="#7F3E3B"/>
<path d="M52.276 36.182C51.6788 37.307 49.8586 38.5868 48.8695 38.6753C48.5983 38.6976 48.3255 38.6633 48.0682 38.5746C47.811 38.4858 47.5751 38.3445 47.3754 38.1597C47.1757 37.9749 47.0166 37.7505 46.9082 37.5009C46.7999 37.2513 46.7447 36.9819 46.746 36.7098C46.7271 35.392 45.798 33.831 46.0413 32.9178C46.2847 32.0045 46.6386 31.5463 47.1663 31.7391C47.566 31.2754 48.0709 30.9141 48.6388 30.6854C49.2067 30.4567 49.8211 30.3673 50.4306 30.4245C51.3445 30.4515 52.2456 30.6475 53.0881 31.0028C53.7865 31.3188 54.6681 32.804 54.2321 33.4297C53.6917 34.1976 52.2571 33.7204 52.276 36.182Z" fill="#263238"/>
<path d="M46.0035 35.0223C45.8992 35.3003 45.6685 36.3747 46.7366 36.5359C47.8047 36.6971 50.6645 36.3937 51.8621 35.6953C53.0598 34.997 53.8498 33.2211 54.1279 32.4153C54.4059 31.6095 53.9667 30.7563 53.2652 30.7183C52.7311 30.7847 50.9805 30.0611 50.2695 29.546C49.5585 29.0309 48.0322 30.1559 47.0842 29.6376C44.4488 28.203 42.4864 31.3503 44.2244 31.6253C45.9624 31.9002 46.0572 31.9413 45.9245 32.39C45.7918 32.8387 45.1629 34.444 46.0035 35.0223Z" fill="#CFD8DC"/>
<path opacity="0.2" d="M46.2405 35.0221C46.7398 35.0631 49.1635 35.0505 51.0595 33.9824C51.6084 33.6783 52.0746 33.2447 52.4177 32.7193C52.7608 32.1939 52.9704 31.5926 53.0282 30.9678C53.0282 30.9678 52.7722 32.6173 50.7688 33.7897C48.7653 34.962 46.2405 35.0221 46.2405 35.0221Z" fill="black"/>
<path d="M51.1731 35.2403C51.1338 35.8591 51.2921 36.4743 51.625 36.9973C52.0737 37.6925 52.6868 37.4429 52.889 36.7477C53.0691 36.1157 53.0533 35.0097 52.4466 34.5546C51.8399 34.0996 51.2363 34.5072 51.1731 35.2403Z" fill="#7F3E3B"/>
<path d="M53.0248 64.9127C53.0248 64.9127 52.5855 83.8949 52.1179 91.1407C51.6028 99.0597 46.3351 125.759 46.3351 125.759L41.7847 125.395C41.7847 125.395 45.0837 103.512 44.8657 92.5311C44.6982 84.0908 44.4707 64.7231 44.4707 64.7231L53.0248 64.9127Z" fill="#CFD8DC"/>
<path d="M47.0999 124.137C47.1188 124.137 46.5911 125.837 46.5911 125.837L41.4688 125.427L41.5983 123.881L47.0999 124.137Z" fill="#263238"/>
<path opacity="0.3" d="M51.2678 73.0784C51.8651 71.7922 52.456 71.5205 52.8478 71.5142C52.7025 76.7218 52.4813 83.8887 52.2411 88.6919C51.0719 82.7922 50.0386 75.7233 51.2678 73.0784Z" fill="black"/>
<path d="M57.727 65.0169C57.727 65.0169 60.9787 82.7129 61.835 90.278C62.7293 98.1622 64.4294 123.774 64.4294 123.774L60.3941 124.722C60.3941 124.722 55.7742 99.2808 54.4375 91.5799C52.9807 83.1869 48.187 64.8115 48.187 64.8115L57.727 65.0169Z" fill="#CFD8DC"/>
<path d="M64.7484 121.976C64.7674 121.976 65.0044 123.736 65.0044 123.736L60.0937 124.871L59.5281 123.376L64.7484 121.976Z" fill="#263238"/>
<path d="M72.2408 52.5161L81.1931 131.042L80.7191 131.099L70.98 52.6646L72.2408 52.5161Z" fill="#263238"/>
<path d="M69.4254 55.616L72.222 55.123L72.2694 57.9291C72.2694 57.9291 70.149 58.6401 69.1599 57.0664L69.4254 55.616Z" fill="#7F3E3B"/>
<path d="M73.5681 55.6162L73.5586 57.6639L72.2693 57.9135L72.2219 55.1074L73.5681 55.6162Z" fill="#7F3E3B"/>
<path d="M58.1819 45.052C58.3905 47.1281 59.2153 52.5507 58.4379 64.2933C58.4193 64.5545 58.301 64.7986 58.1075 64.975C57.914 65.1515 57.6601 65.2468 57.3983 65.2413L44.9953 64.9663C44.7451 64.9623 44.5063 64.8611 44.3294 64.6842C44.1525 64.5073 44.0513 64.2685 44.0473 64.0183C44.0473 61.1238 44.3917 53.8463 43.0329 46.3539C42.9567 45.9129 42.9751 45.4607 43.0869 45.0272C43.1986 44.5938 43.4012 44.1891 43.6811 43.8398C43.9611 43.4906 44.312 43.2048 44.7107 43.0014C45.1094 42.798 45.5468 42.6816 45.9938 42.6599C46.4236 42.6378 46.8786 42.6283 47.3463 42.6315C49.0369 42.6315 51.4733 42.6536 52.9679 42.8147C54.282 42.9492 55.5829 43.1901 56.8579 43.5352C57.2075 43.6219 57.5219 43.8138 57.7587 44.0851C57.9956 44.3564 58.1433 44.694 58.1819 45.052Z" fill="#263238"/>
<path d="M46.2278 44.995C45.4504 44.3346 45.6179 43.2728 45.9118 42.6408C45.9687 42.5271 45.7854 42.426 45.6243 42.4797C45.0986 42.6441 44.5888 42.8557 44.1011 43.1117C44.0256 43.1487 43.9585 43.2009 43.9041 43.2651C43.8498 43.3292 43.8092 43.404 43.7851 43.4846C43.4912 44.619 43.7188 45.5417 44.0411 45.7598C44.948 45.4596 46.2278 44.995 46.2278 44.995Z" fill="#CFD8DC"/>
<path d="M54.2004 45.8421C54.2415 44.7962 55.5023 43.9272 56.4314 43.5259C56.5925 43.4563 56.5483 43.2573 56.3555 43.2099C55.7164 43.0552 55.0651 42.9558 54.409 42.9128C54.1794 42.9027 53.9516 42.9574 53.7517 43.0708C52.3107 43.9367 51.5397 44.9036 51.5681 45.2828C52.6362 45.5293 54.2004 45.8421 54.2004 45.8421Z" fill="#CFD8DC"/>
<path d="M58.9089 60.0969C58.9791 60.591 59.015 61.0894 59.0163 61.5884C59.0163 61.7844 58.9184 61.936 58.792 61.9044C58.2137 61.8286 56.6684 61.5347 55.9037 60.5583L55.436 56.0806C55.8279 56.8706 56.9813 58.8329 58.7446 59.8094C58.7918 59.8419 58.831 59.8847 58.8595 59.9344C58.8879 59.9842 58.9048 60.0397 58.9089 60.0969Z" fill="#CFD8DC"/>
<path opacity="0.2" d="M58.6561 50.5602L56.5641 49.9819C56.2987 53.3979 57.6701 55.5246 58.7761 56.7127C58.7761 54.2448 58.7414 52.2161 58.6561 50.5602Z" fill="black"/>
<path d="M58.2706 45.0079C58.3812 45.3239 58.5329 45.7094 58.6688 46.0665L59.108 47.1504C59.424 47.8677 59.7242 48.585 60.056 49.2771C60.6891 50.636 61.4611 51.9259 62.3597 53.1259C62.5777 53.4072 62.8052 53.6663 63.0359 53.9159C63.2057 54.099 63.3967 54.2613 63.6047 54.3994C64.1402 54.727 64.7282 54.9601 65.3427 55.0883C66.8141 55.3797 68.3176 55.4753 69.8141 55.3727H69.8963C70.1381 55.3624 70.3758 55.438 70.5671 55.5863C70.7584 55.7345 70.8911 55.9458 70.9415 56.1825C70.9918 56.4193 70.9567 56.6662 70.8423 56.8795C70.7279 57.0928 70.5416 57.2587 70.3166 57.3477C69.8942 57.516 69.4627 57.6606 69.0241 57.7806C68.5912 57.8975 68.1551 58.0018 67.7127 58.0777C66.7972 58.2473 65.8651 58.3099 64.9351 58.2641C63.9012 58.2236 62.885 57.9833 61.9426 57.5563C61.4163 57.3112 60.9278 56.9919 60.4921 56.6083C60.1328 56.2889 59.79 55.9514 59.4651 55.5971C58.2638 54.2405 57.2362 52.7396 56.4062 51.1288C55.9986 50.3483 55.6162 49.5488 55.2781 48.7557C55.1075 48.3543 54.9432 47.9499 54.7915 47.5391C54.6398 47.1283 54.4976 46.7333 54.3491 46.2751C54.1756 45.7584 54.2145 45.1939 54.4571 44.7059C54.6998 44.2179 55.1264 43.8463 55.6431 43.6728C56.1598 43.4993 56.7242 43.5382 57.2122 43.7809C57.7002 44.0235 58.0719 44.4501 58.2454 44.9668L58.2706 45.0079Z" fill="#263238"/>
<path d="M41.4215 44.5562C42.3505 43.4628 51.7073 43.2542 53.9161 43.8072C56.125 44.3602 55.7079 50.9204 55.967 55.1042C56.2261 59.2881 56.8455 69.3874 55.2497 70.307C53.6539 71.2266 42.1704 72.519 40.8464 70.051C39.5223 67.5831 39.8984 59.2028 41.1339 57.746C40.9254 54.9304 39.7183 46.5754 41.4215 44.5562Z" fill="#CFD8DC"/>
<path opacity="0.4" d="M41.4215 44.5562C42.3505 43.4628 51.7073 43.2542 53.9161 43.8072C56.125 44.3602 55.7079 50.9204 55.967 55.1042C56.2261 59.2881 56.8455 69.3874 55.2497 70.307C53.6539 71.2266 42.1704 72.519 40.8464 70.051C39.5223 67.5831 39.8984 59.2028 41.1339 57.746C40.9254 54.9304 39.7183 46.5754 41.4215 44.5562Z" fill="white"/>
<path opacity="0.2" d="M55.9669 55.1168C55.7362 51.3248 56.0522 45.6368 54.4912 44.1421C54.4342 44.1392 54.3779 44.1286 54.3237 44.1105C53.5685 43.8293 52.9776 44.0758 52.788 45.5546C52.5984 47.0335 52.9807 49.1981 52.9965 49.8459C53.0123 50.4937 52.8006 52.5762 52.8638 53.2082C52.927 53.8402 53.6728 61.4779 52.7374 64.3219C51.802 67.1659 51.5366 71.1159 55.2654 70.3259C56.8454 69.4 56.226 59.2975 55.9669 55.1168Z" fill="#CFD8DC"/>
<path opacity="0.8" d="M45.6652 52.7374C43.4185 52.7374 41.4245 52.5731 41.0832 52.2128C41.0579 52.1821 41.0451 52.1429 41.0474 52.1031C41.0497 52.0633 41.067 52.0258 41.0958 51.9982C41.1246 51.9706 41.1627 51.9549 41.2026 51.9543C41.2425 51.9537 41.2811 51.9681 41.3108 51.9948C41.9017 52.6268 51.132 52.6268 52.4845 51.7072C53.0028 51.3533 52.8606 49.9029 52.7215 48.4998C52.5382 46.6038 52.3455 44.6446 53.442 44.0442C53.4603 44.0343 53.4803 44.028 53.501 44.0258C53.5217 44.0236 53.5426 44.0255 53.5625 44.0313C53.5825 44.0372 53.6011 44.0469 53.6173 44.06C53.6335 44.0731 53.6469 44.0892 53.6569 44.1074C53.6669 44.1257 53.6731 44.1457 53.6753 44.1664C53.6775 44.1871 53.6757 44.208 53.6698 44.228C53.6639 44.2479 53.6542 44.2665 53.6411 44.2827C53.6281 44.2989 53.612 44.3124 53.5937 44.3223C52.6805 44.8216 52.87 46.7618 53.0375 48.4682C53.1955 50.0988 53.3346 51.5082 52.6615 51.9664C51.9884 52.4246 48.5882 52.7374 45.6652 52.7374Z" fill="#CFD8DC"/>
<path d="M49.612 50.9329C49.2265 51.489 49.0464 53.4072 49.1602 54.2098C49.1694 54.2617 49.1973 54.3084 49.2387 54.341C49.28 54.3736 49.3319 54.3899 49.3845 54.3868C49.6816 54.371 50.0165 54.3362 50.2346 54.3141C50.2873 54.3085 50.3361 54.2834 50.3712 54.2436C50.4064 54.2038 50.4252 54.1523 50.4242 54.0992C50.4242 53.5178 50.402 51.7766 50.5537 51.0877C50.5606 51.0587 50.5612 51.0285 50.5555 50.9992C50.5497 50.9699 50.5378 50.9422 50.5204 50.918C50.503 50.8937 50.4807 50.8735 50.4548 50.8586C50.4289 50.8437 50.4001 50.8346 50.3704 50.8318C50.1596 50.8153 49.9476 50.8227 49.7384 50.8539C49.688 50.8637 49.643 50.8919 49.612 50.9329Z" fill="white"/>
<path opacity="0.2" d="M43.9242 58.5641C41.9176 58.6273 41.0802 59.1961 40.9727 59.5911C40.8653 59.9861 40.3407 64.7261 40.7105 66.6506C41.0802 68.575 49.9029 68.1231 50.8888 67.3616C51.8747 66.6 51.2459 64.9631 51.7989 63.4906C52.3519 62.018 53.1387 59.2499 52.0327 58.8549C50.9267 58.4599 48.1491 58.4346 43.9242 58.5641Z" fill="#CFD8DC"/>
<path d="M42.758 51.2425C42.3725 51.7987 42.1892 53.7168 42.3062 54.5163C42.314 54.5691 42.3414 54.6169 42.383 54.6503C42.4246 54.6837 42.4773 54.7002 42.5305 54.6964C42.8276 54.6774 43.1625 54.6458 43.3806 54.6237C43.4333 54.6182 43.4821 54.593 43.5172 54.5532C43.5523 54.5134 43.5712 54.4619 43.5702 54.4088C43.5702 53.8242 43.548 52.0862 43.6997 51.3974C43.7061 51.3684 43.7063 51.3384 43.7004 51.3093C43.6944 51.2802 43.6824 51.2527 43.6651 51.2286C43.6478 51.2044 43.6256 51.1842 43.6 51.1692C43.5744 51.1542 43.5459 51.1447 43.5164 51.1414C43.3056 51.1248 43.0936 51.1323 42.8844 51.1635C42.8335 51.1722 42.7881 51.2006 42.758 51.2425Z" fill="white"/>
</svg>
