<svg width="139" height="71" viewBox="0 0 139 71" fill="none" xmlns="http://www.w3.org/2000/svg">
<path d="M23.88 24.96C23.88 26.5867 23.5067 28.08 22.76 29.44C22.0133 30.7733 20.8667 31.8533 19.32 32.68C17.7733 33.5067 15.8533 33.92 13.56 33.92H9.32V44H2.48V15.92H13.56C15.8 15.92 17.6933 16.3067 19.24 17.08C20.7867 17.8533 21.9467 18.92 22.72 20.28C23.4933 21.64 23.88 23.2 23.88 24.96ZM13.04 28.48C14.3467 28.48 15.32 28.1733 15.96 27.56C16.6 26.9467 16.92 26.08 16.92 24.96C16.92 23.84 16.6 22.9733 15.96 22.36C15.32 21.7467 14.3467 21.44 13.04 21.44H9.32V28.48H13.04ZM51.2341 24.84C51.9007 23.8 52.8207 22.96 53.9941 22.32C55.1674 21.68 56.5407 21.36 58.1141 21.36C59.9541 21.36 61.6207 21.8267 63.1141 22.76C64.6074 23.6933 65.7807 25.0267 66.6341 26.76C67.5141 28.4933 67.9541 30.5067 67.9541 32.8C67.9541 35.0933 67.5141 37.12 66.6341 38.88C65.7807 40.6133 64.6074 41.96 63.1141 42.92C61.6207 43.8533 59.9541 44.32 58.1141 44.32C56.5674 44.32 55.1941 44 53.9941 43.36C52.8207 42.72 51.9007 41.8933 51.2341 40.88V54.64H44.3941V21.68H51.2341V24.84ZM60.9941 32.8C60.9941 31.0933 60.5141 29.76 59.5541 28.8C58.6207 27.8133 57.4607 27.32 56.0741 27.32C54.7141 27.32 53.5541 27.8133 52.5941 28.8C51.6607 29.7867 51.1941 31.1333 51.1941 32.84C51.1941 34.5467 51.6607 35.8933 52.5941 36.88C53.5541 37.8667 54.7141 38.36 56.0741 38.36C57.4341 38.36 58.5941 37.8667 59.5541 36.88C60.5141 35.8667 60.9941 34.5067 60.9941 32.8Z" fill="#7EE081"/>
<path d="M88.5425 29.6C90.1692 29.9467 91.4758 30.76 92.4625 32.04C93.4492 33.2933 93.9425 34.7333 93.9425 36.36C93.9425 38.7067 93.1158 40.5733 91.4625 41.96C89.8358 43.32 87.5558 44 84.6225 44H71.5425V15.92H84.1825C87.0358 15.92 89.2625 16.5733 90.8625 17.88C92.4892 19.1867 93.3025 20.96 93.3025 23.2C93.3025 24.8533 92.8625 26.2267 91.9825 27.32C91.1292 28.4133 89.9825 29.1733 88.5425 29.6ZM78.3825 27.28H82.8625C83.9825 27.28 84.8358 27.04 85.4225 26.56C86.0358 26.0533 86.3425 25.32 86.3425 24.36C86.3425 23.4 86.0358 22.6667 85.4225 22.16C84.8358 21.6533 83.9825 21.4 82.8625 21.4H78.3825V27.28ZM83.4225 38.48C84.5692 38.48 85.4492 38.2267 86.0625 37.72C86.7025 37.1867 87.0225 36.4267 87.0225 35.44C87.0225 34.4533 86.6892 33.68 86.0225 33.12C85.3825 32.56 84.4892 32.28 83.3425 32.28H78.3825V38.48H83.4225ZM108.07 44.32C105.883 44.32 103.91 43.8533 102.15 42.92C100.416 41.9867 99.043 40.6533 98.0297 38.92C97.043 37.1867 96.5497 35.16 96.5497 32.84C96.5497 30.5467 97.0564 28.5333 98.0697 26.8C99.083 25.04 100.47 23.6933 102.23 22.76C103.99 21.8267 105.963 21.36 108.15 21.36C110.336 21.36 112.31 21.8267 114.07 22.76C115.83 23.6933 117.216 25.04 118.23 26.8C119.243 28.5333 119.75 30.5467 119.75 32.84C119.75 35.1333 119.23 37.16 118.19 38.92C117.176 40.6533 115.776 41.9867 113.99 42.92C112.23 43.8533 110.256 44.32 108.07 44.32ZM108.07 38.4C109.376 38.4 110.483 37.92 111.39 36.96C112.323 36 112.79 34.6267 112.79 32.84C112.79 31.0533 112.336 29.68 111.43 28.72C110.55 27.76 109.456 27.28 108.15 27.28C106.816 27.28 105.71 27.76 104.83 28.72C103.95 29.6533 103.51 31.0267 103.51 32.84C103.51 34.6267 103.936 36 104.79 36.96C105.67 37.92 106.763 38.4 108.07 38.4ZM135.818 38.2V44H132.338C129.858 44 127.925 43.4 126.538 42.2C125.152 40.9733 124.458 38.9867 124.458 36.24V27.36H121.738V21.68H124.458V16.24H131.298V21.68H135.778V27.36H131.298V36.32C131.298 36.9867 131.458 37.4667 131.778 37.76C132.098 38.0533 132.632 38.2 133.378 38.2H135.818Z" fill="#F4EDED"/>
<path d="M30.2983 47.7214C30.48 48.1169 30.5492 48.5412 30.689 48.9467C30.8131 49.3069 31.0541 49.6038 31.2175 49.9433C31.5648 50.6646 31.7165 51.5715 31.7165 52.3867C31.7165 53.0269 31.4317 53.8121 31.1781 54.3764C30.8604 55.0835 30.5848 55.8461 30.2293 56.5304C29.8839 57.1954 29.6383 57.6563 29.5596 58.4272C29.4965 59.0457 29.4461 59.8085 29.5366 60.424C29.5819 60.732 29.7592 61.0509 29.8551 61.3456C29.9747 61.7132 30.1172 62.1254 30.3246 62.4459C30.6492 62.9475 30.771 63.5183 30.771 64.1319C30.771 65.1691 30.1899 65.6172 29.622 66.3038C29.2386 66.7673 28.8451 67.4952 28.6896 68.1041C28.5871 68.5056 28.3701 70.0331 28.9982 70.0331" stroke="#F4EDED" stroke-linecap="round"/>
<path d="M21.8391 33.5C21.8391 29.372 22.6311 26.12 24.2151 23.744C25.8231 21.368 28.4031 20.18 31.9551 20.18C35.5071 20.18 38.0751 21.368 39.6591 23.744C41.2671 26.12 42.0711 29.372 42.0711 33.5C42.0711 37.676 41.2671 40.952 39.6591 43.328C38.0751 45.704 35.5071 46.892 31.9551 46.892C28.4031 46.892 25.8231 45.704 24.2151 43.328C22.6311 40.952 21.8391 37.676 21.8391 33.5ZM36.0231 33.5C36.0231 31.076 35.7591 29.216 35.2311 27.92C34.7031 26.6 33.6111 25.94 31.9551 25.94C30.2991 25.94 29.2071 26.6 28.6791 27.92C28.1511 29.216 27.8871 31.076 27.8871 33.5C27.8871 35.132 27.9831 36.488 28.1751 37.568C28.3671 38.624 28.7511 39.488 29.3271 40.16C29.9271 40.808 30.8031 41.132 31.9551 41.132C33.1071 41.132 33.9711 40.808 34.5471 40.16C35.1471 39.488 35.5431 38.624 35.7351 37.568C35.9271 36.488 36.0231 35.132 36.0231 33.5Z" fill="#7EE081"/>
<path d="M30.7881 45L27.2065 49.5H34.3697L30.7881 45Z" fill="#7EE081"/>
</svg>
