<svg width="159" height="158" viewBox="0 0 159 158" fill="none" xmlns="http://www.w3.org/2000/svg">
<g clip-path="url(#clip0_320_746)">
<path d="M158.79 120.838H0.789795V120.917H158.79V120.838Z" fill="#EBEBEB"/>
<path d="M142.958 125.923H132.492V126.002H142.958V125.923Z" fill="#EBEBEB"/>
<path d="M105.455 126.782H102.709V126.861H105.455V126.782Z" fill="#EBEBEB"/>
<path d="M132.176 122.99H126.112V123.069H132.176V122.99Z" fill="#EBEBEB"/>
<path d="M31.0152 123.521H17.3672V123.6H31.0152V123.521Z" fill="#EBEBEB"/>
<path d="M35.8311 123.521H33.8308V123.6H35.8311V123.521Z" fill="#EBEBEB"/>
<path d="M71.9371 124.854H42.3342V124.933H71.9371V124.854Z" fill="#EBEBEB"/>
<path d="M75.6819 106.745H14.6655C14.1875 106.744 13.7293 106.553 13.3916 106.215C13.0539 105.877 12.8643 105.418 12.8643 104.94V19.1684C12.8684 18.6932 13.0599 18.2388 13.3972 17.9039C13.7344 17.569 14.1902 17.3807 14.6655 17.3799H75.6819C76.1604 17.3799 76.6194 17.57 76.9578 17.9084C77.2962 18.2468 77.4863 18.7057 77.4863 19.1842V104.94C77.4863 105.419 77.2962 105.878 76.9578 106.216C76.6194 106.555 76.1604 106.745 75.6819 106.745ZM14.6655 17.4431C14.2084 17.4439 13.7704 17.6261 13.4475 17.9495C13.1246 18.273 12.9433 18.7114 12.9433 19.1684V104.94C12.9433 105.397 13.1246 105.836 13.4475 106.159C13.7704 106.483 14.2084 106.665 14.6655 106.666H75.6819C76.1392 106.665 76.5776 106.483 76.901 106.159C77.2244 105.836 77.4064 105.398 77.4073 104.94V19.1684C77.4064 18.7111 77.2244 18.2727 76.901 17.9494C76.5776 17.626 76.1392 17.4439 75.6819 17.4431H14.6655Z" fill="#EBEBEB"/>
<path d="M144.036 106.745H83.0163C82.538 106.744 82.0795 106.553 81.7413 106.215C81.4031 105.877 81.2127 105.419 81.2119 104.94V19.1684C81.2169 18.6929 81.4091 18.2385 81.7469 17.9037C82.0846 17.5689 82.5407 17.3807 83.0163 17.3799H144.036C144.511 17.3815 144.966 17.5702 145.302 17.905C145.639 18.2398 145.83 18.6937 145.834 19.1684V104.94C145.834 105.418 145.645 105.876 145.308 106.214C144.971 106.552 144.513 106.743 144.036 106.745ZM83.0163 17.4431C82.5589 17.4439 82.1206 17.626 81.7972 17.9494C81.4738 18.2727 81.2917 18.7111 81.2909 19.1684V104.94C81.2917 105.398 81.4738 105.836 81.7972 106.159C82.1206 106.483 82.5589 106.665 83.0163 106.666H144.036C144.493 106.665 144.932 106.483 145.255 106.159C145.578 105.836 145.76 105.398 145.761 104.94V19.1684C145.76 18.7111 145.578 18.2727 145.255 17.9494C144.932 17.626 144.493 17.4439 144.036 17.4431H83.0163Z" fill="#EBEBEB"/>
<path d="M72.626 50.1869V57.3822L76.3295 57.7298C76.8261 60.0959 77.7641 62.3472 79.0945 64.3658L76.715 67.2414L81.7995 72.329L84.6751 69.9464C86.693 71.278 88.9446 72.2162 91.3111 72.7114L91.6587 76.4149H98.854L99.2047 72.7114C101.571 72.214 103.822 71.276 105.841 69.9464L108.713 72.329L113.801 67.2414L111.421 64.3658C112.752 62.3477 113.689 60.0961 114.183 57.7298L117.89 57.3822V50.1869L114.183 49.8361C113.689 47.4697 112.752 45.2181 111.421 43.2001L113.801 40.3245L108.713 35.2369L105.86 37.6038C103.841 36.2736 101.59 35.3366 99.2237 34.8419L98.8729 31.1353H91.6681L91.3205 34.8419C88.9542 35.336 86.7027 36.2731 84.6845 37.6038L81.8089 35.2243L76.7245 40.3119L79.104 43.1843C77.7743 45.2034 76.8364 47.4545 76.339 49.8203L72.626 50.1869ZM95.2737 44.0439C97.1999 44.0439 99.0829 44.615 100.684 45.6852C102.286 46.7553 103.534 48.2764 104.271 50.056C105.009 51.8356 105.201 53.7938 104.826 55.683C104.45 57.5722 103.522 59.3075 102.16 60.6696C100.798 62.0316 99.0629 62.9592 97.1737 63.335C95.2845 63.7107 93.3263 63.5179 91.5467 62.7807C89.7671 62.0436 88.2461 60.7953 87.1759 59.1937C86.1058 57.5922 85.5346 55.7092 85.5346 53.783C85.5346 51.2 86.5607 48.7228 88.3871 46.8964C90.2135 45.0699 92.6907 44.0439 95.2737 44.0439Z" fill="#E0E0E0"/>
<path d="M60.4695 82.3811L62.5361 84.0907L66.2017 80.4346L64.4827 78.3679C65.4381 76.9151 66.1113 75.2953 66.4672 73.5932L69.1279 73.3435V68.1769L66.4672 67.9241C66.1119 66.2229 65.4386 64.604 64.4827 63.1525L66.1923 61.0859L62.5361 57.4298L60.4695 59.1393C59.0172 58.1828 57.3972 57.5095 55.6947 57.1549L55.4451 54.4941H50.2753L50.0257 57.1549C48.3236 57.5107 46.7038 58.1839 45.2509 59.1393L43.1843 57.4298L39.5313 61.0859L41.2409 63.1525C40.2837 64.6033 39.6103 66.2224 39.2564 67.9241L36.5925 68.1769V73.3467L39.2564 73.5963C39.6103 75.2975 40.2825 76.9165 41.2377 78.3679L39.5282 80.4314L43.1811 84.0875L45.2478 82.378C46.7002 83.3384 48.3214 84.015 50.0257 84.3719L50.2753 87.0358H55.4577L55.7074 84.3719C57.4063 84.0152 59.0222 83.3397 60.4695 82.3811ZM45.864 70.7618C45.8633 69.3772 46.2734 68.0235 47.0423 66.872C47.8111 65.7204 48.9043 64.8228 50.1834 64.2927C51.4625 63.7625 52.8701 63.6236 54.2281 63.8936C55.5862 64.1636 56.8336 64.8303 57.8127 65.8093C58.7918 66.7884 59.4585 68.0359 59.7284 69.3939C59.9984 70.752 59.8595 72.1596 59.3294 73.4387C58.7992 74.7178 57.9016 75.8109 56.7501 76.5798C55.5985 77.3486 54.2448 77.7587 52.8602 77.7581C51.0049 77.7572 49.2259 77.0199 47.914 75.708C46.6022 74.3961 45.8648 72.6171 45.864 70.7618Z" fill="#E0E0E0"/>
<path d="M83.4459 117.397C85.473 116.971 87.4023 116.17 89.1339 115.033L91.5924 117.068L95.9437 112.717L93.9087 110.258C95.0465 108.528 95.8473 106.598 96.2692 104.57L99.4292 104.27V98.1209L96.2692 97.8207C95.8473 95.793 95.0465 93.8632 93.9087 92.1327L95.9437 89.6742L91.5892 85.3197L89.1308 87.3547C87.3991 86.2183 85.4698 85.4165 83.4428 84.9911L83.1426 81.8311H76.9932L76.6772 84.9911C74.6498 85.4154 72.7203 86.2172 70.9892 87.3547L68.5497 85.3197L64.1984 89.671L66.2334 92.1295C65.0946 93.8599 64.2927 95.7897 63.8697 97.8175L60.7097 98.1177V104.28L63.8697 104.58C64.2927 106.608 65.0946 108.538 66.2334 110.268L64.1984 112.726L68.5497 117.078L71.0082 115.043C72.7392 116.18 74.6687 116.982 76.6962 117.406L77.0122 120.566H83.1647L83.4459 117.397ZM71.7539 101.196C71.7539 99.5473 72.2427 97.9361 73.1585 96.5657C74.0743 95.1953 75.3759 94.1272 76.8987 93.4966C78.4215 92.866 80.0972 92.7012 81.7137 93.023C83.3302 93.3447 84.815 94.1387 85.9802 95.3044C87.1455 96.4701 87.9389 97.9552 88.26 99.5718C88.5812 101.188 88.4157 102.864 87.7845 104.387C87.1534 105.909 86.0848 107.21 84.7141 108.126C83.3433 109.041 81.7319 109.529 80.0837 109.528C78.9882 109.531 77.9031 109.317 76.8904 108.899C75.8778 108.481 74.9575 107.867 74.1823 107.093C73.4071 106.319 72.7922 105.4 72.3728 104.388C71.9534 103.376 71.7377 102.291 71.7381 101.196H71.7539Z" fill="#E0E0E0"/>
<path d="M127.68 66.7485H134.477C134.624 66.7471 134.769 66.7074 134.897 66.6334C135.024 66.5593 135.13 66.4535 135.205 66.3262C135.279 66.1988 135.32 66.0543 135.322 65.9068C135.324 65.7593 135.287 65.6138 135.216 65.4845L131.816 59.5974C131.742 59.4674 131.634 59.3593 131.505 59.2842C131.375 59.209 131.228 59.1694 131.078 59.1694C130.928 59.1694 130.781 59.209 130.652 59.2842C130.522 59.3593 130.415 59.4674 130.34 59.5974L126.943 65.4845C126.872 65.6136 126.836 65.7588 126.838 65.906C126.84 66.0533 126.88 66.1976 126.954 66.3248C127.028 66.4521 127.134 66.558 127.261 66.6322C127.388 66.7065 127.532 66.7465 127.68 66.7485ZM131.535 61.1869L131.386 64.1194H130.754L130.599 61.1869H131.535ZM130.587 65.1274C130.586 65.0629 130.599 64.9989 130.624 64.9393C130.649 64.8798 130.686 64.826 130.732 64.7811C130.778 64.7362 130.833 64.7011 130.894 64.6781C130.954 64.6551 131.018 64.6445 131.083 64.6471C131.148 64.6441 131.213 64.6543 131.274 64.6771C131.335 64.6998 131.391 64.7347 131.438 64.7795C131.485 64.8244 131.523 64.8783 131.549 64.9381C131.575 64.9979 131.588 65.0623 131.589 65.1274C131.589 65.1932 131.576 65.2584 131.551 65.3191C131.525 65.3798 131.488 65.4347 131.441 65.4805C131.393 65.5263 131.337 65.562 131.276 65.5855C131.214 65.609 131.149 65.6198 131.083 65.6172C131.017 65.6202 130.951 65.6098 130.89 65.5864C130.828 65.5631 130.772 65.5274 130.724 65.4815C130.677 65.4356 130.64 65.3805 130.614 65.3197C130.589 65.2588 130.576 65.1933 130.577 65.1274H130.587Z" fill="#F0F0F0"/>
<path d="M28.2817 40.2048H35.0757C35.2233 40.2033 35.3679 40.1637 35.4955 40.0897C35.6231 40.0156 35.7294 39.9098 35.8039 39.7824C35.8784 39.6551 35.9186 39.5106 35.9205 39.3631C35.9225 39.2156 35.8862 39.0701 35.8152 38.9408L32.3897 33.0379C32.3149 32.9079 32.2072 32.8 32.0774 32.7249C31.9476 32.6499 31.8003 32.6104 31.6503 32.6104C31.5004 32.6104 31.3531 32.6499 31.2232 32.7249C31.0934 32.8 30.9857 32.9079 30.9109 33.0379L27.5265 38.925C27.4509 39.0559 27.4114 39.2045 27.4121 39.3557C27.4128 39.5069 27.4537 39.6552 27.5305 39.7854C27.6073 39.9156 27.7174 40.023 27.8494 40.0967C27.9814 40.1704 28.1306 40.2077 28.2817 40.2048ZM32.1369 34.6463L31.9853 37.5757H31.3533L31.1953 34.6463H32.1369ZM31.1889 38.5869C31.1881 38.5223 31.2003 38.4583 31.2249 38.3986C31.2494 38.3389 31.2859 38.2848 31.332 38.2396C31.378 38.1944 31.4328 38.159 31.493 38.1356C31.5531 38.1122 31.6174 38.1012 31.6819 38.1034C31.7489 38.098 31.8163 38.1065 31.8798 38.1284C31.9433 38.1503 32.0017 38.1852 32.0511 38.2307C32.1005 38.2763 32.1399 38.3316 32.1668 38.3932C32.1938 38.4548 32.2077 38.5212 32.2077 38.5884C32.2077 38.6556 32.1938 38.7221 32.1668 38.7837C32.1399 38.8453 32.1005 38.9006 32.0511 38.9461C32.0017 38.9917 31.9433 39.0265 31.8798 39.0485C31.8163 39.0704 31.7489 39.0789 31.6819 39.0735C31.6152 39.0788 31.5481 39.0701 31.4849 39.0479C31.4218 39.0258 31.3639 38.9907 31.3151 38.9448C31.2663 38.899 31.2277 38.8435 31.2016 38.7819C31.1755 38.7202 31.1626 38.6538 31.1637 38.5869H31.1889Z" fill="#F0F0F0"/>
<path d="M46.4993 112.619H53.2933C53.4431 112.619 53.5903 112.58 53.72 112.505C53.8498 112.43 53.9576 112.323 54.0326 112.193C54.1075 112.063 54.147 111.916 54.147 111.766C54.147 111.616 54.1076 111.469 54.0327 111.34L50.6357 105.452C50.5609 105.322 50.4531 105.215 50.3233 105.139C50.1935 105.064 50.0462 105.025 49.8963 105.025C49.7463 105.025 49.599 105.064 49.4692 105.139C49.3394 105.215 49.2316 105.322 49.1568 105.452L45.7598 111.34C45.6849 111.469 45.6455 111.616 45.6455 111.766C45.6455 111.916 45.685 112.063 45.76 112.193C45.8349 112.323 45.9427 112.43 46.0725 112.505C46.2022 112.58 46.3494 112.619 46.4993 112.619ZM50.3545 107.058L50.2028 109.99H49.5708L49.4128 107.058H50.3545ZM49.4065 110.998C49.406 110.934 49.4186 110.87 49.4436 110.81C49.4685 110.751 49.5053 110.697 49.5517 110.652C49.5981 110.607 49.6531 110.572 49.7134 110.549C49.7737 110.526 49.8381 110.515 49.9026 110.518C49.9678 110.515 50.0329 110.525 50.0941 110.548C50.1553 110.571 50.2113 110.605 50.2588 110.65C50.3063 110.695 50.3442 110.749 50.3704 110.809C50.3966 110.869 50.4106 110.933 50.4113 110.998C50.4114 111.064 50.3981 111.129 50.3723 111.19C50.3465 111.251 50.3087 111.306 50.2612 111.351C50.2137 111.397 50.1575 111.433 50.0958 111.456C50.0342 111.48 49.9685 111.491 49.9026 111.488C49.8365 111.492 49.7703 111.481 49.7083 111.458C49.6462 111.435 49.5896 111.399 49.5419 111.354C49.4942 111.308 49.4565 111.252 49.431 111.191C49.4055 111.13 49.3929 111.064 49.3938 110.998H49.4065Z" fill="#F0F0F0"/>
<path d="M110.126 104.103H116.923C117.072 104.102 117.219 104.063 117.349 103.987C117.478 103.912 117.585 103.805 117.66 103.675C117.734 103.545 117.774 103.398 117.773 103.249C117.773 103.099 117.734 102.952 117.659 102.823L114.265 96.9359C114.191 96.8059 114.083 96.6979 113.953 96.6229C113.823 96.5478 113.676 96.5083 113.526 96.5083C113.376 96.5083 113.229 96.5478 113.099 96.6229C112.969 96.6979 112.861 96.8059 112.786 96.9359L109.389 102.823C109.315 102.952 109.275 103.099 109.275 103.249C109.275 103.398 109.314 103.545 109.389 103.675C109.463 103.805 109.571 103.912 109.7 103.987C109.829 104.063 109.976 104.102 110.126 104.103ZM113.981 98.5411L113.829 101.474H113.197L113.039 98.5411H113.981ZM113.033 102.482C113.032 102.417 113.044 102.353 113.069 102.294C113.093 102.234 113.13 102.18 113.176 102.135C113.222 102.091 113.277 102.055 113.337 102.032C113.397 102.009 113.462 101.999 113.526 102.001C113.591 101.998 113.656 102.009 113.717 102.031C113.779 102.054 113.835 102.089 113.882 102.134C113.93 102.178 113.968 102.232 113.994 102.292C114.02 102.352 114.034 102.416 114.035 102.482C114.035 102.548 114.021 102.613 113.996 102.674C113.97 102.734 113.932 102.789 113.885 102.835C113.837 102.881 113.781 102.916 113.719 102.94C113.658 102.963 113.592 102.974 113.526 102.971C113.46 102.974 113.395 102.963 113.334 102.94C113.273 102.916 113.217 102.88 113.17 102.834C113.124 102.789 113.087 102.734 113.062 102.673C113.037 102.612 113.025 102.547 113.027 102.482H113.033Z" fill="#F0F0F0"/>
<path d="M115.014 29.6374H118.778C118.861 29.6371 118.942 29.6152 119.014 29.5738C119.085 29.5323 119.145 29.4729 119.186 29.4013C119.228 29.3297 119.25 29.2485 119.25 29.1657C119.251 29.0829 119.23 29.0015 119.189 28.9295L117.293 25.6716C117.252 25.5993 117.192 25.5392 117.12 25.4974C117.048 25.4556 116.967 25.4336 116.884 25.4336C116.8 25.4336 116.719 25.4556 116.647 25.4974C116.575 25.5392 116.515 25.5993 116.474 25.6716L114.594 28.9295C114.552 29.0021 114.53 29.0846 114.53 29.1686C114.53 29.2525 114.553 29.3349 114.596 29.4071C114.639 29.4793 114.7 29.5387 114.774 29.5792C114.847 29.6197 114.93 29.6398 115.014 29.6374ZM117.151 26.5595L117.078 28.1838H116.733L116.645 26.5595H117.151ZM116.62 28.7557C116.619 28.7198 116.626 28.6841 116.64 28.6509C116.654 28.6177 116.674 28.5876 116.7 28.5625C116.725 28.5374 116.756 28.5178 116.789 28.5048C116.823 28.4919 116.859 28.4858 116.895 28.4871C116.966 28.4871 117.034 28.5154 117.085 28.5658C117.135 28.6162 117.163 28.6845 117.163 28.7557C117.163 28.827 117.135 28.8953 117.085 28.9457C117.034 28.996 116.966 29.0243 116.895 29.0243C116.859 29.0256 116.823 29.0196 116.789 29.0066C116.756 28.9937 116.725 28.974 116.7 28.9489C116.674 28.9238 116.654 28.8937 116.64 28.8605C116.626 28.8273 116.619 28.7917 116.62 28.7557Z" fill="#F0F0F0"/>
<path d="M21.1529 79.4738H24.9164C24.9996 79.4745 25.0814 79.4531 25.1536 79.4119C25.2259 79.3708 25.2859 79.3112 25.3276 79.2393C25.3694 79.1674 25.3913 79.0857 25.3912 79.0025C25.3912 78.9194 25.3691 78.8378 25.3272 78.7659L23.4312 75.508C23.3906 75.4356 23.3314 75.3754 23.2597 75.3335C23.1881 75.2916 23.1066 75.2695 23.0236 75.2695C22.9406 75.2695 22.8591 75.2916 22.7875 75.3335C22.7158 75.3754 22.6566 75.4356 22.616 75.508L20.72 78.7659C20.677 78.8394 20.6547 78.9232 20.6555 79.0083C20.6564 79.0934 20.6803 79.1767 20.7247 79.2493C20.7691 79.322 20.8324 79.3812 20.9078 79.4207C20.9832 79.4602 21.0679 79.4786 21.1529 79.4738ZM23.289 76.3959L23.2069 78.0202H22.8624L22.7771 76.3959H23.289ZM22.7581 78.5795C22.7577 78.5435 22.7646 78.5079 22.7783 78.4747C22.792 78.4415 22.8124 78.4114 22.8381 78.3863C22.8638 78.3612 22.8943 78.3415 22.9278 78.3286C22.9614 78.3156 22.9972 78.3096 23.0331 78.3109C23.1043 78.3109 23.1726 78.3392 23.223 78.3896C23.2734 78.4399 23.3017 78.5082 23.3017 78.5795C23.3017 78.6507 23.2734 78.719 23.223 78.7694C23.1726 78.8198 23.1043 78.8481 23.0331 78.8481C22.9972 78.8494 22.9614 78.8434 22.9278 78.8304C22.8943 78.8174 22.8638 78.7978 22.8381 78.7727C22.8124 78.7476 22.792 78.7175 22.7783 78.6843C22.7646 78.6511 22.7577 78.6154 22.7581 78.5795Z" fill="#F0F0F0"/>
<path d="M93.2134 55.3915H96.9769C97.0599 55.391 97.1413 55.3687 97.2129 55.3269C97.2846 55.2851 97.344 55.2252 97.3853 55.1533C97.4265 55.0813 97.4482 54.9998 97.4481 54.9168C97.4479 54.8338 97.426 54.7523 97.3846 54.6805L95.5044 51.4225C95.4632 51.3503 95.4037 51.2902 95.3318 51.2484C95.26 51.2066 95.1783 51.1846 95.0951 51.1846C95.012 51.1846 94.9303 51.2066 94.8585 51.2484C94.7866 51.2902 94.7271 51.3503 94.6859 51.4225L92.7899 54.6805C92.7477 54.7535 92.7258 54.8365 92.7263 54.9208C92.7269 55.0051 92.7499 55.0878 92.7931 55.1602C92.8362 55.2327 92.8979 55.2923 92.9718 55.333C93.0457 55.3736 93.1291 55.3938 93.2134 55.3915ZM95.3464 52.3105L95.2642 53.9347H94.9198L94.8344 52.3105H95.3464ZM94.8186 54.4941C94.8182 54.4584 94.825 54.423 94.8385 54.39C94.8521 54.357 94.8721 54.3271 94.8975 54.302C94.9228 54.277 94.953 54.2573 94.9861 54.2441C95.0193 54.231 95.0548 54.2246 95.0904 54.2255C95.1443 54.2255 95.1969 54.2415 95.2417 54.2715C95.2865 54.3015 95.3213 54.3441 95.3418 54.394C95.3622 54.4438 95.3674 54.4986 95.3567 54.5514C95.3459 54.6042 95.3197 54.6526 95.2814 54.6905C95.2431 54.7284 95.1944 54.754 95.1415 54.7641C95.0885 54.7743 95.0338 54.7684 94.9842 54.7474C94.9346 54.7263 94.8924 54.691 94.8629 54.6459C94.8334 54.6008 94.818 54.5479 94.8186 54.4941Z" fill="#F0F0F0"/>
<path d="M62.4255 27.9121H52.6484V34.3743H62.4255V27.9121Z" fill="#E0E0E0"/>
<path d="M62.4444 27.9121H52.6484V28.9739H62.4444V27.9121Z" fill="#F0F0F0"/>
<path d="M41.0607 51.8745H31.2837V58.3367H41.0607V51.8745Z" fill="#E0E0E0"/>
<path d="M41.0797 51.8745H31.2837V52.9363H41.0797V51.8745Z" fill="#F0F0F0"/>
<path d="M39.7084 97.8716H29.9314V104.334H39.7084V97.8716Z" fill="#E0E0E0"/>
<path d="M39.7274 97.8716H29.9314V98.9333H39.7274V97.8716Z" fill="#F0F0F0"/>
<path d="M114.986 81.2183H105.209V87.6805H114.986V81.2183Z" fill="#E0E0E0"/>
<path d="M115.005 81.2183H105.209V82.28H115.005V81.2183Z" fill="#F0F0F0"/>
<path d="M136.414 89.6016H126.637V96.0638H136.414V89.6016Z" fill="#E0E0E0"/>
<path d="M136.433 89.6016H126.637V90.6633H136.433V89.6016Z" fill="#F0F0F0"/>
<path d="M132.818 41.3198H123.041V47.782H132.818V41.3198Z" fill="#E0E0E0"/>
<path d="M132.837 41.3198H123.041V42.3816H132.837V41.3198Z" fill="#F0F0F0"/>
<path d="M79.7897 135.109C113.628 135.109 141.059 133.507 141.059 131.532C141.059 129.556 113.628 127.955 79.7897 127.955C45.9517 127.955 18.5205 129.556 18.5205 131.532C18.5205 133.507 45.9517 135.109 79.7897 135.109Z" fill="#F5F5F5"/>
<path d="M68.2496 37.7369H59.174C58.4323 37.7369 57.721 38.0315 57.1965 38.556C56.6721 39.0804 56.3774 39.7918 56.3774 40.5335V48.4335C56.3774 48.8006 56.4498 49.1641 56.5904 49.5032C56.731 49.8423 56.937 50.1504 57.1967 50.4098C57.4565 50.6693 57.7648 50.875 58.1041 51.0152C58.4433 51.1554 58.8069 51.2273 59.174 51.2269H60.8741L60.2421 53.7233L62.7701 51.2269H68.2685C68.6354 51.2269 68.9986 51.1546 69.3375 51.0143C69.6764 50.8739 69.9844 50.6681 70.2438 50.4087C70.5032 50.1493 70.7089 49.8414 70.8493 49.5025C70.9897 49.1635 71.062 48.8003 71.062 48.4335V40.5335C71.062 40.1649 70.9891 39.7999 70.8476 39.4596C70.7061 39.1193 70.4986 38.8103 70.2373 38.5504C69.9759 38.2905 69.6658 38.0848 69.3246 37.9452C68.9835 37.8056 68.6181 37.7348 68.2496 37.7369Z" fill="#CFD8DC"/>
<path opacity="0.7" d="M68.2496 37.7369H59.174C58.4323 37.7369 57.721 38.0315 57.1965 38.556C56.6721 39.0804 56.3774 39.7918 56.3774 40.5335V48.4335C56.3774 48.8006 56.4498 49.1641 56.5904 49.5032C56.731 49.8423 56.937 50.1504 57.1967 50.4098C57.4565 50.6693 57.7648 50.875 58.1041 51.0152C58.4433 51.1554 58.8069 51.2273 59.174 51.2269H60.8741L60.2421 53.7233L62.7701 51.2269H68.2685C68.6354 51.2269 68.9986 51.1546 69.3375 51.0143C69.6764 50.8739 69.9844 50.6681 70.2438 50.4087C70.5032 50.1493 70.7089 49.8414 70.8493 49.5025C70.9897 49.1635 71.062 48.8003 71.062 48.4335V40.5335C71.062 40.1649 70.9891 39.7999 70.8476 39.4596C70.7061 39.1193 70.4986 38.8103 70.2373 38.5504C69.9759 38.2905 69.6658 38.0848 69.3246 37.9452C68.9835 37.8056 68.6181 37.7348 68.2496 37.7369Z" fill="white"/>
<path d="M63.7117 49.2296C62.7867 49.2296 61.8825 48.9553 61.1134 48.4414C60.3443 47.9275 59.7449 47.1971 59.3909 46.3425C59.0369 45.4879 58.9443 44.5476 59.1248 43.6404C59.3052 42.7332 59.7507 41.8998 60.4047 41.2458C61.0588 40.5917 61.8921 40.1463 62.7993 39.9658C63.7065 39.7854 64.6469 39.878 65.5014 40.232C66.356 40.586 67.0864 41.1854 67.6003 41.9545C68.1142 42.7236 68.3885 43.6278 68.3885 44.5528C68.3868 45.7926 67.8936 46.9812 67.0169 47.8579C66.1402 48.7346 64.9516 49.2279 63.7117 49.2296ZM63.7117 40.508C62.9117 40.508 62.1297 40.7452 61.4645 41.1896C60.7994 41.6341 60.2809 42.2658 59.9748 43.0049C59.6687 43.744 59.5886 44.5573 59.7446 45.3419C59.9007 46.1265 60.2859 46.8472 60.8516 47.4129C61.4173 47.9786 62.138 48.3638 62.9226 48.5199C63.7072 48.6759 64.5205 48.5958 65.2596 48.2897C65.9987 47.9835 66.6304 47.4651 67.0748 46.8C67.5193 46.1348 67.7565 45.3528 67.7565 44.5528C67.7557 43.4803 67.3293 42.452 66.5709 41.6936C65.8125 40.9352 64.7842 40.5088 63.7117 40.508Z" fill="#CFD8DC"/>
<path d="M62.9946 46.3605C62.9513 46.3603 62.9084 46.3513 62.8687 46.3339C62.8291 46.3165 62.7934 46.2911 62.7639 46.2593L61.3862 44.7678C61.3577 44.7372 61.3357 44.7013 61.3212 44.6621C61.3068 44.6229 61.3003 44.5812 61.302 44.5395C61.3038 44.4978 61.3138 44.4568 61.3315 44.419C61.3492 44.3812 61.3742 44.3472 61.4051 44.3191C61.4668 44.2627 61.5483 44.233 61.6318 44.2366C61.7153 44.2401 61.794 44.2766 61.8507 44.3381L62.9978 45.5831L65.57 42.8497C65.6292 42.7909 65.7093 42.7578 65.7928 42.7578C65.8763 42.7578 65.9563 42.7909 66.0156 42.8497C66.0452 42.8791 66.0687 42.914 66.0847 42.9525C66.1008 42.991 66.109 43.0323 66.109 43.0741C66.109 43.1158 66.1008 43.1571 66.0847 43.1956C66.0687 43.2341 66.0452 43.269 66.0156 43.2984L63.2063 46.2751C63.1488 46.329 63.0733 46.3594 62.9946 46.3605Z" fill="#CFD8DC"/>
<path d="M52.3926 129.964L54.5919 129.927L55.1386 124.845L52.9393 124.883L52.3926 129.964Z" fill="#E4897B"/>
<path opacity="0.2" d="M55.1386 124.849L54.8573 127.465L52.658 127.503L52.9392 124.883L55.1386 124.849Z" fill="black"/>
<path d="M57.5496 106.508C57.5496 113.46 55.5936 126.697 55.5936 126.697L51.9154 127.269C51.9154 127.269 51.5583 114.926 51.4192 108.094C51.3971 107.089 48.5942 102.229 45.706 97.4826C44.2176 95.0368 42.7071 92.6162 41.5379 90.7676C40.2897 88.7895 39.4365 87.4623 39.4365 87.4623L48.1676 84.1948C48.1676 84.1948 57.5433 99.8147 57.5496 106.508Z" fill="#CFD8DC"/>
<path d="M56.1087 126.912L51.6784 127.193L51.6025 125.768L56.4658 125.386L56.1087 126.912Z" fill="#263238"/>
<path d="M54.6993 129.62C54.6988 129.609 54.7015 129.598 54.7071 129.588C54.7127 129.579 54.721 129.571 54.7309 129.566C54.832 129.519 55.7326 129.098 55.9949 129.25C56.0197 129.264 56.0402 129.285 56.0541 129.31C56.068 129.335 56.0748 129.364 56.0739 129.392C56.0774 129.44 56.0695 129.487 56.0508 129.53C56.0321 129.574 56.0031 129.612 55.9664 129.642C55.7168 129.844 55.0911 129.74 54.7404 129.658C54.7305 129.656 54.7214 129.652 54.7141 129.645C54.7068 129.638 54.7016 129.63 54.6993 129.62ZM54.9173 129.595C55.3976 129.693 55.761 129.683 55.9001 129.566C55.9249 129.547 55.9444 129.522 55.9566 129.493C55.9688 129.464 55.9733 129.433 55.9696 129.402C55.9704 129.391 55.9682 129.38 55.9632 129.371C55.9581 129.361 55.9505 129.353 55.9412 129.348H55.9222C55.7737 129.275 55.2712 129.443 54.9173 129.595Z" fill="#CFD8DC"/>
<path d="M54.7183 129.655C54.7114 129.649 54.7061 129.642 54.7028 129.633C54.6995 129.625 54.6983 129.616 54.6993 129.607C54.7348 129.298 54.8663 129.007 55.0754 128.776C55.1162 128.743 55.1633 128.719 55.2138 128.705C55.2644 128.691 55.3172 128.687 55.3692 128.694C55.5114 128.716 55.5494 128.789 55.5557 128.846C55.5873 129.095 55.0406 129.55 54.772 129.661C54.7662 129.664 54.7596 129.665 54.753 129.665C54.7464 129.665 54.7399 129.664 54.7341 129.661L54.7183 129.655ZM55.3503 128.798C55.3123 128.793 55.2736 128.796 55.2366 128.806C55.1997 128.816 55.1652 128.834 55.1354 128.858C54.9638 129.041 54.8534 129.273 54.8194 129.522C55.0943 129.37 55.4514 129.01 55.4514 128.858C55.4481 128.847 55.4421 128.837 55.4338 128.828C55.4255 128.82 55.4153 128.814 55.404 128.811C55.3878 128.804 55.3708 128.8 55.3534 128.798H55.3503Z" fill="#CFD8DC"/>
<path d="M54.5287 129.351L52.1271 129.275C52.0837 129.274 52.0413 129.288 52.0064 129.314C51.9715 129.339 51.9462 129.376 51.9343 129.418L51.4192 131.348C51.4061 131.395 51.4039 131.444 51.4128 131.492C51.4217 131.539 51.4414 131.584 51.4704 131.623C51.4994 131.662 51.537 131.693 51.5802 131.715C51.6233 131.737 51.671 131.749 51.7194 131.75C52.5884 131.75 53.8398 131.75 54.93 131.788C56.194 131.829 57.0124 131.769 58.5039 131.819C59.4045 131.848 59.6953 130.947 59.3192 130.852C57.616 130.423 56.5005 130.502 55.0501 129.541C54.8974 129.43 54.7168 129.364 54.5287 129.351Z" fill="#263238"/>
<path opacity="0.2" d="M45.7059 97.483C44.2175 95.0371 42.707 92.6166 41.5378 90.768C42.0039 90.1744 42.5445 89.6434 43.1463 89.188C43.1463 89.188 45.6964 93.6246 45.7059 97.483Z" fill="black"/>
<path d="M27.5864 129.699L29.7099 130.274L31.6502 125.547L29.5267 124.972L27.5864 129.699Z" fill="#E4897B"/>
<path opacity="0.2" d="M31.6472 125.55L30.6487 127.986L28.5251 127.408L29.5237 124.972L31.6472 125.55Z" fill="black"/>
<path d="M48.3888 82.3087L48.2118 85.3644L42.9156 89.5894C42.9156 89.5894 42.5522 103.809 41.0449 106.925C39.5376 110.041 32.2886 126.359 32.2886 126.359L28.3259 125.136C28.3259 125.136 34.6238 105.955 35.259 104.821C35.8941 103.686 32.5572 87.1467 37.0254 79.3257L48.3888 82.3087Z" fill="#CFD8DC"/>
<path d="M54.9205 68.6733C55.1449 70.0985 55.3313 71.5173 55.4956 72.9488C55.6599 74.3803 55.8116 75.8118 55.9001 77.2749L55.957 78.2229C55.9831 78.4556 56.0394 78.684 56.1245 78.9023C56.3364 79.4253 56.6344 79.9091 57.0061 80.3337C57.4215 80.821 57.8794 81.2705 58.3744 81.6767C58.6303 81.8853 58.8926 82.1002 59.1644 82.3087C59.4361 82.5173 59.7269 82.7037 59.9765 82.8744L59.3445 84.388C58.9686 84.2764 58.5993 84.1435 58.2385 83.9899C57.8877 83.8382 57.5338 83.6739 57.1925 83.4969C56.4849 83.1248 55.8213 82.6743 55.2144 82.1539C54.5447 81.5895 53.9854 80.906 53.5649 80.1378C53.3332 79.7128 53.162 79.2576 53.0561 78.7853C53.0245 78.6684 53.0087 78.542 52.9866 78.4188L52.9423 78.1028L52.8697 77.5877L52.2377 73.3786C52.0259 71.9692 51.8269 70.5535 51.6499 69.141L54.9205 68.6733Z" fill="#DC897C"/>
<path d="M50.3228 64.7801C49.0935 66.4865 51.2044 72.9961 51.2044 72.9961L56.0898 71.8174C55.9237 69.9176 55.5528 68.0413 54.9838 66.2211C54.0737 63.5951 51.6658 62.9031 50.3228 64.7801Z" fill="#CFD8DC"/>
<path opacity="0.7" d="M50.3228 64.7801C49.0935 66.4865 51.2044 72.9961 51.2044 72.9961L56.0898 71.8174C55.9237 69.9176 55.5528 68.0413 54.9838 66.2211C54.0737 63.5951 51.6658 62.9031 50.3228 64.7801Z" fill="white"/>
<path opacity="0.2" d="M51.9817 68.256C52.8286 69.0649 53.3184 71.1505 53.0087 72.5567L51.2043 72.996C50.7124 71.4228 50.3385 69.8152 50.0857 68.1864C50.5439 67.8072 51.0084 67.3364 51.9817 68.256Z" fill="black"/>
<path d="M41.3641 60.7666C41.1952 63.2121 40.8435 65.6416 40.3118 68.0346C39.9484 69.7062 39.5313 71.2768 39.1205 72.6924C38.1725 76.0073 37.2245 78.4658 37.0254 79.3284L48.4014 82.302C54.0199 71.024 53.252 63.974 53.252 63.974C52.4348 63.5157 51.5906 63.1073 50.724 62.7511C50.5407 62.6752 50.3511 62.6057 50.1584 62.5362C48.5737 62.0216 46.9604 61.5995 45.3267 61.2722C45.0107 61.2058 44.6947 61.149 44.3787 61.0952C42.7987 60.8456 41.3641 60.7666 41.3641 60.7666Z" fill="#CFD8DC"/>
<path opacity="0.7" d="M41.3641 60.7666C41.1952 63.2121 40.8435 65.6416 40.3118 68.0346C39.9484 69.7062 39.5313 71.2768 39.1205 72.6924C38.1725 76.0073 37.2245 78.4658 37.0254 79.3284L48.4014 82.302C54.0199 71.024 53.252 63.974 53.252 63.974C52.4348 63.5157 51.5906 63.1073 50.724 62.7511C50.5407 62.6752 50.3511 62.6057 50.1584 62.5362C48.5737 62.0216 46.9604 61.5995 45.3267 61.2722C45.0107 61.2058 44.6947 61.149 44.3787 61.0952C42.7987 60.8456 41.3641 60.7666 41.3641 60.7666Z" fill="white"/>
<path d="M49.3872 63.2887C48.8026 62.2459 49.4504 61.3484 50.231 60.5995L49.0144 56.7822C48.4266 58.3053 47.1184 60.9566 45.6016 61.2726C45.7594 62.0082 46.0837 62.6979 46.5496 63.2887H49.3872Z" fill="#E4897B"/>
<path opacity="0.2" d="M49.5105 58.3398L50.231 60.5961C50.0118 60.8015 49.8109 61.0256 49.6306 61.266C49.0997 60.8236 48.6984 59.686 49.0176 59.054C49.1358 58.7872 49.3031 58.545 49.5105 58.3398Z" fill="black"/>
<path d="M56.8797 56.9717C56.8197 57.2624 54.2316 56.6557 53.8303 56.0806C53.429 55.5055 54.7372 55.2084 55.5525 55.6319C56.1019 55.9581 56.5587 56.4193 56.8797 56.9717Z" fill="#CFD8DC"/>
<path opacity="0.3" d="M56.8797 56.9717C56.8197 57.2624 54.2316 56.6557 53.8303 56.0806C53.429 55.5055 54.7372 55.2084 55.5525 55.6319C56.1019 55.9581 56.5587 56.4193 56.8797 56.9717Z" fill="black"/>
<path d="M55.6725 55.5054C55.6725 56.3902 54.9868 57.9955 54.0388 57.0854C53.0908 56.1753 55.6883 53.9855 55.6725 55.5054Z" fill="#263238"/>
<path d="M54.2633 59.2406C54.108 59.5066 53.9337 59.7612 53.7419 60.0022C52.44 61.6422 49.8361 61.5601 48.866 59.7178C48.7986 59.5948 48.7405 59.467 48.6922 59.3354C48.1645 57.8724 48.7365 56.7284 49.5328 54.706C49.7139 54.2325 50.0121 53.8127 50.3997 53.4858C50.7873 53.159 51.2515 52.9359 51.7488 52.8374C52.2461 52.7389 52.7603 52.7682 53.2432 52.9226C53.726 53.0769 54.1619 53.3514 54.5098 53.7201C55.8623 55.1421 55.2524 57.5816 54.2633 59.2406Z" fill="#E4897B"/>
<path d="M51.0021 51.1919C50.552 51.332 50.1416 51.5767 49.8044 51.9061C48.6289 52.9868 47.7725 54.6047 49.2609 56.2384C50.3385 55.8339 50.8693 54.3424 51.0021 53.9158V51.1919Z" fill="#263238"/>
<path d="M48.0064 55.9891C47.9724 56.2571 47.9921 56.5293 48.0642 56.7897C48.1364 57.0501 48.2596 57.2935 48.4267 57.5059C48.8786 58.0715 49.5327 57.7713 49.7634 57.1267C49.9751 56.5452 49.9941 55.5467 49.3684 55.2307C49.2309 55.163 49.079 55.1297 48.9258 55.1336C48.7726 55.1375 48.6226 55.1785 48.4887 55.2531C48.3548 55.3276 48.241 55.4335 48.157 55.5617C48.073 55.6899 48.0213 55.8365 48.0064 55.9891Z" fill="#E4897B"/>
<path d="M52.2788 56.6207C52.203 56.7785 52.2283 56.9363 52.3356 56.9963C52.4429 57.0563 52.5849 56.9521 52.6512 56.7912C52.7175 56.6302 52.7017 56.4756 52.5944 56.4156C52.4871 56.3556 52.3545 56.4598 52.2788 56.6207Z" fill="#263238"/>
<path d="M54.102 57.4486C54.0262 57.6064 54.0515 57.7642 54.1556 57.8242C54.2598 57.8841 54.4081 57.78 54.4712 57.6222C54.5343 57.4644 54.5186 57.3066 54.4144 57.2435C54.3103 57.1803 54.1745 57.2876 54.102 57.4486Z" fill="#263238"/>
<path d="M53.4859 57.2656C53.4625 57.8299 53.5178 58.3946 53.6502 58.9436C53.5049 58.9664 53.3564 58.9585 53.2144 58.9204C53.0723 58.8823 52.9398 58.8148 52.8254 58.7224L53.4859 57.2656Z" fill="#DE5753"/>
<path d="M51.6658 58.9436C51.731 58.9843 51.7985 59.0213 51.868 59.0542C51.8807 59.059 51.8947 59.0591 51.9075 59.0544C51.9202 59.0498 51.9309 59.0408 51.9375 59.029C51.9407 59.0228 51.9425 59.016 51.943 59.0091C51.9434 59.0022 51.9424 58.9952 51.94 58.9887C51.9377 58.9822 51.934 58.9762 51.9292 58.9712C51.9244 58.9661 51.9187 58.9621 51.9123 58.9594C51.71 58.8737 51.5311 58.741 51.3904 58.5723C51.2497 58.4036 51.1513 58.2037 51.1033 57.9893C51.0991 57.9776 51.091 57.9676 51.0803 57.9612C51.0696 57.9548 51.057 57.9524 51.0447 57.9542C51.0323 57.9561 51.021 57.9622 51.0127 57.9715C51.0044 57.9808 50.9995 57.9926 50.999 58.0051C51.0397 58.199 51.1199 58.3824 51.2346 58.5439C51.3493 58.7053 51.4961 58.8414 51.6658 58.9436Z" fill="#263238"/>
<path d="M51.9816 55.7805C51.998 55.7899 52.0165 55.7949 52.0353 55.7949C52.0542 55.7949 52.0727 55.7899 52.0891 55.7805C52.2025 55.7154 52.3296 55.6778 52.4602 55.6706C52.5908 55.6635 52.7213 55.6871 52.8411 55.7394C52.8532 55.7461 52.8664 55.7504 52.8801 55.7519C52.8937 55.7535 52.9076 55.7523 52.9208 55.7485C52.934 55.7447 52.9463 55.7383 52.9571 55.7297C52.9678 55.7211 52.9767 55.7104 52.9833 55.6983C52.99 55.6866 52.9942 55.6736 52.9957 55.6601C52.9972 55.6467 52.996 55.6331 52.9922 55.6202C52.9883 55.6072 52.9819 55.5951 52.9734 55.5847C52.9648 55.5742 52.9542 55.5656 52.9423 55.5593C52.7925 55.4902 52.6285 55.4576 52.4637 55.4642C52.2989 55.4708 52.138 55.5164 51.9943 55.5972C51.982 55.6032 51.9711 55.6117 51.9622 55.622C51.9534 55.6323 51.9466 55.6443 51.9425 55.6573C51.9384 55.6703 51.9369 55.684 51.9382 55.6976C51.9395 55.7111 51.9435 55.7243 51.95 55.7363C51.9568 55.7534 51.9677 55.7685 51.9816 55.7805Z" fill="#263238"/>
<path d="M55.1765 57.1959C55.1937 57.2088 55.2152 57.2145 55.2365 57.2117C55.2501 57.2117 55.2635 57.209 55.276 57.2037C55.2885 57.1984 55.2998 57.1907 55.3092 57.181C55.3186 57.1712 55.326 57.1597 55.3309 57.1471C55.3358 57.1344 55.3381 57.121 55.3377 57.1074C55.3378 56.9429 55.2986 56.7808 55.2233 56.6345C55.148 56.4883 55.0388 56.3622 54.9047 56.2669C54.8806 56.2534 54.8522 56.2495 54.8253 56.256C54.7984 56.2624 54.7749 56.2787 54.7594 56.3016C54.7453 56.3251 54.7411 56.3532 54.7476 56.3798C54.7541 56.4064 54.7708 56.4294 54.7941 56.4438C54.8996 56.5197 54.9851 56.62 55.0434 56.7361C55.1018 56.8522 55.1312 56.9807 55.1291 57.1106C55.1285 57.1278 55.1326 57.1448 55.141 57.1598C55.1493 57.1748 55.1616 57.1873 55.1765 57.1959Z" fill="#263238"/>
<path d="M55.5904 56.0805C54.1368 54.9524 52.2819 54.4405 50.8315 54.2066C50.0516 54.0749 49.2619 54.0104 48.4709 54.0139C48.5341 53.1986 49.5769 51.3342 50.2311 51.1983C51.33 51.0678 52.4424 51.105 53.5301 51.3089C54.2948 51.5933 55.8148 52.6961 55.9285 53.1607C56.1655 54.1308 55.5904 56.0805 55.5904 56.0805Z" fill="#CFD8DC"/>
<path d="M50.8284 54.2035C50.8284 54.2035 52.756 53.7738 54.4434 54.4279C56.1308 55.082 56.8798 56.9559 56.8798 56.9559C56.8798 56.9559 56.7312 56.5672 55.3377 56.0648C53.7924 55.5244 52.4842 55.5149 50.8284 54.2035Z" fill="#CFD8DC"/>
<path opacity="0.1" d="M53.5301 51.3089C53.5301 51.3089 51.8079 52.0515 51.6878 52.1716C51.5677 52.2917 50.8315 54.2066 50.8315 54.2066C50.0516 54.0749 49.2619 54.0104 48.4709 54.0139C48.5341 53.1986 49.5769 51.3342 50.2311 51.1983C51.33 51.0678 52.4424 51.105 53.5301 51.3089Z" fill="black"/>
<path opacity="0.1" d="M50.8284 54.2035C50.8284 54.2035 52.756 53.7738 54.4434 54.4279C56.1308 55.082 56.8798 56.9559 56.8798 56.9559C56.8798 56.9559 56.7312 56.5672 55.3377 56.0648C53.7924 55.5244 52.4842 55.5149 50.8284 54.2035Z" fill="black"/>
<path opacity="0.3" d="M54.2632 59.2407C54.1078 59.5067 53.9336 59.7612 53.7418 60.0022C52.4398 61.6423 49.836 61.5601 48.8659 59.7178C48.8069 58.3368 49.1659 56.9701 49.896 55.7963L50.231 55.436C50.231 55.436 49.8139 57.0445 49.9371 57.3605C50.0604 57.6765 50.9546 57.272 51.3686 57.5343C51.6417 57.7343 51.8433 58.0168 51.9437 58.3401L51.6878 58.5012C51.6878 58.5012 51.1853 57.6986 51.002 57.6765C50.8188 57.6544 49.9434 58.4538 50.0224 58.7288C50.1014 59.0037 49.9687 59.1427 50.231 59.266C50.4933 59.3892 51.1316 58.9689 51.1316 58.9689L51.4792 59.2849C51.4792 59.2849 50.923 59.879 51.0084 59.9991C51.155 60.1081 51.3253 60.181 51.5054 60.2118C51.6855 60.2425 51.8703 60.2303 52.0448 60.176C52.443 60.0149 52.4272 59.1459 52.503 59.0574C52.5789 58.9689 51.89 58.6687 51.89 58.6687L52.1017 58.3527C52.1017 58.3527 52.9707 58.9057 53.0023 59.07C53.0339 59.2344 52.8633 59.7336 53.0023 59.7336C53.4522 59.6585 53.8816 59.4906 54.2632 59.2407Z" fill="black"/>
<path d="M55.0312 54.0926L54.9838 53.9062L55.1197 53.7735L55.4357 53.8556C55.4215 53.7927 55.3904 53.7347 55.3459 53.688C55.3014 53.6413 55.2451 53.6075 55.1829 53.5902C55.1237 53.5734 55.0612 53.5728 55.0018 53.5884C54.9423 53.6039 54.8881 53.6351 54.8448 53.6787C54.8316 53.6692 54.8165 53.6627 54.8005 53.6597L53.9663 53.4227H53.922C53.9055 53.3619 53.873 53.3065 53.8279 53.2624C53.7828 53.2184 53.7267 53.1871 53.6655 53.172C53.6043 53.1568 53.5401 53.1583 53.4796 53.1763C53.4192 53.1943 53.3646 53.2281 53.3216 53.2742L53.6376 53.3595L53.685 53.5428L53.5492 53.6755L53.2332 53.5934C53.2477 53.6562 53.2788 53.7139 53.3233 53.7606C53.3677 53.8073 53.4239 53.8412 53.486 53.8588C53.5449 53.8753 53.6071 53.8761 53.6664 53.8611C53.7257 53.8462 53.78 53.8159 53.8241 53.7735H53.8683L54.7026 54.0105C54.7171 54.0135 54.7322 54.0135 54.7468 54.0105C54.7633 54.0713 54.7958 54.1267 54.8409 54.1708C54.886 54.2148 54.9421 54.2461 55.0033 54.2612C55.0646 54.2764 55.1287 54.2749 55.1892 54.2569C55.2496 54.2389 55.3042 54.2051 55.3472 54.159L55.0312 54.0926Z" fill="white"/>
<path d="M59.5847 82.6782L61.7145 83.3576L60.0176 85.1651C60.0176 85.1651 58.1532 84.4447 58.564 83.4998L59.5847 82.6782Z" fill="#E4897B"/>
<path d="M62.7921 85.7085L62.1537 86.8619L60.0176 85.1649L61.7145 83.3574L62.7921 85.7085Z" fill="#E4897B"/>
<path d="M41.2378 65.3174C40.2613 66.436 39.2659 67.5926 38.3211 68.7428C37.8408 69.3148 37.3731 69.8994 36.9465 70.4745C36.5312 71.0115 36.1532 71.5764 35.8152 72.1651C35.7584 72.2673 35.7077 72.3728 35.6635 72.4811C35.6635 72.5127 35.6414 72.538 35.6446 72.5095C35.6477 72.4811 35.6446 72.5095 35.6446 72.4811V72.3389C35.6291 72.1889 35.5885 72.0425 35.5245 71.906C35.4942 71.8451 35.4605 71.786 35.4234 71.729C35.3855 71.6753 35.3381 71.6216 35.3128 71.59C35.2875 71.5584 35.2433 71.5236 35.2085 71.492L35.1263 71.4288C35.0874 71.402 35.0461 71.3788 35.0031 71.3593L34.9336 71.3277H34.8988C34.8735 71.3277 34.8988 71.3277 34.9462 71.3466C35.0728 71.3767 35.2018 71.3957 35.3317 71.4035C35.6477 71.4288 35.9985 71.4351 36.3556 71.4288C36.7127 71.4225 37.0824 71.4288 37.4553 71.4004C38.9405 71.3308 40.4699 71.2171 41.9899 71.1254L42.3059 72.7402C40.813 73.2414 39.2886 73.6436 37.7428 73.9442C36.9282 74.1112 36.1021 74.2168 35.2717 74.2602C35.0176 74.2693 34.7632 74.262 34.5101 74.238C34.3358 74.2196 34.1634 74.1858 33.9951 74.1369C33.937 74.1218 33.88 74.1028 33.8244 74.08C33.7612 74.0548 33.7043 74.0358 33.6222 73.9947C33.5358 73.9525 33.4533 73.9028 33.3757 73.8462C33.3278 73.815 33.2824 73.7801 33.2398 73.7419C33.1829 73.6945 33.1324 73.644 33.0818 73.5934C33.0253 73.5321 32.9735 73.4666 32.927 73.3975C32.8741 73.3231 32.8286 73.2437 32.7911 73.1605C32.7052 72.9808 32.6528 72.787 32.6363 72.5885C32.6331 72.5401 32.6331 72.4916 32.6363 72.4432V72.301C32.6326 72.2441 32.6326 72.1871 32.6363 72.1303C32.6558 71.9497 32.6907 71.771 32.7405 71.5963C32.8157 71.3374 32.9087 71.084 33.0186 70.8379C33.3843 70.0656 33.8145 69.3257 34.3047 68.6259C34.7598 67.9402 35.2338 67.3082 35.7141 66.6762C36.6874 65.4122 37.6859 64.2461 38.7635 63.0801L41.2378 65.3174Z" fill="#DC897C"/>
<path d="M40.6942 60.7922C38.6149 61.1082 35.3538 66.4802 35.3538 66.4802L39.8662 69.4127C41.0236 67.9647 42.0464 66.4141 42.922 64.7802C44.2839 62.1637 43.2095 60.3941 40.6942 60.7922Z" fill="#CFD8DC"/>
<path opacity="0.7" d="M40.6942 60.7922C38.6149 61.1082 35.3538 66.4802 35.3538 66.4802L39.8662 69.4127C41.0236 67.9647 42.0464 66.4141 42.922 64.7802C44.2839 62.1637 43.2095 60.3941 40.6942 60.7922Z" fill="white"/>
<path d="M45.3014 61.2816L46.4137 60.4727L48.4867 63.2471L49.2862 61.8599L50.1331 62.5456C50.3549 62.9299 50.4717 63.3659 50.4717 63.8096C50.4717 64.2534 50.3549 64.6893 50.1331 65.0736L48.4709 63.7117L46.6823 64.8587C46.6823 64.8587 44.78 62.6436 45.3014 61.2816Z" fill="#CFD8DC"/>
<path d="M42.7862 57.1708C43.4145 57.969 43.8194 58.9197 43.9595 59.9258C44.0996 60.9318 43.9699 61.9571 43.5835 62.8965C43.1972 63.8359 42.5682 64.6558 41.7609 65.2723C40.9536 65.8888 39.997 66.2796 38.989 66.4049C37.9809 66.5302 36.9577 66.3853 36.0241 65.9852C35.0905 65.5851 34.2799 64.9441 33.6754 64.1278C33.0709 63.3115 32.6942 62.3492 32.5838 61.3394C32.4734 60.3297 32.6333 59.3088 33.0471 58.3811L36.1786 62.3627L39.2312 61.9235L40.3783 59.0605L37.2467 55.0789C38.273 54.889 39.3318 54.9835 40.3082 55.3522C41.2847 55.721 42.1416 56.3499 42.7862 57.1708Z" fill="#CFD8DC"/>
<path d="M64.9378 103.85C64.3109 103.052 63.9071 102.102 63.7678 101.097C63.6286 100.092 63.7588 99.0677 64.1451 98.1293C64.5315 97.191 65.1602 96.3721 65.9668 95.7564C66.7735 95.1408 67.7292 94.7504 68.7362 94.6253C69.7432 94.5001 70.7654 94.6447 71.6982 95.0442C72.631 95.4437 73.441 96.0838 74.0453 96.899C74.6495 97.7143 75.0264 98.6754 75.1374 99.684C75.2484 100.693 75.0895 101.713 74.6769 102.64L71.5454 98.6583L68.4928 99.0975L67.3457 101.964L70.4773 105.942C69.451 106.132 68.3922 106.037 67.4158 105.669C66.4393 105.3 65.5824 104.671 64.9378 103.85Z" fill="#CFD8DC"/>
<g opacity="0.2">
<path d="M42.7862 57.1708C43.4145 57.969 43.8194 58.9197 43.9595 59.9258C44.0996 60.9318 43.9699 61.9571 43.5835 62.8965C43.1972 63.8359 42.5682 64.6558 41.7609 65.2723C40.9536 65.8888 39.997 66.2796 38.989 66.4049C37.9809 66.5302 36.9577 66.3853 36.0241 65.9852C35.0905 65.5851 34.2799 64.9441 33.6754 64.1278C33.0709 63.3115 32.6942 62.3492 32.5838 61.3394C32.4734 60.3297 32.6333 59.3088 33.0471 58.3811L36.1786 62.3627L39.2312 61.9235L40.3783 59.0605L37.2467 55.0789C38.273 54.889 39.3318 54.9835 40.3082 55.3522C41.2847 55.721 42.1416 56.3499 42.7862 57.1708Z" fill="white"/>
<path d="M64.9378 103.85C64.3109 103.052 63.9071 102.102 63.7678 101.097C63.6286 100.092 63.7588 99.0677 64.1451 98.1293C64.5315 97.191 65.1602 96.3721 65.9668 95.7564C66.7735 95.1408 67.7292 94.7504 68.7362 94.6253C69.7432 94.5001 70.7654 94.6447 71.6982 95.0442C72.631 95.4437 73.441 96.0838 74.0453 96.899C74.6495 97.7143 75.0264 98.6754 75.1374 99.684C75.2484 100.693 75.0895 101.713 74.6769 102.64L71.5454 98.6583L68.4928 99.0975L67.3457 101.964L70.4773 105.942C69.451 106.132 68.3922 106.037 67.4158 105.669C66.4393 105.3 65.5824 104.671 64.9378 103.85Z" fill="white"/>
</g>
<path d="M67.8101 98.2538C67.4978 98.4993 67.1403 98.6809 66.7579 98.7882C66.3754 98.8955 65.9756 98.9264 65.5812 98.8792C65.1868 98.8319 64.8056 98.7075 64.4593 98.5129C64.113 98.3183 63.8085 98.0573 63.5631 97.745L39.3922 67.0172C39.1465 66.7051 38.9647 66.3477 38.8571 65.9654C38.7496 65.5831 38.7184 65.1833 38.7653 64.7889C38.8123 64.3946 38.9365 64.0133 39.1308 63.6669C39.3251 63.3205 39.5857 63.0158 39.8978 62.7701C40.2099 62.5245 40.5673 62.3426 40.9496 62.2351C41.3319 62.1275 41.7317 62.0963 42.1261 62.1433C42.5204 62.1902 42.9017 62.3144 43.2481 62.5087C43.5945 62.703 43.8992 62.9637 44.1449 63.2757L68.3189 94.0067C68.5644 94.319 68.746 94.6765 68.8533 95.059C68.9606 95.4414 68.9915 95.8413 68.9443 96.2357C68.897 96.63 68.7725 97.0113 68.5779 97.3575C68.3833 97.7038 68.1224 98.0084 67.8101 98.2538Z" fill="#CFD8DC"/>
<path opacity="0.2" d="M67.8101 98.2538C67.4978 98.4993 67.1403 98.6809 66.7579 98.7882C66.3754 98.8955 65.9756 98.9264 65.5812 98.8792C65.1868 98.8319 64.8056 98.7075 64.4593 98.5129C64.113 98.3183 63.8085 98.0573 63.5631 97.745L39.3922 67.0172C39.1465 66.7051 38.9647 66.3477 38.8571 65.9654C38.7496 65.5831 38.7184 65.1833 38.7653 64.7889C38.8123 64.3946 38.9365 64.0133 39.1308 63.6669C39.3251 63.3205 39.5857 63.0158 39.8978 62.7701C40.2099 62.5245 40.5673 62.3426 40.9496 62.2351C41.3319 62.1275 41.7317 62.0963 42.1261 62.1433C42.5204 62.1902 42.9017 62.3144 43.2481 62.5087C43.5945 62.703 43.8992 62.9637 44.1449 63.2757L68.3189 94.0067C68.5644 94.319 68.746 94.6765 68.8533 95.059C68.9606 95.4414 68.9915 95.8413 68.9443 96.2357C68.897 96.63 68.7725 97.0113 68.5779 97.3575C68.3833 97.7038 68.1224 98.0084 67.8101 98.2538Z" fill="white"/>
<path opacity="0.2" d="M66.3945 96.4525C66.2344 96.5788 66.0509 96.6723 65.8546 96.7276C65.6583 96.7829 65.4531 96.799 65.2506 96.7749C65.0481 96.7509 64.8523 96.6871 64.6744 96.5873C64.4966 96.4875 64.3402 96.3537 64.2141 96.1934L41.0545 66.7517C40.8 66.4274 40.6845 66.0156 40.733 65.6064C40.7816 65.1971 40.9903 64.8238 41.3136 64.5681C41.6385 64.3148 42.0504 64.2003 42.4594 64.2494C42.8684 64.2986 43.2414 64.5074 43.4971 64.8304L66.6568 94.2721C66.9107 94.5962 67.0256 95.0078 66.9765 95.4165C66.9273 95.8253 66.718 96.1978 66.3945 96.4525Z" fill="black"/>
<path d="M41.4937 71.5137L43.1495 70.0254L43.9679 72.7209C43.9679 72.7209 42.2805 73.6689 41.6801 72.822L41.4937 71.5137Z" fill="#E4897B"/>
<path d="M44.9664 69.8994L45.5415 72.1557L43.9678 72.7213L43.1462 70.0258L44.9664 69.8994Z" fill="#E4897B"/>
<path d="M31.9663 127.49L27.7825 126.008L28.2723 124.665L32.8954 126.226L31.9663 127.49Z" fill="#263238"/>
<path d="M30.0355 129.62C30.0349 129.609 30.0376 129.598 30.0433 129.588C30.0489 129.579 30.0571 129.571 30.0671 129.566C30.1682 129.519 31.0688 129.098 31.3311 129.25C31.3559 129.264 31.3764 129.285 31.3903 129.31C31.4042 129.335 31.411 129.364 31.4101 129.392C31.4136 129.44 31.4056 129.487 31.3869 129.53C31.3682 129.574 31.3393 129.612 31.3026 129.642C31.053 129.844 30.4273 129.74 30.0765 129.658C30.0667 129.656 30.0576 129.652 30.0503 129.645C30.043 129.638 30.0378 129.63 30.0355 129.62ZM30.2535 129.595C30.7338 129.693 31.0972 129.683 31.2363 129.566C31.2611 129.547 31.2806 129.522 31.2928 129.493C31.305 129.464 31.3095 129.433 31.3058 129.402C31.3066 129.391 31.3044 129.38 31.2993 129.371C31.2943 129.361 31.2867 129.353 31.2773 129.348H31.2584C31.0941 129.275 30.6074 129.443 30.2535 129.595Z" fill="#CFD8DC"/>
<path d="M30.0576 129.655C30.0504 129.649 30.0446 129.642 30.0407 129.634C30.0369 129.625 30.0351 129.616 30.0354 129.607C30.0709 129.298 30.2024 129.007 30.4115 128.776C30.4523 128.743 30.4994 128.719 30.55 128.705C30.6005 128.691 30.6534 128.687 30.7054 128.694C30.8476 128.716 30.8855 128.789 30.8918 128.846C30.9234 129.095 30.3767 129.55 30.1081 129.661C30.1023 129.664 30.0958 129.665 30.0892 129.665C30.0826 129.665 30.0761 129.664 30.0702 129.661L30.0576 129.655ZM30.6896 128.798C30.6516 128.793 30.6129 128.796 30.5759 128.806C30.539 128.816 30.5045 128.834 30.4747 128.858C30.3031 129.041 30.1927 129.273 30.1587 129.522C30.4336 129.37 30.7907 129.01 30.7907 128.858C30.7874 128.847 30.7814 128.837 30.7731 128.828C30.7648 128.82 30.7545 128.814 30.7433 128.811C30.7261 128.804 30.708 128.8 30.6896 128.798Z" fill="#CFD8DC"/>
<path d="M29.8617 129.351L27.4601 129.275C27.4168 129.274 27.3744 129.288 27.3395 129.314C27.3046 129.339 27.2792 129.376 27.2674 129.418L26.7523 131.348C26.7388 131.396 26.7368 131.447 26.7466 131.496C26.7563 131.544 26.7774 131.59 26.8082 131.629C26.839 131.669 26.8786 131.7 26.9238 131.721C26.969 131.742 27.0185 131.752 27.0683 131.75C27.9373 131.75 29.1886 131.75 30.2788 131.788C31.5428 131.829 32.3613 131.769 33.8528 131.819C34.7534 131.848 35.0441 130.947 34.6681 130.852C32.9648 130.423 31.8494 130.502 30.3989 129.541C30.2418 129.427 30.0553 129.362 29.8617 129.351Z" fill="#263238"/>
<path d="M36.6462 79.4897L39.7588 80.3303L39.4807 81.4711L36.1816 80.6779L36.6462 79.4897Z" fill="#263238"/>
<path d="M40.1129 80.4219L47.4599 82.4032L47.2892 83.3575L39.7969 81.55L40.1129 80.4219Z" fill="#263238"/>
<path d="M48.4931 82.6815L48.3888 83.62L47.5356 83.4178L47.7284 82.4761L48.4931 82.6815Z" fill="#263238"/>
<path d="M43.1148 81.3067L42.9189 82.2294C42.9103 82.2675 42.9172 82.3075 42.9379 82.3406C42.9586 82.3737 42.9915 82.3973 43.0295 82.4064L44.7612 82.814C44.7807 82.8182 44.8008 82.8185 44.8204 82.8148C44.84 82.8112 44.8587 82.8038 44.8755 82.7929C44.8922 82.782 44.9066 82.768 44.9179 82.7515C44.9292 82.7351 44.9371 82.7166 44.9413 82.6971L45.1214 81.8281C45.1291 81.7909 45.1223 81.7521 45.1023 81.7198C45.0823 81.6874 45.0507 81.664 45.014 81.6543L43.3012 81.1929C43.2815 81.1878 43.2609 81.1866 43.2408 81.1896C43.2206 81.1926 43.2012 81.1996 43.1838 81.2102C43.1664 81.2208 43.1513 81.2348 43.1395 81.2514C43.1276 81.268 43.1192 81.2868 43.1148 81.3067Z" fill="white"/>
<path d="M51.5392 69.7852L51.4918 69.602L51.6277 69.4661L51.9437 69.5514C51.9297 69.4899 51.8998 69.4332 51.8568 69.387C51.8138 69.3408 51.7594 69.3069 51.699 69.2886C51.6387 69.2703 51.5745 69.2683 51.5132 69.2828C51.4518 69.2973 51.3953 69.3279 51.3496 69.3713L51.3085 69.3523L50.4743 69.1153H50.43C50.4132 69.0562 50.3813 69.0025 50.3376 68.9593C50.2938 68.9161 50.2397 68.885 50.1804 68.8688C50.1183 68.8519 50.0527 68.8523 49.9908 68.8702C49.929 68.888 49.8732 68.9225 49.8296 68.97L50.1298 69.0521L50.1804 69.2354L50.0445 69.3713L49.7285 69.286C49.741 69.3481 49.77 69.4057 49.8126 69.4526C49.8551 69.4995 49.9096 69.5341 49.9702 69.5525C50.0308 69.571 50.0952 69.5727 50.1567 69.5575C50.2182 69.5423 50.2745 69.5107 50.3194 69.4661C50.3325 69.4737 50.3462 69.48 50.3605 69.485L51.1979 69.722H51.2422C51.2587 69.7829 51.2912 69.8382 51.3363 69.8823C51.3814 69.9264 51.4375 69.9576 51.4987 69.9728C51.5599 69.9879 51.6241 69.9864 51.6845 69.9685C51.745 69.9505 51.7995 69.9167 51.8426 69.8706L51.5392 69.7852Z" fill="#CFD8DC"/>
<path d="M86.0181 130.653V131.601C86.0181 131.658 86.0407 131.713 86.081 131.753C86.1213 131.794 86.176 131.816 86.233 131.816H113.14C113.37 131.816 113.596 131.759 113.798 131.651C114 131.543 114.173 131.387 114.301 131.197C114.43 131.007 114.509 130.788 114.533 130.56C114.557 130.332 114.525 130.101 114.439 129.889L105.907 108.773L92.1295 108.868L92.6004 111.608L95.6403 129.342C95.6616 129.476 95.6538 129.613 95.6174 129.744C95.581 129.875 95.5169 129.997 95.4294 130.101C95.3419 130.205 95.233 130.289 95.1102 130.347C94.9874 130.405 94.8535 130.436 94.7176 130.438H86.233C86.2046 130.438 86.1765 130.443 86.1502 130.454C86.124 130.465 86.1001 130.48 86.0801 130.5C86.06 130.52 86.0442 130.544 86.0336 130.571C86.0229 130.597 86.0177 130.625 86.0181 130.653Z" fill="#CFD8DC"/>
<path opacity="0.6" d="M86.0181 130.653V131.601C86.0181 131.658 86.0407 131.713 86.081 131.753C86.1213 131.794 86.176 131.816 86.233 131.816H113.14C113.37 131.816 113.596 131.759 113.798 131.651C114 131.543 114.173 131.387 114.301 131.197C114.43 131.007 114.509 130.788 114.533 130.56C114.557 130.332 114.525 130.101 114.439 129.889L109.156 116.8L105.913 108.773L92.1359 108.868L92.6067 111.608L93.9276 119.318L95.6466 129.342C95.6679 129.476 95.6601 129.613 95.6237 129.744C95.5873 129.875 95.5232 129.997 95.4357 130.101C95.3482 130.205 95.2393 130.289 95.1165 130.347C94.9937 130.405 94.8598 130.436 94.7239 130.438H86.233C86.2046 130.438 86.1765 130.443 86.1502 130.454C86.124 130.465 86.1001 130.48 86.0801 130.5C86.06 130.52 86.0442 130.544 86.0336 130.571C86.0229 130.597 86.0177 130.625 86.0181 130.653Z" fill="white"/>
<path opacity="0.2" d="M94.7239 130.442H112.227C112.327 130.438 112.424 130.411 112.511 130.362C112.598 130.313 112.673 130.245 112.728 130.162C112.784 130.079 112.819 129.984 112.83 129.885C112.842 129.786 112.83 129.685 112.796 129.592L105.319 111.611H92.6067L95.6466 129.345C95.6679 129.479 95.6601 129.617 95.6237 129.748C95.5873 129.879 95.5232 130 95.4357 130.104C95.3482 130.208 95.2393 130.292 95.1165 130.35C94.9937 130.409 94.8598 130.44 94.7239 130.442Z" fill="black"/>
<path opacity="0.1" d="M92.136 108.872L92.6068 111.611L93.9277 119.322L109.156 116.803L105.914 108.777L92.136 108.872Z" fill="black"/>
<path d="M65.3454 69.52H129.133C129.348 69.52 129.56 69.5623 129.758 69.6444C129.956 69.7266 130.136 69.847 130.287 69.9987C130.439 70.1505 130.559 70.3306 130.641 70.5288C130.722 70.727 130.764 70.9393 130.764 71.1537V114.323C130.764 114.755 130.592 115.17 130.286 115.477C129.981 115.783 129.566 115.955 129.133 115.956H65.3454C64.9121 115.956 64.4966 115.784 64.1902 115.478C63.8838 115.171 63.7117 114.756 63.7117 114.323V71.1411C63.7142 70.7097 63.8875 70.297 64.1937 69.9931C64.4999 69.6893 64.914 69.5192 65.3454 69.52Z" fill="#CFD8DC"/>
<path opacity="0.7" d="M65.3454 69.52H129.133C129.348 69.52 129.56 69.5623 129.758 69.6444C129.956 69.7266 130.136 69.847 130.287 69.9987C130.439 70.1505 130.559 70.3306 130.641 70.5288C130.722 70.727 130.764 70.9393 130.764 71.1537V114.323C130.764 114.755 130.592 115.17 130.286 115.477C129.981 115.783 129.566 115.955 129.133 115.956H65.3454C64.9121 115.956 64.4966 115.784 64.1902 115.478C63.8838 115.171 63.7117 114.756 63.7117 114.323V71.1411C63.7142 70.7097 63.8875 70.297 64.1937 69.9931C64.4999 69.6893 64.914 69.5192 65.3454 69.52Z" fill="white"/>
<path opacity="0.2" d="M127.781 115.953H129.133C129.566 115.953 129.98 115.781 130.286 115.475C130.592 115.17 130.764 114.755 130.764 114.322V71.141C130.764 70.9266 130.722 70.7143 130.641 70.5161C130.559 70.3179 130.439 70.1378 130.287 69.986C130.136 69.8343 129.956 69.7139 129.758 69.6317C129.56 69.5496 129.348 69.5073 129.133 69.5073H127.781C127.995 69.5073 128.207 69.5496 128.405 69.6317C128.604 69.7139 128.783 69.8343 128.935 69.986C129.086 70.1378 129.206 70.3179 129.288 70.5161C129.37 70.7143 129.412 70.9266 129.411 71.141V114.322C129.411 114.755 129.24 115.17 128.934 115.475C128.628 115.781 128.213 115.953 127.781 115.953Z" fill="black"/>
<path d="M127.939 71.1064H65.1812V112.746H127.939V71.1064Z" fill="#263238"/>
<path d="M127.939 71.1064H65.1812V74.3012H127.939V71.1064Z" fill="#CFD8DC"/>
<path opacity="0.2" d="M126.472 72.8191C126.472 72.9735 126.427 73.1244 126.341 73.2527C126.255 73.3811 126.133 73.4811 125.991 73.5402C125.848 73.5993 125.691 73.6147 125.54 73.5846C125.388 73.5545 125.249 73.4802 125.14 73.371C125.031 73.2618 124.956 73.1228 124.926 72.9714C124.896 72.82 124.912 72.663 124.971 72.5204C125.03 72.3778 125.13 72.2559 125.258 72.1701C125.387 72.0844 125.538 72.0386 125.692 72.0386C125.899 72.0394 126.097 72.1219 126.243 72.2681C126.389 72.4143 126.472 72.6123 126.472 72.8191Z" fill="black"/>
<path opacity="0.2" d="M123.894 72.8189C123.896 72.9737 123.851 73.1255 123.767 73.2551C123.682 73.3847 123.561 73.4862 123.419 73.5467C123.276 73.6073 123.119 73.6241 122.967 73.595C122.815 73.566 122.675 73.4924 122.565 73.3836C122.455 73.2749 122.379 73.1358 122.348 72.9842C122.318 72.8325 122.332 72.6751 122.391 72.5319C122.45 72.3887 122.55 72.2663 122.679 72.1801C122.807 72.0939 122.958 72.0479 123.113 72.0479C123.319 72.0478 123.516 72.1288 123.662 72.2731C123.808 72.4174 123.891 72.6135 123.894 72.8189Z" fill="black"/>
<path opacity="0.2" d="M121.319 72.8191C121.32 72.9745 121.276 73.1269 121.19 73.2568C121.105 73.3868 120.983 73.4883 120.84 73.5483C120.696 73.6083 120.538 73.6242 120.386 73.5939C120.233 73.5635 120.093 73.4884 119.984 73.378C119.874 73.2676 119.8 73.1271 119.771 72.9744C119.742 72.8217 119.759 72.6638 119.821 72.5209C119.882 72.3781 119.984 72.2567 120.115 72.1725C120.246 72.0882 120.398 72.0449 120.554 72.048C120.756 72.0529 120.949 72.1359 121.091 72.2796C121.234 72.4233 121.315 72.6166 121.319 72.8191Z" fill="black"/>
<path opacity="0.4" d="M127.939 74.3169H65.1812V85.1273H127.939V74.3169Z" fill="white"/>
<path d="M66.619 74.7974L65.1812 77.3728V74.7974H66.619Z" fill="#263238"/>
<path d="M74.3704 74.7974L68.8626 84.6818H65.1812V83.4716L70.016 74.7974H74.3704Z" fill="#263238"/>
<path d="M76.5918 84.7227H72.2373L77.7705 74.7939H82.1218L76.5918 84.7227Z" fill="#263238"/>
<path d="M84.3432 84.7227H79.9888L85.5219 74.7939H89.8764L84.3432 84.7227Z" fill="#263238"/>
<path d="M92.0947 84.7227H87.7402L93.2734 74.7939H97.6279L92.0947 84.7227Z" fill="#263238"/>
<path d="M99.8462 84.7227H95.4949L101.025 74.7939H105.379L99.8462 84.7227Z" fill="#263238"/>
<path d="M107.601 84.6499H103.246L108.779 74.7212H113.131L107.601 84.6499Z" fill="#263238"/>
<path d="M115.352 84.6499H110.998L116.531 74.7212H120.885L115.352 84.6499Z" fill="#263238"/>
<path d="M127.939 74.7622V75.9756L123.104 84.6498H118.75L124.261 74.7622H127.939Z" fill="#263238"/>
<path d="M127.939 82.1475V84.6818H126.526L127.939 82.1475Z" fill="#263238"/>
<path opacity="0.4" d="M127.939 101.894H65.1812V112.704H127.939V101.894Z" fill="white"/>
<path d="M66.619 102.463L65.1812 105.016V102.463H66.619Z" fill="#263238"/>
<path d="M74.3704 102.463L68.8626 112.265H65.1812V111.064L70.016 102.463H74.3704Z" fill="#263238"/>
<path d="M76.5918 112.306H72.2373L77.7705 102.463H82.1218L76.5918 112.306Z" fill="#263238"/>
<path d="M84.3432 112.306H79.9888L85.5219 102.463H89.8764L84.3432 112.306Z" fill="#263238"/>
<path d="M92.0947 112.306H87.7402L93.2734 102.463H97.6279L92.0947 112.306Z" fill="#263238"/>
<path d="M99.8462 112.306H95.4949L101.025 102.463H105.379L99.8462 112.306Z" fill="#263238"/>
<path d="M107.601 112.234H103.246L108.779 102.39H113.131L107.601 112.234Z" fill="#263238"/>
<path d="M115.352 112.234H110.998L116.531 102.39H120.885L115.352 112.234Z" fill="#263238"/>
<path d="M127.939 102.428V103.629L123.104 112.231H118.75L124.261 102.428H127.939Z" fill="#263238"/>
<path d="M127.939 109.75V112.265H126.526L127.939 109.75Z" fill="#263238"/>
<path d="M86.1634 95.1159V96.0165H81.8342V90.2432H86.0497V91.1406H82.9086V92.6416H85.6957V93.5359H82.9086V95.1159H86.1634Z" fill="white"/>
<path d="M91.1373 96.0165L89.9587 94.3259C89.8828 94.3259 89.8101 94.3259 89.7343 94.3259H88.4324V96.0102H87.3738V90.2432H89.7501C91.2669 90.2432 92.2086 91.0174 92.2086 92.2972C92.2259 92.6926 92.1158 93.0832 91.8945 93.4115C91.6733 93.7397 91.3525 93.9882 90.9793 94.1205L92.3065 96.0165H91.1373ZM89.6837 91.1501H88.4197V93.4506H89.6837C90.6317 93.4506 91.1121 93.0208 91.1121 92.2972C91.1121 91.5735 90.6254 91.1501 89.6837 91.1501Z" fill="white"/>
<path d="M97.1697 96.0165L95.991 94.3259C95.9152 94.3259 95.8425 94.3259 95.7666 94.3259H94.4647V96.0102H93.3777V90.2432H95.7508C97.2708 90.2432 98.2093 91.0174 98.2093 92.2972C98.2267 92.6926 98.1166 93.0832 97.8953 93.4115C97.674 93.7397 97.3532 93.9882 96.9801 94.1205L98.3073 96.0165H97.1697ZM95.7192 91.1501H94.4552V93.4506H95.7192C96.6672 93.4506 97.1444 93.0208 97.1444 92.2972C97.1444 91.5735 96.6515 91.1501 95.7129 91.1501H95.7192Z" fill="white"/>
<path d="M98.9995 93.1284C98.9995 91.422 100.32 90.1611 102.109 90.1611C103.898 90.1611 105.218 91.4251 105.218 93.1284C105.218 94.8316 103.901 96.0988 102.109 96.0988C100.317 96.0988 98.9995 94.8379 98.9995 93.1284ZM104.138 93.1284C104.138 92.7271 104.019 92.3349 103.796 92.0013C103.573 91.6677 103.256 91.4076 102.885 91.2541C102.515 91.1005 102.107 91.0604 101.713 91.1386C101.32 91.2169 100.958 91.4101 100.674 91.6939C100.391 91.9776 100.197 92.3391 100.119 92.7326C100.041 93.1261 100.081 93.534 100.235 93.9047C100.388 94.2754 100.648 94.5923 100.982 94.8152C101.315 95.0381 101.708 95.1571 102.109 95.1571C102.378 95.1654 102.645 95.1186 102.895 95.0196C103.145 94.9206 103.372 94.7715 103.562 94.5814C103.752 94.3914 103.901 94.1644 104 93.9145C104.099 93.6646 104.146 93.397 104.138 93.1284Z" fill="white"/>
<path d="M110.126 96.0165L108.947 94.3259C108.871 94.3259 108.799 94.3259 108.726 94.3259H107.421V96.0102H106.35V90.2432H108.726C110.243 90.2432 111.181 91.0174 111.181 92.2972C111.199 92.6926 111.089 93.0832 110.867 93.4115C110.646 93.7397 110.325 93.9882 109.952 94.1205L111.282 96.0165H110.126ZM108.675 91.1501H107.411V93.4506H108.675C109.623 93.4506 110.101 93.0208 110.101 92.2972C110.101 91.5735 109.62 91.1501 108.682 91.1501H108.675Z" fill="white"/>
<path opacity="0.4" d="M116.322 96.9264H123.12C123.269 96.9265 123.417 96.8872 123.546 96.8123C123.676 96.7375 123.784 96.6298 123.859 96.5C123.934 96.3703 123.973 96.2232 123.973 96.0733C123.973 95.9235 123.934 95.7763 123.859 95.6466L120.459 89.7595C120.385 89.6295 120.277 89.5214 120.148 89.4463C120.018 89.3711 119.871 89.3315 119.721 89.3315C119.571 89.3315 119.424 89.3711 119.295 89.4463C119.165 89.5214 119.058 89.6295 118.983 89.7595L115.583 95.6466C115.508 95.7763 115.469 95.9235 115.469 96.0733C115.469 96.2232 115.508 96.3703 115.583 96.5C115.658 96.6298 115.766 96.7375 115.896 96.8123C116.025 96.8872 116.173 96.9265 116.322 96.9264ZM120.178 91.3648L120.029 94.2973H119.397L119.242 91.3648H120.178ZM119.23 95.3053C119.229 95.2409 119.241 95.177 119.266 95.1175C119.29 95.058 119.327 95.0041 119.373 94.9591C119.419 94.9142 119.474 94.8791 119.534 94.856C119.594 94.833 119.658 94.8224 119.723 94.825C119.788 94.8207 119.855 94.8299 119.917 94.8521C119.979 94.8742 120.036 94.9089 120.084 94.9539C120.132 94.9989 120.171 95.0532 120.197 95.1137C120.224 95.1741 120.237 95.2394 120.238 95.3053C120.238 95.3713 120.225 95.4366 120.199 95.4973C120.173 95.558 120.135 95.6128 120.088 95.6585C120.04 95.7043 119.984 95.74 119.922 95.7634C119.861 95.7869 119.795 95.7977 119.729 95.7951C119.663 95.7991 119.596 95.7892 119.534 95.7663C119.472 95.7433 119.415 95.7077 119.367 95.6617C119.32 95.6157 119.282 95.5602 119.256 95.4989C119.231 95.4376 119.219 95.3717 119.22 95.3053H119.23Z" fill="white"/>
<path opacity="0.4" d="M69.9936 96.9264H76.7908C76.9403 96.926 77.0871 96.8862 77.2165 96.8111C77.3458 96.7361 77.4532 96.6283 77.5277 96.4987C77.6023 96.3691 77.6415 96.2221 77.6414 96.0726C77.6413 95.923 77.6019 95.7761 77.5271 95.6466L74.1301 89.7595C74.0557 89.6295 73.9483 89.5214 73.8187 89.4463C73.6892 89.3711 73.542 89.3315 73.3922 89.3315C73.2424 89.3315 73.0953 89.3711 72.9657 89.4463C72.8361 89.5214 72.7287 89.6295 72.6544 89.7595L69.2542 95.6466C69.1793 95.7763 69.1399 95.9235 69.1399 96.0733C69.1399 96.2232 69.1794 96.3703 69.2543 96.5C69.3293 96.6298 69.4371 96.7375 69.5669 96.8123C69.6966 96.8872 69.8438 96.9265 69.9936 96.9264ZM73.8488 91.3648L73.6972 94.2973H73.0652L72.9103 91.3648H73.8488ZM72.9008 95.3053C72.8999 95.2409 72.9122 95.177 72.9368 95.1175C72.9614 95.058 72.9979 95.0041 73.044 94.9591C73.0901 94.9142 73.1449 94.8791 73.2051 94.856C73.2652 94.833 73.3294 94.8224 73.3938 94.825C73.4591 94.8216 73.5245 94.8315 73.5859 94.854C73.6473 94.8766 73.7034 94.9114 73.751 94.9563C73.7986 95.0012 73.8365 95.0553 73.8626 95.1153C73.8886 95.1753 73.9022 95.2399 73.9026 95.3053C73.9026 95.3713 73.8893 95.4366 73.8636 95.4973C73.8378 95.558 73.8 95.6128 73.7525 95.6585C73.705 95.7043 73.6487 95.74 73.5871 95.7634C73.5254 95.7869 73.4597 95.7977 73.3938 95.7951C73.3289 95.7968 73.2642 95.7854 73.2039 95.7614C73.1435 95.7375 73.0886 95.7015 73.0425 95.6557C72.9964 95.6099 72.9601 95.5553 72.9358 95.495C72.9114 95.4348 72.8995 95.3703 72.9008 95.3053Z" fill="white"/>
<path opacity="0.1" d="M71.7222 71.1001C80.3995 79.7933 102.69 99.1388 127.939 97.7105V71.1001H71.7222Z" fill="white"/>
<path opacity="0.1" d="M65.1812 87.0834V112.749H102.965C101.515 107.563 98.6203 100.466 93.0018 95.3942C82.893 86.2682 71.163 86.2934 65.1812 87.0834Z" fill="white"/>
<path d="M118.974 129.876L120.099 130.369C119.865 130.596 119.572 130.752 119.253 130.819C118.934 130.885 118.602 130.86 118.297 130.745C117.948 130.587 117.668 130.308 117.509 129.959C117.351 129.61 117.324 129.216 117.435 128.849C117.504 128.591 117.647 128.36 117.846 128.182L114.787 120.367C113.687 120.412 113.223 119.381 113.248 118.674L114.366 119.17C114.43 119.203 114.499 119.223 114.57 119.229C114.642 119.234 114.713 119.225 114.781 119.201C114.848 119.178 114.91 119.14 114.963 119.092C115.015 119.043 115.057 118.984 115.085 118.918C115.114 118.853 115.128 118.782 115.128 118.71C115.128 118.639 115.113 118.568 115.084 118.503C115.055 118.437 115.013 118.378 114.96 118.33C114.907 118.282 114.845 118.245 114.777 118.222L113.652 117.729C113.886 117.501 114.179 117.345 114.498 117.278C114.817 117.212 115.149 117.238 115.453 117.353C115.805 117.506 116.09 117.779 116.256 118.124C116.423 118.47 116.46 118.863 116.36 119.233C116.308 119.482 116.18 119.708 115.994 119.881L119.053 127.699C119.909 127.746 120.573 128.7 120.547 129.408L119.407 128.928C119.278 128.873 119.133 128.87 119.003 128.921C118.873 128.972 118.768 129.072 118.711 129.2C118.659 129.324 118.657 129.465 118.706 129.591C118.755 129.717 118.851 129.819 118.974 129.876Z" fill="#CFD8DC"/>
<path opacity="0.2" d="M118.974 129.876L120.099 130.369C119.865 130.596 119.572 130.752 119.253 130.819C118.934 130.885 118.602 130.86 118.297 130.745C117.948 130.587 117.668 130.308 117.509 129.959C117.351 129.61 117.324 129.216 117.435 128.849C117.504 128.591 117.647 128.36 117.846 128.182L114.787 120.367C113.687 120.412 113.223 119.381 113.248 118.674L114.366 119.17C114.43 119.203 114.499 119.223 114.57 119.229C114.642 119.234 114.713 119.225 114.781 119.201C114.848 119.178 114.91 119.14 114.963 119.092C115.015 119.043 115.057 118.984 115.085 118.918C115.114 118.853 115.128 118.782 115.128 118.71C115.128 118.639 115.113 118.568 115.084 118.503C115.055 118.437 115.013 118.378 114.96 118.33C114.907 118.282 114.845 118.245 114.777 118.222L113.652 117.729C113.886 117.501 114.179 117.345 114.498 117.278C114.817 117.212 115.149 117.238 115.453 117.353C115.805 117.506 116.09 117.779 116.256 118.124C116.423 118.47 116.46 118.863 116.36 119.233C116.308 119.482 116.18 119.708 115.994 119.881L119.053 127.699C119.909 127.746 120.573 128.7 120.547 129.408L119.407 128.928C119.278 128.873 119.133 128.87 119.003 128.921C118.873 128.972 118.768 129.072 118.711 129.2C118.659 129.324 118.657 129.465 118.706 129.591C118.755 129.717 118.851 129.819 118.974 129.876Z" fill="white"/>
<path d="M110.249 122.968L109.058 123.265C109.103 122.942 109.24 122.639 109.452 122.392C109.664 122.144 109.943 121.963 110.255 121.868C110.629 121.78 111.021 121.83 111.36 122.01C111.699 122.189 111.961 122.486 112.098 122.845C112.2 123.092 112.227 123.363 112.177 123.625L119.369 127.951C120.212 127.244 121.208 127.778 121.622 128.353L120.434 128.644C120.367 128.659 120.304 128.688 120.248 128.729C120.193 128.77 120.146 128.821 120.111 128.88C120.076 128.939 120.052 129.004 120.043 129.072C120.033 129.14 120.037 129.209 120.054 129.276C120.089 129.409 120.174 129.523 120.293 129.594C120.411 129.664 120.553 129.685 120.686 129.652L121.881 129.355C121.836 129.677 121.699 129.981 121.486 130.228C121.274 130.476 120.995 130.657 120.683 130.751C120.31 130.844 119.916 130.8 119.573 130.626C119.23 130.451 118.961 130.159 118.816 129.803C118.707 129.574 118.669 129.318 118.708 129.067L111.519 124.738C110.808 125.224 109.702 124.874 109.291 124.295L110.492 123.979C110.626 123.944 110.74 123.859 110.812 123.741C110.884 123.623 110.908 123.482 110.878 123.347C110.844 123.214 110.759 123.099 110.641 123.028C110.524 122.957 110.383 122.936 110.249 122.968Z" fill="#CFD8DC"/>
<path opacity="0.2" d="M110.249 122.968L109.058 123.265C109.103 122.942 109.24 122.639 109.452 122.392C109.664 122.144 109.943 121.963 110.255 121.868C110.629 121.78 111.021 121.83 111.36 122.01C111.699 122.189 111.961 122.486 112.098 122.845C112.2 123.092 112.227 123.363 112.177 123.625L119.369 127.951C120.212 127.244 121.208 127.778 121.622 128.353L120.434 128.644C120.367 128.659 120.304 128.688 120.248 128.729C120.193 128.77 120.146 128.821 120.111 128.88C120.076 128.939 120.052 129.004 120.043 129.072C120.033 129.14 120.037 129.209 120.054 129.276C120.089 129.409 120.174 129.523 120.293 129.594C120.411 129.664 120.553 129.685 120.686 129.652L121.881 129.355C121.836 129.677 121.699 129.981 121.486 130.228C121.274 130.476 120.995 130.657 120.683 130.751C120.31 130.844 119.916 130.8 119.573 130.626C119.23 130.451 118.961 130.159 118.816 129.803C118.707 129.574 118.669 129.318 118.708 129.067L111.519 124.738C110.808 125.224 109.702 124.874 109.291 124.295L110.492 123.979C110.626 123.944 110.74 123.859 110.812 123.741C110.884 123.623 110.908 123.482 110.878 123.347C110.844 123.214 110.759 123.099 110.641 123.028C110.524 122.957 110.383 122.936 110.249 122.968Z" fill="white"/>
<path d="M134.423 119.372L134.442 119.321H123.328L120.721 126.207H131.788L131.781 126.226H132.694L135.039 120.086L134.423 119.372Z" fill="#263238"/>
<path opacity="0.2" d="M134.423 119.372L134.442 119.321H123.328L120.721 126.207H131.788L131.781 126.226H132.694L135.039 120.086L134.423 119.372Z" fill="white"/>
<path opacity="0.4" d="M134.442 119.321L131.835 126.207H120.721L123.328 119.321H134.442Z" fill="black"/>
<path d="M115.15 124.141L117.722 127.446L118.645 127.307L115.931 124.141H115.15Z" fill="#263238"/>
<path opacity="0.1" d="M115.15 124.141L117.722 127.446L118.645 127.307L115.931 124.141H115.15Z" fill="white"/>
<path d="M115.931 121.015L118.503 124.321L119.426 124.181L116.711 121.015H115.931Z" fill="#263238"/>
<path opacity="0.1" d="M115.931 121.015L118.503 124.321L119.426 124.181L116.711 121.015H115.931Z" fill="white"/>
<path d="M112.616 131.819H131.835V126.207H112.616V131.819Z" fill="#263238"/>
<path opacity="0.2" d="M112.616 131.819H131.835V126.207H112.616V131.819Z" fill="white"/>
<path d="M114.701 124.491H132.356V123.603H114.701V124.491Z" fill="#263238"/>
<path opacity="0.2" d="M114.701 124.491H132.356V123.603H114.701V124.491Z" fill="white"/>
<path opacity="0.2" d="M125.578 124.491H132.356V123.603H125.578V124.491Z" fill="black"/>
<path d="M115.744 121.881H133.399V120.993H115.744V121.881Z" fill="#263238"/>
<path opacity="0.2" d="M115.744 121.881H133.399V120.993H115.744V121.881Z" fill="white"/>
<path opacity="0.2" d="M126.621 121.881H133.399V120.993H126.621V121.881Z" fill="black"/>
<path opacity="0.2" d="M124.276 131.819H131.835V126.207H124.276V131.819Z" fill="black"/>
</g>
<defs>
<clipPath id="clip0_320_746">
<rect width="158" height="158" fill="white" transform="translate(0.789795)"/>
</clipPath>
</defs>
</svg>
