<svg width="31" height="28" viewBox="0 0 31 28" fill="none" xmlns="http://www.w3.org/2000/svg">
<path d="M22.3838 8.50516H16.3232V6.32212C17.6982 5.95756 18.7147 4.70281 18.7147 3.21473C18.7147 1.44215 17.2726 0 15.5 0C13.7274 0 12.2853 1.44211 12.2853 3.21473C12.2853 4.70281 13.3018 5.95756 14.6768 6.32212V8.50516H8.61619C5.79891 8.50516 3.50684 10.7972 3.50684 13.6145V22.2201C3.50684 25.0374 5.79891 27.3294 8.61619 27.3294H22.3838C25.2011 27.3294 27.4931 25.0374 27.4931 22.2201V13.6145C27.4931 10.7972 25.2011 8.50516 22.3838 8.50516ZM9.49604 18.5483C8.157 18.5483 7.06756 17.4588 7.06756 16.1198C7.06756 14.7808 8.157 13.6913 9.49604 13.6913C10.8351 13.6913 11.9245 14.7808 11.9245 16.1198C11.9245 17.4588 10.8351 18.5483 9.49604 18.5483ZM17.7432 22.754H13.2567C12.8021 22.754 12.4335 22.3854 12.4335 21.9307C12.4335 21.4761 12.8021 21.1075 13.2567 21.1075H17.7432C18.1979 21.1075 18.5665 21.4761 18.5665 21.9307C18.5665 22.3854 18.1979 22.754 17.7432 22.754ZM21.5039 18.5483C20.1649 18.5483 19.0755 17.4588 19.0755 16.1198C19.0755 14.7808 20.1649 13.6913 21.5039 13.6913C22.843 13.6913 23.9324 14.7808 23.9324 16.1198C23.9324 17.4588 22.843 18.5483 21.5039 18.5483Z" fill="#F4EDED"/>
<path d="M29.1396 14.668V21.7772C30.2632 20.9942 31 19.6929 31 18.2226C31 16.7523 30.2632 15.451 29.1396 14.668Z" fill="#F4EDED"/>
<path d="M0 18.2226C0 19.6929 0.736817 20.9942 1.86042 21.7772V14.668C0.736817 15.451 0 16.7523 0 18.2226Z" fill="#F4EDED"/>
</svg>
