<svg width="99" height="106" viewBox="0 0 99 106" fill="none" xmlns="http://www.w3.org/2000/svg">
<path d="M49.125 31C49.5058 31 49.8866 31.0859 50.2342 31.2492L65.8214 38.1156C67.6425 38.9148 69 40.7797 68.9917 43.0312C68.9504 51.5562 65.573 67.1539 51.3104 74.2437C49.928 74.9312 48.3221 74.9312 46.9397 74.2437C32.677 67.1539 29.2997 51.5562 29.2583 43.0312C29.25 40.7797 30.6076 38.9148 32.4287 38.1156L48.0241 31.2492C48.3635 31.0859 48.7442 31 49.125 31Z" fill="#F4EDED"/>
<path d="M95.1459 52.9054C95.1459 80.6838 74.3099 102.811 49.0729 102.811C23.836 102.811 3 80.6838 3 52.9054C3 25.127 23.836 3 49.0729 3C74.3099 3 95.1459 25.127 95.1459 52.9054Z" stroke="url(#paint0_angular_111_12)" stroke-width="6"/>
<defs>
<radialGradient id="paint0_angular_111_12" cx="0" cy="0" r="1" gradientUnits="userSpaceOnUse" gradientTransform="translate(49.0729 52.9054) rotate(133.927) scale(96.8545 93.2019)">
<stop stop-color="#7EE081"/>
<stop offset="1" stop-color="#7EE081" stop-opacity="0"/>
</radialGradient>
</defs>
</svg>
