<svg width="159" height="158" viewBox="0 0 159 158" fill="none" xmlns="http://www.w3.org/2000/svg">
<g clip-path="url(#clip0_323_7)">
<path d="M158.256 120.838H0.25647V120.917H158.256V120.838Z" fill="#EBEBEB"/>
<path d="M142.425 125.923H131.959V126.002H142.425V125.923Z" fill="#EBEBEB"/>
<path d="M104.922 126.782H102.176V126.861H104.922V126.782Z" fill="#EBEBEB"/>
<path d="M131.643 122.99H116.579V123.069H131.643V122.99Z" fill="#EBEBEB"/>
<path d="M24.3167 123.521H16.8339V123.6H24.3167V123.521Z" fill="#EBEBEB"/>
<path d="M35.2977 123.521H27.1292V123.6H35.2977V123.521Z" fill="#EBEBEB"/>
<path d="M62.2273 124.854H41.801V124.933H62.2273V124.854Z" fill="#EBEBEB"/>
<path d="M75.1485 106.745H14.132C13.654 106.744 13.1959 106.553 12.8582 106.215C12.5205 105.877 12.3308 105.418 12.3308 104.94V19.1684C12.335 18.6932 12.5265 18.2388 12.8637 17.9039C13.201 17.569 13.6567 17.3807 14.132 17.3799H75.1485C75.627 17.3799 76.0859 17.57 76.4243 17.9084C76.7627 18.2468 76.9528 18.7057 76.9528 19.1842V104.94C76.9528 105.419 76.7627 105.878 76.4243 106.216C76.0859 106.555 75.627 106.745 75.1485 106.745ZM14.132 17.4431C13.675 17.4439 13.2369 17.6261 12.914 17.9495C12.5912 18.273 12.4098 18.7114 12.4098 19.1684V104.94C12.4098 105.397 12.5912 105.836 12.914 106.159C13.2369 106.483 13.675 106.665 14.132 106.666H75.1485C75.6058 106.665 76.0442 106.483 76.3675 106.159C76.6909 105.836 76.873 105.398 76.8738 104.94V19.1684C76.873 18.7111 76.6909 18.2727 76.3675 17.9494C76.0442 17.626 75.6058 17.4439 75.1485 17.4431H14.132Z" fill="#EBEBEB"/>
<path d="M143.502 106.745H82.4828C82.0045 106.744 81.5461 106.553 81.2079 106.215C80.8697 105.877 80.6793 105.419 80.6785 104.94V19.1684C80.6835 18.6929 80.8757 18.2385 81.2134 17.9037C81.5512 17.5689 82.0073 17.3807 82.4828 17.3799H143.502C143.977 17.3815 144.432 17.5702 144.769 17.905C145.105 18.2398 145.296 18.6937 145.3 19.1684V104.94C145.3 105.418 145.111 105.876 144.774 106.214C144.437 106.552 143.98 106.743 143.502 106.745ZM82.4828 17.4431C82.0255 17.4439 81.5871 17.626 81.2637 17.9494C80.9403 18.2727 80.7583 18.7111 80.7575 19.1684V104.94C80.7583 105.398 80.9403 105.836 81.2637 106.159C81.5871 106.483 82.0255 106.665 82.4828 106.666H143.502C143.96 106.665 144.398 106.483 144.722 106.159C145.045 105.836 145.227 105.398 145.228 104.94V19.1684C145.227 18.7111 145.045 18.2727 144.722 17.9494C144.398 17.626 143.96 17.4439 143.502 17.4431H82.4828Z" fill="#EBEBEB"/>
<path d="M94.7531 120.838H134.904V30.5825H94.7531L94.7531 120.838Z" fill="#F0F0F0"/>
<path d="M94.753 120.838H134.057V30.5825H94.753L94.753 120.838Z" fill="#F5F5F5"/>
<path d="M131.662 118.79V32.6299H97.1483V118.79H131.662Z" fill="#EBEBEB"/>
<path d="M128.271 45.0965V45.1976C128.271 45.7843 128.038 46.3469 127.623 46.7617C127.209 47.1765 126.646 47.4096 126.059 47.4096H102.764C102.177 47.4096 101.614 47.1765 101.2 46.7617C100.785 46.3469 100.552 45.7843 100.552 45.1976V45.0933C100.552 42.3888 101.626 39.7951 103.538 37.8827C105.451 35.9704 108.045 34.896 110.749 34.896H118.074C119.413 34.896 120.739 35.1598 121.976 35.6722C123.213 36.1847 124.338 36.9358 125.285 37.8827C127.197 39.7951 128.271 42.3888 128.271 45.0933V45.0965Z" fill="#F5F5F5"/>
<path d="M128.271 110.164V54.358C128.271 52.5517 126.807 51.0874 125.001 51.0874H103.813C102.007 51.0874 100.542 52.5517 100.542 54.358V110.164C100.542 111.97 102.007 113.434 103.813 113.434H125.001C126.807 113.434 128.271 111.97 128.271 110.164Z" fill="#F5F5F5"/>
<path d="M103.231 77.2904C103.231 77.6953 103.111 78.0912 102.886 78.428C102.661 78.7647 102.341 79.0272 101.967 79.1822C101.593 79.3371 101.181 79.3777 100.784 79.2987C100.387 79.2197 100.022 79.0247 99.7357 78.7383C99.4494 78.4519 99.2543 78.087 99.1753 77.6898C99.0963 77.2926 99.1369 76.8809 99.2919 76.5067C99.4468 76.1326 99.7093 75.8128 100.046 75.5878C100.383 75.3628 100.779 75.2427 101.184 75.2427C101.727 75.2427 102.248 75.4584 102.632 75.8424C103.016 76.2264 103.231 76.7473 103.231 77.2904Z" fill="#E0E0E0"/>
<path d="M97.7677 118.79V32.6299H97.1452V118.79H97.7677Z" fill="#F0F0F0"/>
<path d="M24.6611 63.2915L71.9126 63.2915V25.4031L24.6611 25.4031L24.6611 63.2915Z" fill="#E6E6E6"/>
<path d="M21.3621 63.2915L71.1953 63.2915V25.4031L21.3621 25.4031L21.3621 63.2915Z" fill="#F0F0F0"/>
<path d="M67.021 59.1173V29.5776L25.5365 29.5776V59.1173H67.021Z" fill="white"/>
<path d="M31.4235 44.3314C31.4235 43.6994 31.5341 43.2665 31.7617 43.0169C31.8963 42.8839 32.058 42.7815 32.2358 42.7166C32.4135 42.6517 32.6032 42.6259 32.7918 42.6408C32.9775 42.6359 33.1625 42.6637 33.3385 42.723C33.4683 42.7691 33.5868 42.8424 33.6861 42.9379C33.7714 43.0172 33.8429 43.1101 33.8978 43.2128C33.9542 43.3197 33.9967 43.4333 34.0242 43.5509C34.0856 43.8033 34.1163 44.0622 34.1159 44.322C34.1471 44.7811 34.0368 45.2388 33.7999 45.6334C33.6725 45.7827 33.5108 45.8987 33.3285 45.9714C33.1462 46.044 32.949 46.0712 32.7539 46.0505C32.5222 46.0601 32.2915 46.0146 32.0808 45.9178C31.9089 45.8276 31.7639 45.6935 31.6605 45.5291C31.57 45.375 31.508 45.2059 31.4773 45.0298C31.4354 44.7995 31.4174 44.5655 31.4235 44.3314ZM32.3305 44.3314C32.3118 44.6224 32.3493 44.9142 32.4411 45.191C32.4649 45.2565 32.5076 45.3134 32.5639 45.3545C32.6202 45.3955 32.6874 45.4189 32.7571 45.4216C32.8021 45.4225 32.8469 45.4143 32.8887 45.3975C32.9305 45.3806 32.9685 45.3555 33.0004 45.3237C33.0797 45.2348 33.1323 45.1252 33.1521 45.0077C33.1899 44.7907 33.2058 44.5705 33.1995 44.3504C33.2195 44.0511 33.1819 43.7508 33.0889 43.4656C33.0618 43.3991 33.0154 43.3422 32.9557 43.3022C32.896 43.2622 32.8257 43.241 32.7539 43.2412C32.6838 43.2422 32.6158 43.2649 32.5591 43.3062C32.5025 43.3476 32.4602 43.4055 32.4379 43.4719C32.351 43.7508 32.3146 44.0429 32.3305 44.3346V44.3314Z" fill="#E0E0E0"/>
<path d="M36.5681 42.6408V45.9936H35.6485V43.7816C35.5126 43.8874 35.3665 43.9795 35.2124 44.0565C35.0441 44.1397 34.8685 44.2073 34.6879 44.2587V43.5098C34.9494 43.4342 35.1947 43.311 35.4115 43.1464C35.5859 43.0072 35.7245 42.8285 35.816 42.625L36.5681 42.6408Z" fill="#E0E0E0"/>
<path d="M37.5634 44.3314C37.5634 43.6994 37.6772 43.2665 37.9047 43.0169C38.0394 42.8839 38.2011 42.7815 38.3788 42.7166C38.5566 42.6517 38.7462 42.6259 38.9349 42.6408C39.1205 42.6359 39.3056 42.6637 39.4816 42.723C39.611 42.7699 39.7293 42.8431 39.8292 42.9379C39.9135 43.018 39.9849 43.1108 40.0409 43.2128C40.0972 43.3197 40.1397 43.4333 40.1673 43.5509C40.2286 43.8033 40.2594 44.0622 40.2589 44.322C40.2902 44.7811 40.1799 45.2388 39.9429 45.6334C39.8154 45.7825 39.6536 45.8983 39.4714 45.971C39.2892 46.0436 39.092 46.0709 38.897 46.0505C38.6653 46.0601 38.4346 46.0146 38.2239 45.9178C38.0519 45.8276 37.9069 45.6935 37.8036 45.5291C37.7119 45.3752 37.6488 45.2061 37.6172 45.0298C37.5753 44.7995 37.5573 44.5655 37.5634 44.3314ZM38.4735 44.3314C38.4548 44.6224 38.4924 44.9142 38.5841 45.191C38.6079 45.2565 38.6507 45.3134 38.707 45.3545C38.7632 45.3955 38.8305 45.4189 38.9001 45.4216C38.9452 45.4225 38.99 45.4143 39.0318 45.3975C39.0736 45.3806 39.1116 45.3555 39.1434 45.3237C39.2216 45.2344 39.2731 45.1249 39.292 45.0077C39.3328 44.7911 39.3498 44.5707 39.3425 44.3504C39.3636 44.0508 39.3249 43.7501 39.2288 43.4656C39.2036 43.4015 39.1603 43.3462 39.1042 43.3063C39.0481 43.2665 38.9815 43.2439 38.9128 43.2412C38.8427 43.2422 38.7746 43.2649 38.718 43.3062C38.6614 43.3476 38.619 43.4055 38.5968 43.4719C38.5045 43.7498 38.4628 44.042 38.4735 44.3346V44.3314Z" fill="#E0E0E0"/>
<path d="M42.7111 42.6408V45.9936H41.7852V43.7816C41.6493 43.8874 41.5032 43.9795 41.3491 44.0565C41.1799 44.1402 41.0032 44.2079 40.8214 44.2587V43.5098C41.0842 43.4351 41.3307 43.3118 41.5482 43.1464C41.7217 43.0064 41.8602 42.8279 41.9527 42.625L42.7111 42.6408Z" fill="#E0E0E0"/>
<path d="M43.7065 44.3317C43.7065 43.6997 43.8203 43.2668 44.0446 43.0172C44.1801 42.8845 44.3424 42.7823 44.5206 42.7174C44.6988 42.6526 44.8889 42.6266 45.0779 42.6412C45.2626 42.6359 45.4466 42.6637 45.6215 42.7233C45.7522 42.7695 45.8717 42.8427 45.9722 42.9382C46.0566 43.0183 46.128 43.1111 46.1839 43.2131C46.2389 43.3206 46.2813 43.4341 46.3103 43.5512C46.3717 43.8036 46.4025 44.0625 46.402 44.3223C46.4333 44.7814 46.323 45.2391 46.086 45.6337C45.9585 45.7828 45.7967 45.8986 45.6145 45.9713C45.4323 46.044 45.2351 46.0712 45.04 46.0508C44.8083 46.0604 44.5776 46.0149 44.3669 45.9181C44.195 45.8279 44.05 45.6938 43.9467 45.5294C43.855 45.3755 43.7918 45.2064 43.7602 45.0301C43.7183 44.7998 43.7003 44.5658 43.7065 44.3317ZM44.6166 44.3317C44.5964 44.6227 44.634 44.9149 44.7272 45.1913C44.7463 45.2459 44.7789 45.2949 44.822 45.3336C44.8651 45.3723 44.9172 45.3996 44.9736 45.4128C45.03 45.426 45.0888 45.4248 45.1446 45.4093C45.2004 45.3938 45.2514 45.3644 45.2928 45.324C45.371 45.2347 45.4225 45.1252 45.4413 45.008C45.4806 44.7912 45.4975 44.571 45.4919 44.3507C45.513 44.0512 45.4743 43.7504 45.3781 43.4659C45.353 43.4018 45.3097 43.3465 45.2536 43.3066C45.1975 43.2668 45.1309 43.2442 45.0621 43.2416C44.9921 43.2425 44.924 43.2652 44.8674 43.3065C44.8108 43.3479 44.7684 43.4058 44.7461 43.4722C44.6501 43.7493 44.6062 44.0418 44.6166 44.3349V44.3317Z" fill="#E0E0E0"/>
<path d="M46.778 44.3314C46.778 43.6994 46.8918 43.2664 47.1162 43.0168C47.2515 42.8839 47.4138 42.7816 47.592 42.7167C47.7703 42.6519 47.9604 42.626 48.1495 42.6408C48.3341 42.6355 48.5182 42.6633 48.693 42.7229C48.8234 42.7698 48.9427 42.843 49.0438 42.9378C49.1281 43.0179 49.1995 43.1107 49.2555 43.2127C49.3093 43.3204 49.3506 43.4338 49.3787 43.5508C49.4427 43.8028 49.4745 44.0619 49.4735 44.3219C49.5048 44.781 49.3945 45.2388 49.1575 45.6333C49.03 45.7824 48.8682 45.8982 48.686 45.9709C48.5038 46.0436 48.3066 46.0708 48.1116 46.0504C47.8799 46.06 47.6492 46.0145 47.4385 45.9177C47.2665 45.8275 47.1215 45.6934 47.0182 45.529C46.9265 45.3752 46.8634 45.206 46.8318 45.0297C46.7899 44.7994 46.7719 44.5654 46.778 44.3314ZM47.6881 44.3314C47.6679 44.6224 47.7055 44.9145 47.7987 45.1909C47.8218 45.2568 47.8643 45.3142 47.9208 45.3554C47.9772 45.3966 48.0449 45.4197 48.1147 45.4216C48.1594 45.4232 48.2039 45.4152 48.2453 45.3984C48.2867 45.3815 48.3241 45.356 48.3549 45.3236C48.4361 45.2359 48.4889 45.1258 48.5066 45.0076C48.5444 44.7907 48.5603 44.5705 48.554 44.3503C48.5756 44.051 48.538 43.7503 48.4434 43.4655C48.4182 43.4015 48.3749 43.3461 48.3188 43.3062C48.2627 43.2664 48.1961 43.2438 48.1274 43.2412C48.0573 43.2421 47.9892 43.2648 47.9326 43.3062C47.876 43.3475 47.8336 43.4054 47.8114 43.4718C47.7174 43.7494 47.6757 44.0418 47.6881 44.3345V44.3314Z" fill="#E0E0E0"/>
<path d="M51.9256 42.6408V45.9936H50.9997V43.7816C50.8628 43.886 50.7169 43.978 50.5636 44.0565C50.3944 44.1402 50.2177 44.2079 50.0359 44.2587V43.5098C50.2985 43.4346 50.5449 43.3114 50.7627 43.1464C50.9362 43.0064 51.0747 42.8279 51.1672 42.625L51.9256 42.6408Z" fill="#E0E0E0"/>
<path d="M52.921 44.3317C52.921 43.6997 53.0347 43.2668 53.2591 43.0172C53.394 42.8845 53.5557 42.7823 53.7334 42.7175C53.9111 42.6526 54.1007 42.6266 54.2893 42.6411C54.4749 42.6357 54.6601 42.6635 54.8359 42.7233C54.9663 42.7702 55.0857 42.8433 55.1867 42.9382C55.2701 43.0192 55.3414 43.1118 55.3984 43.2131C55.4522 43.3207 55.4936 43.4342 55.5217 43.5512C55.5845 43.8033 55.6153 44.0624 55.6133 44.3222C55.6446 44.7814 55.5343 45.2391 55.2973 45.6336C55.1705 45.7827 55.0092 45.8986 54.8275 45.9713C54.6458 46.0439 54.4491 46.0712 54.2545 46.0508C54.0228 46.0604 53.7921 46.0149 53.5814 45.918C53.4088 45.8288 53.2636 45.6945 53.1611 45.5294C53.0695 45.3755 53.0063 45.2064 52.9747 45.0301C52.9328 44.7998 52.9148 44.5657 52.921 44.3317ZM53.8311 44.3317C53.8109 44.6227 53.8485 44.9148 53.9417 45.1912C53.9647 45.2572 54.0073 45.3146 54.0637 45.3558C54.1202 45.397 54.1878 45.4201 54.2577 45.4219C54.3023 45.4235 54.3469 45.4156 54.3882 45.3987C54.4296 45.3818 54.467 45.3564 54.4978 45.324C54.579 45.2363 54.6319 45.1262 54.6495 45.008C54.6873 44.791 54.7032 44.5708 54.6969 44.3507C54.7185 44.0514 54.6809 43.7507 54.5863 43.4659C54.5596 43.3991 54.5133 43.3419 54.4535 43.3019C54.3937 43.2619 54.3233 43.2408 54.2513 43.2415C54.1813 43.2425 54.1132 43.2652 54.0566 43.3065C54 43.3478 53.9576 43.4057 53.9353 43.4722C53.8478 43.7509 53.8125 44.0434 53.8311 44.3349V44.3317Z" fill="#E0E0E0"/>
<path d="M55.9925 44.3314C55.9925 43.6994 56.1063 43.2665 56.3306 43.0169C56.4653 42.8839 56.627 42.7815 56.8047 42.7166C56.9825 42.6517 57.1721 42.6259 57.3608 42.6408C57.5465 42.6354 57.7316 42.6632 57.9075 42.723C58.0378 42.7699 58.1572 42.8431 58.2582 42.9379C58.3416 43.0189 58.4129 43.1115 58.47 43.2128C58.5238 43.3205 58.5651 43.4339 58.5932 43.5509C58.6561 43.8031 58.6869 44.0621 58.6848 44.322C58.7161 44.7811 58.6058 45.2388 58.3688 45.6334C58.242 45.7824 58.0808 45.8983 57.899 45.971C57.7173 46.0437 57.5207 46.0709 57.326 46.0505C57.0943 46.0601 56.8637 46.0146 56.653 45.9178C56.4804 45.8285 56.3352 45.6942 56.2327 45.5291C56.141 45.3752 56.0778 45.2061 56.0462 45.0298C56.0044 44.7995 55.9864 44.5655 55.9925 44.3314ZM56.8994 44.3314C56.8797 44.6227 56.9184 44.9149 57.0132 45.191C57.0362 45.2569 57.0788 45.3143 57.1353 45.3555C57.1917 45.3967 57.2593 45.4198 57.3292 45.4216C57.3739 45.4232 57.4184 45.4153 57.4598 45.3984C57.5012 45.3816 57.5385 45.3561 57.5693 45.3237C57.6505 45.236 57.7034 45.1259 57.721 45.0077C57.7589 44.7907 57.7747 44.5705 57.7684 44.3504C57.7884 44.0511 57.7509 43.7508 57.6578 43.4656C57.6311 43.3988 57.5848 43.3417 57.525 43.3016C57.4653 43.2616 57.3948 43.2405 57.3229 43.2412C57.2529 43.2427 57.1851 43.2655 57.1285 43.3068C57.072 43.3481 57.0295 43.4057 57.0069 43.4719C56.92 43.7508 56.8836 44.0429 56.8994 44.3346V44.3314Z" fill="#E0E0E0"/>
<path d="M61.1402 42.6408V45.9936H60.2143V43.7816C60.0774 43.886 59.9315 43.978 59.7782 44.0565C59.6087 44.1396 59.4321 44.2073 59.2505 44.2587V43.5098C59.5131 43.4346 59.7595 43.3114 59.9773 43.1464C60.1499 43.0055 60.2882 42.8272 60.3818 42.625L61.1402 42.6408Z" fill="#E0E0E0"/>
<path d="M58.2772 120.838H70.1241L69.9123 77.2905L58.2772 81.31V120.838Z" fill="#EBEBEB"/>
<path d="M23.7479 120.838H68.5093L70.1241 74.5757H25.3627L23.7479 120.838Z" fill="#E0E0E0"/>
<path d="M21.2894 120.838H67.4381L69.0528 74.5757H22.9042L21.2894 120.838Z" fill="#F5F5F5"/>
<path d="M63.921 117.192L65.2798 78.2192H26.4213L25.0625 117.192H63.921Z" fill="white"/>
<path d="M46.936 78.2192H40.5623L28.7913 117.192H35.1618L46.936 78.2192Z" fill="#F5F5F5"/>
<path d="M53.9385 78.2192H51.1072L39.3362 117.192H42.1675L53.9385 78.2192Z" fill="#F5F5F5"/>
<path d="M79.2564 135.109C113.094 135.109 140.526 133.507 140.526 131.532C140.526 129.556 113.094 127.955 79.2564 127.955C45.4184 127.955 17.9872 129.556 17.9872 131.532C17.9872 133.507 45.4184 135.109 79.2564 135.109Z" fill="#F5F5F5"/>
<path d="M116.89 110.265L116.781 111.914L117.097 111.935L117.205 110.286L116.89 110.265Z" fill="#CFD8DC"/>
<path d="M118.187 102.707L117.753 108.897L118.069 108.92L118.503 102.729L118.187 102.707Z" fill="#CFD8DC"/>
<path d="M109.826 131.532H71.3722C70.7435 131.538 70.1203 131.413 69.5424 131.166C68.9644 130.918 68.4443 130.553 68.0151 130.094C67.586 129.634 67.2571 129.09 67.0495 128.497C66.8419 127.903 66.76 127.273 66.8091 126.646L72.8479 34.5734C72.9567 33.2607 73.5497 32.0353 74.5115 31.1354C75.4733 30.2354 76.7354 29.7252 78.0524 29.7038H116.506C117.135 29.6975 117.758 29.8221 118.336 30.0697C118.914 30.3173 119.434 30.6825 119.864 31.1419C120.293 31.6014 120.622 32.1452 120.829 32.7387C121.037 33.3322 121.119 33.9624 121.07 34.5892L115.031 126.646C114.926 127.962 114.334 129.191 113.372 130.094C112.41 130.998 111.146 131.51 109.826 131.532Z" fill="#CFD8DC"/>
<path d="M119.072 60.5264H118.409C118.291 60.5276 118.174 60.5043 118.066 60.4579C117.957 60.4114 117.859 60.3429 117.779 60.2568C117.698 60.1706 117.637 60.0685 117.598 59.9572C117.559 59.8458 117.543 59.7276 117.553 59.61L118.33 47.7694C118.35 47.5229 118.461 47.2926 118.642 47.1233C118.822 46.954 119.059 46.8577 119.306 46.853H119.96C120.078 46.8523 120.195 46.8759 120.303 46.9225C120.411 46.9691 120.509 47.0376 120.589 47.1237C120.67 47.2098 120.732 47.3116 120.771 47.4227C120.81 47.5339 120.826 47.6519 120.817 47.7694L120.039 59.61C120.02 59.8552 119.91 60.0846 119.732 60.2538C119.553 60.423 119.318 60.5201 119.072 60.5264Z" fill="#CFD8DC"/>
<path d="M71.704 53.5301H70.9519C70.8401 53.5314 70.7291 53.5093 70.6263 53.4653C70.5234 53.4213 70.4308 53.3563 70.3544 53.2746C70.278 53.1928 70.2195 53.0961 70.1825 52.9905C70.1456 52.8848 70.131 52.7727 70.1398 52.6611L70.4558 47.7189C70.476 47.4863 70.5813 47.2693 70.7516 47.1095C70.9219 46.9497 71.1451 46.8584 71.3785 46.8531H72.1306C72.2422 46.8519 72.3528 46.8739 72.4555 46.9177C72.5581 46.9615 72.6506 47.0262 72.7269 47.1076C72.8033 47.189 72.8619 47.2853 72.899 47.3906C72.9362 47.4958 72.9511 47.6076 72.9427 47.7189L72.6267 52.6611C72.6073 52.8943 72.5023 53.1121 72.332 53.2725C72.1616 53.433 71.938 53.5247 71.704 53.5301Z" fill="#CFD8DC"/>
<path d="M71.1258 62.3563H70.3705C70.2591 62.3575 70.1486 62.3355 70.0461 62.2917C69.9436 62.2478 69.8513 62.1831 69.7752 62.1017C69.6991 62.0202 69.6408 61.9238 69.604 61.8186C69.5673 61.7133 69.5528 61.6016 69.5616 61.4905L69.8776 56.5482C69.897 56.315 70.002 56.0973 70.1724 55.9368C70.3427 55.7764 70.5664 55.6847 70.8003 55.6792H71.5524C71.664 55.6784 71.7746 55.7009 71.8771 55.7451C71.9796 55.7892 72.0718 55.8543 72.1478 55.936C72.2239 56.0177 72.2821 56.1143 72.3189 56.2197C72.3556 56.3251 72.3701 56.4369 72.3613 56.5482L72.0453 61.4905C72.0252 61.7226 71.9204 61.9391 71.7507 62.0988C71.5811 62.2585 71.3587 62.3502 71.1258 62.3563Z" fill="#CFD8DC"/>
<path d="M109.011 131.532H70.557C69.9275 131.539 69.3033 131.416 68.7242 131.169C68.1451 130.922 67.6238 130.557 67.1936 130.097C66.7634 129.637 66.4337 129.093 66.2255 128.499C66.0173 127.905 65.9352 127.274 65.9844 126.646L72.0264 34.5734C72.1353 33.2591 72.7296 32.0324 73.6935 31.1322C74.6573 30.2321 75.9217 29.7229 77.2404 29.7038H115.694C116.323 29.6975 116.946 29.8221 117.524 30.0697C118.102 30.3173 118.622 30.6825 119.051 31.1419C119.481 31.6014 119.809 32.1452 120.017 32.7387C120.225 33.3322 120.307 33.9624 120.257 34.5892L114.216 126.646C114.11 127.962 113.519 129.191 112.557 130.094C111.595 130.998 110.331 131.51 109.011 131.532Z" fill="#CFD8DC"/>
<path opacity="0.6" d="M109.011 131.532H70.557C69.9275 131.539 69.3033 131.416 68.7242 131.169C68.1451 130.922 67.6238 130.557 67.1936 130.097C66.7634 129.637 66.4337 129.093 66.2255 128.499C66.0173 127.905 65.9352 127.274 65.9844 126.646L72.0264 34.5734C72.1353 33.2591 72.7296 32.0324 73.6935 31.1322C74.6573 30.2321 75.9217 29.7229 77.2404 29.7038H115.694C116.323 29.6975 116.946 29.8221 117.524 30.0697C118.102 30.3173 118.622 30.6825 119.051 31.1419C119.481 31.6014 119.809 32.1452 120.017 32.7387C120.225 33.3322 120.307 33.9624 120.257 34.5892L114.216 126.646C114.11 127.962 113.519 129.191 112.557 130.094C111.595 130.998 110.331 131.51 109.011 131.532Z" fill="white"/>
<path d="M112.863 125.967H67.5645C67.4296 125.967 67.2962 125.94 67.1724 125.886C67.0486 125.833 66.9372 125.754 66.845 125.656C66.7528 125.557 66.6819 125.441 66.6366 125.314C66.5913 125.187 66.5726 125.052 66.5817 124.918L72.393 36.3397C72.4097 36.0901 72.5204 35.8562 72.7028 35.685C72.8851 35.5138 73.1256 35.418 73.3757 35.417H118.674C118.809 35.4171 118.943 35.445 119.067 35.4988C119.191 35.5526 119.303 35.6312 119.395 35.7298C119.487 35.8284 119.559 35.9449 119.604 36.0721C119.65 36.1993 119.669 36.3344 119.66 36.4693L113.849 125.047C113.832 125.297 113.721 125.531 113.538 125.702C113.355 125.873 113.113 125.967 112.863 125.967Z" fill="white"/>
<g opacity="0.1">
<path d="M90.9484 119.52C91.0843 120.254 90.8567 121.638 91.4287 123.489C91.7447 124.469 93.1541 124.542 93.9251 123.328C94.6961 122.115 94.1653 120.541 93.9504 119.037C93.7955 117.944 94.4465 117.296 94.4497 116.651C93.9617 116.766 93.4509 116.735 92.9803 116.563C92.5578 116.411 92.1769 116.162 91.8679 115.836C91.5256 115.967 91.1938 116.125 90.8757 116.307C90.5597 116.278 90.2753 116.471 90.3227 116.699C90.5091 117.643 90.7145 118.329 90.9484 119.52Z" fill="#CFD8DC"/>
<path d="M92.9676 116.563C93.4382 116.735 93.9491 116.766 94.437 116.651C94.8014 116.567 95.1389 116.393 95.4184 116.145C95.6978 115.896 95.9102 115.581 96.0359 115.229C97.3853 111.437 99.5119 104.63 102.151 99.113C102.642 99.0027 103.099 98.7758 103.484 98.4512C103.87 98.1267 104.171 97.7142 104.363 97.2486C104.583 96.7383 104.681 96.1832 104.647 95.6282C104.614 95.0733 104.45 94.534 104.17 94.0538C105.917 89.0768 108.177 81.6161 109.782 76.1714C109.858 76.7686 109.937 77.3912 110.016 78.0295C110.016 78.099 110.032 78.1685 110.041 78.238C110.082 78.5825 110.126 78.9269 110.167 79.2808C110.167 79.3251 110.167 79.3725 110.167 79.4199C110.212 79.7833 110.256 80.153 110.3 80.5259C110.657 83.5784 111.008 86.8806 111.27 90.0059C111.466 92.3664 111.795 94.6479 112.019 96.6419C111.583 97.1442 111.307 97.7663 111.229 98.4273C111.155 98.9946 111.211 99.5713 111.391 100.114C111.572 100.657 111.873 101.152 112.272 101.562C112.405 108.628 113.116 118.294 113.467 122.734C113.503 123.168 113.651 123.585 113.896 123.944L117.366 71.4156C117.117 71.0809 116.827 70.7784 116.503 70.515C116.596 69.9862 116.617 69.4473 116.566 68.9129C116.528 68.5137 116.452 68.1191 116.339 67.7342C116.883 67.4158 117.346 66.9755 117.691 66.4481L118.905 47.9558C118.659 47.3951 118.297 46.8924 117.844 46.4803C117.392 46.0682 116.857 45.7559 116.276 45.5636C116.004 45.472 115.716 45.3835 115.423 45.2982C115.189 45.2287 114.949 45.1655 114.705 45.1023C113.078 44.445 112.809 43.3706 112.977 42.2583C112.999 42.1161 113.027 41.977 113.062 41.8348L113.1 41.6958C113.87 41.8305 114.663 41.6824 115.332 41.2788C116.002 40.8753 116.503 40.2434 116.743 39.4996C117.151 38.1697 117.241 36.7626 117.006 35.3916H108.063C108.135 36.0944 108.365 36.7717 108.736 37.3729C108.365 37.6831 108.097 38.0985 107.968 38.5642C107.775 39.267 107.867 40.0177 108.224 40.653C108.561 41.2744 109.101 41.7617 109.754 42.0339C109.583 42.9377 109.267 43.7056 108.717 44.1037C108.338 44.0626 107.952 44.0279 107.576 43.9994C107.26 43.9805 106.97 43.9615 106.679 43.9489C106.268 43.9222 105.858 44.0057 105.491 44.1907C105.124 44.3757 104.813 44.6555 104.59 45.0012C104.423 45.0608 104.266 45.1461 104.126 45.254C103.734 45.57 103.396 45.8386 103.051 46.1482C102.707 46.4579 102.372 46.755 102.04 47.0678C101.383 47.6998 100.744 48.3476 100.144 49.0333C99.0735 50.2109 98.121 51.4905 97.2999 52.8538C96.8639 52.9486 96.3709 53.5679 96.1023 54.4338C95.8147 55.3407 95.8685 56.216 96.2034 56.5636C96.2034 56.6868 96.2034 56.8132 96.1876 56.9365C96.1709 57.9103 96.2121 58.8842 96.3109 59.8532C96.484 61.5623 96.7668 63.2585 97.1577 64.9313C96.9845 65.1464 96.8888 65.4135 96.886 65.6897C96.8898 66.234 96.9631 66.7755 97.104 67.3013L97.42 69.311L100.204 69.3964L100.46 67.2507L99.4803 65.3263C99.4198 65.2115 99.3443 65.1053 99.256 65.0103C99.256 63.3544 99.256 61.6828 99.3318 60.0649C99.3666 59.1896 99.4361 58.3269 99.5435 57.5148C99.591 57.1335 99.6627 56.7556 99.7584 56.3835C99.8058 56.216 99.8564 56.0675 99.9069 55.9316C99.9322 55.8684 99.9575 55.821 99.9828 55.7673L100.014 55.7199L100.03 55.6946L100.068 55.6377C100.51 54.9705 100.987 54.328 101.5 53.7133C102.03 53.0813 102.587 52.4777 103.165 51.8805C103.586 51.4591 104.008 51.0378 104.429 50.6165C104.429 50.7144 104.429 50.8156 104.429 50.9325C104.429 51.0873 104.429 51.2485 104.429 51.3938C104.429 51.8204 104.429 52.2439 104.429 52.6578V52.7495C104.429 53.1571 104.413 53.5616 104.397 53.9598C104.347 55.5398 104.249 57.0597 104.129 58.447C104.024 59.6667 103.904 60.7948 103.787 61.806C103.657 63.101 104.039 64.3955 104.852 65.4116C104.345 66.286 104.079 67.2794 104.081 68.2904C103.56 68.5514 103.105 68.9292 102.753 69.3945C102.401 69.8599 102.162 70.4001 102.053 70.9732C101.035 76.1524 99.1359 85.2438 97.1957 91.7755C96.5543 92.1251 96.0507 92.6822 95.7673 93.3555C95.5812 93.7892 95.483 94.2556 95.4787 94.7275C95.4744 95.1995 95.5639 95.6676 95.7421 96.1047C93.6375 101.477 92.0354 109.547 91.1411 113.399C91.0505 113.836 91.0695 114.288 91.1964 114.715C91.3232 115.143 91.5539 115.532 91.8679 115.848C92.1746 116.168 92.5509 116.412 92.9676 116.563ZM108.922 38.1945C108.931 38.1381 108.942 38.0821 108.957 38.027C109.14 38.459 109.478 38.8064 109.905 39.0003C109.934 39.5603 109.934 40.1214 109.905 40.6814C109.542 40.3851 109.261 40.0006 109.089 39.5646C108.917 39.1286 108.86 38.6558 108.922 38.1914V38.1945ZM108.404 40.5961C108.075 40.0086 107.99 39.3151 108.167 38.6654C108.277 38.2677 108.496 37.9087 108.799 37.6289C108.799 37.6542 108.815 37.6794 108.821 37.7047C108.771 37.8475 108.734 37.9945 108.711 38.144C108.641 38.6697 108.713 39.2045 108.92 39.6929C109.127 40.1813 109.46 40.6055 109.886 40.9216C109.865 41.2439 109.83 41.5599 109.782 41.8696C109.192 41.6111 108.707 41.1613 108.404 40.593V40.5961Z" fill="#CFD8DC"/>
</g>
<path opacity="0.2" d="M91.6816 31.9473H100.953C101.03 31.9467 101.107 31.9621 101.178 31.9925C101.25 32.0229 101.314 32.0677 101.367 32.124C101.42 32.1804 101.461 32.2471 101.487 32.32C101.513 32.3929 101.524 32.4704 101.519 32.5477C101.506 32.7083 101.434 32.8584 101.317 32.9697C101.201 33.081 101.048 33.1456 100.887 33.1512H91.6026C91.525 33.1519 91.4481 33.1365 91.3768 33.1058C91.3055 33.0752 91.2414 33.03 91.1885 32.9733C91.1356 32.9165 91.0951 32.8494 91.0695 32.7761C91.044 32.7028 91.0339 32.625 91.0401 32.5477C91.0534 32.3858 91.1264 32.2347 91.245 32.1237C91.3636 32.0128 91.5192 31.9499 91.6816 31.9473Z" fill="#CFD8DC"/>
<path d="M54.7885 48.4839C54.6116 50.4968 54.3493 52.4528 54.0049 54.4373C53.8279 55.4264 53.6383 56.4155 53.395 57.414C53.1596 58.452 52.8545 59.4729 52.4817 60.4697C52.3743 60.7383 52.2574 61.0101 52.112 61.3008C51.9549 61.6207 51.7654 61.9235 51.5464 62.2046C51.1929 62.6531 50.8074 63.0756 50.393 63.4686C49.6283 64.2017 48.8509 64.8432 48.0641 65.472C46.4929 66.6994 44.8557 67.8398 43.1597 68.888C42.9538 69.0174 42.7075 69.0667 42.4677 69.0266C42.2278 68.9864 42.011 68.8594 41.8585 68.6699C41.7061 68.4804 41.6285 68.2415 41.6406 67.9986C41.6527 67.7557 41.7536 67.5256 41.9242 67.3522C43.283 65.9587 44.6671 64.5714 45.9974 63.1905C46.661 62.5016 47.3183 61.8033 47.8934 61.1144C48.1629 60.8016 48.414 60.4735 48.6455 60.1316C48.7174 60.0168 48.7778 59.895 48.8256 59.7682C48.8888 59.6165 48.952 59.4333 49.0121 59.2405C49.2633 58.3802 49.4669 57.5067 49.6219 56.624C49.7863 55.7013 49.9379 54.7628 50.0738 53.8179C50.3456 51.9219 50.5857 49.9975 50.8069 48.111V48.0857C50.8728 47.5703 51.1375 47.1011 51.5445 46.7782C51.9516 46.4554 52.4687 46.3044 52.9856 46.3576C53.5024 46.4109 53.978 46.664 54.3107 47.063C54.6434 47.4621 54.807 47.9754 54.7664 48.4934L54.7885 48.4839Z" fill="#263238"/>
<path d="M52.3269 61.5824C51.8845 62.6315 51.1482 63.3204 50.6805 63.1213C50.2129 62.9222 50.1907 61.9173 50.6331 60.8682C51.0755 59.8191 51.8118 59.1334 52.2795 59.3293C52.7472 59.5252 52.7693 60.5364 52.3269 61.5824Z" fill="#CFD8DC"/>
<path d="M41.7725 67.3554L40.8245 67.9874L42.3191 70.6418C42.7237 70.0483 43.0849 69.4262 43.3999 68.7806C43.4799 68.6142 43.5181 68.4307 43.5109 68.2462C43.5037 68.0617 43.4515 67.8817 43.3588 67.722C43.2815 67.5907 43.1784 67.4765 43.0556 67.3863C42.9327 67.2962 42.7928 67.232 42.6444 67.1977C42.496 67.1634 42.3421 67.1597 42.1922 67.1869C42.0423 67.214 41.8995 67.2713 41.7725 67.3554Z" fill="#CFD8DC"/>
<path d="M39.8544 69.6531L41.308 71.7924L42.3255 70.6422L40.8308 67.9878L39.8544 69.6531Z" fill="#CFD8DC"/>
<path d="M87.5577 118.184L88.9197 115.287C88.9415 115.24 88.9788 115.201 89.0254 115.178C89.0719 115.155 89.125 115.149 89.1756 115.16L91.5109 115.685C91.5676 115.698 91.6207 115.724 91.666 115.76C91.7114 115.797 91.7479 115.843 91.7728 115.895C91.7978 115.948 91.8105 116.006 91.81 116.064C91.8095 116.122 91.7958 116.179 91.77 116.231C91.315 117.154 90.9421 117.811 90.3891 118.987C90.051 119.707 89.5138 121.515 88.4931 123.285C87.9527 124.233 87.0521 123.566 87.2291 123.136C88.0633 121.016 87.7852 119.474 87.5451 118.639C87.4926 118.491 87.4971 118.329 87.5577 118.184Z" fill="#263238"/>
<path d="M59.8255 127.193L62.6948 127.215C62.7471 127.216 62.7977 127.234 62.8385 127.266C62.8793 127.299 62.9077 127.345 62.9192 127.396L63.4184 129.734C63.4309 129.791 63.4304 129.849 63.4168 129.906C63.4033 129.962 63.3771 130.015 63.3403 130.059C63.3034 130.104 63.2569 130.14 63.2042 130.164C63.1515 130.188 63.094 130.2 63.0361 130.199C62.0028 130.173 60.5081 130.101 59.2062 130.091C57.6862 130.091 56.3622 130.151 54.5862 130.138C53.5087 130.138 53.218 129.039 53.6698 128.941C55.7302 128.508 57.4081 128.473 59.1935 127.392C59.3814 127.268 59.6004 127.199 59.8255 127.193Z" fill="#263238"/>
<path d="M60.0151 98.4154C60.4322 100.255 59.4558 102.043 57.8379 102.41C56.22 102.776 54.5673 101.582 54.1502 99.7426C53.733 97.9035 54.7095 96.1149 56.3274 95.7484C57.9453 95.3818 59.598 96.5731 60.0151 98.4154Z" fill="#263238"/>
<path d="M60.7641 125.136C61.0788 125.139 61.3908 125.078 61.6817 124.958C61.9726 124.838 62.2366 124.662 62.4581 124.438C62.6795 124.215 62.854 123.949 62.9712 123.657C63.0884 123.365 63.146 123.052 63.1405 122.738C63.0615 117.925 62.8245 106.982 62.1609 99.8593C61.9333 97.3787 62.2493 93.7984 62.1988 90.0128C62.1387 85.2412 62.2493 80.0398 62.3821 75.9571C62.4042 75.2745 62.4263 74.6204 62.4484 74.0042C62.4714 73.3504 62.3491 72.6997 62.0903 72.0988C61.8316 71.498 61.4428 70.962 60.9519 70.5296C60.4611 70.0971 59.8805 69.7788 59.2519 69.5977C58.6232 69.4166 57.9623 69.3772 57.3166 69.4822C56.2721 69.6546 55.324 70.1957 54.6444 71.0074C53.9649 71.8192 53.5989 72.8477 53.6131 73.9062C53.7237 80.6307 54.0649 94.4462 55.0509 100.314C56.1379 106.786 57.7906 118.431 58.4447 123.098C58.5221 123.66 58.7991 124.175 59.225 124.549C59.6508 124.923 60.1972 125.132 60.7641 125.136Z" fill="#CFD8DC"/>
<path d="M63.0457 98.4154C63.4628 100.255 62.4864 102.043 60.8653 102.41C59.2442 102.776 57.5947 101.582 57.1807 99.7426C56.7667 97.9035 57.7369 96.1149 59.3485 95.7484C60.9601 95.3818 62.6285 96.5731 63.0457 98.4154Z" fill="#263238"/>
<path opacity="0.2" d="M58.9755 69.52C58.5489 72.0765 60.2838 76.7406 62.2588 80.5326C62.2935 78.9147 62.3346 77.3726 62.382 75.9538C62.401 75.2712 62.4262 74.6139 62.4484 74.0009C62.4858 72.9656 62.1586 71.95 61.524 71.1311C60.8893 70.3122 59.9875 69.7421 58.9755 69.52Z" fill="black"/>
<path d="M63.538 74.6633C66.7157 73.3373 68.2168 69.6863 66.8908 66.5085C65.5648 63.3308 61.9138 61.8296 58.736 63.1557C55.5583 64.4817 54.0571 68.1327 55.3832 71.3105C56.7092 74.4882 60.3602 75.9893 63.538 74.6633Z" fill="#263238"/>
<path d="M75.1484 94.4398C76.0301 96.1051 75.5561 98.0865 74.0867 98.8638C72.6173 99.6412 70.715 98.9175 69.8333 97.2491C68.9517 95.5806 69.4257 93.6024 70.8951 92.8251C72.3645 92.0477 74.251 92.7713 75.1484 94.4398Z" fill="#263238"/>
<path d="M64.3759 67.9937C63.7856 68.1476 63.2344 68.4246 62.7586 68.8065C62.2828 69.1884 61.8931 69.6665 61.615 70.2095C61.3369 70.7526 61.1768 71.3482 61.145 71.9575C61.1133 72.5668 61.2107 73.1759 61.4308 73.7449C63.9936 80.3556 68.7399 92.3889 71.2047 97.249C74.1024 102.956 80.3877 111.213 83.2506 114.863C83.6454 115.371 84.2193 115.71 84.8553 115.81C85.4912 115.91 86.1413 115.763 86.6729 115.4C87.2207 115.034 87.6039 114.468 87.7408 113.824C87.8778 113.179 87.7576 112.507 87.406 111.949C85.2509 108.473 80.9154 101.366 78.2989 95.9944C75.3348 89.902 71.5112 77.4042 69.6247 70.9641C69.3079 69.8836 68.5826 68.9691 67.6026 68.4145C66.6227 67.86 65.4653 67.709 64.3759 67.9937Z" fill="#CFD8DC"/>
<path d="M76.9931 97.7768C78.4618 97.0001 78.9375 95.0185 78.0556 93.3507C77.1737 91.683 75.2681 90.9606 73.7994 91.7373C72.3307 92.5139 71.8549 94.4955 72.7369 96.1633C73.6188 97.8311 75.5244 98.5534 76.9931 97.7768Z" fill="#263238"/>
<path d="M62.3978 43.9748C62.7428 43.9591 63.0876 44.0132 63.4112 44.1339C63.7349 44.2546 64.0309 44.4394 64.2814 44.6772C64.5319 44.915 64.7318 45.201 64.8692 45.518C65.0065 45.8349 65.0784 46.1764 65.0806 46.5218C65.1059 48.658 65.2607 50.7594 65.4819 52.7502C65.7031 54.741 66.0096 56.716 66.3256 58.4382C66.5468 59.6579 66.7775 60.786 66.9924 61.7972C67.1257 62.4212 67.1307 63.0658 67.0072 63.6918C66.8837 64.3178 66.6342 64.9122 66.274 65.4389C65.9137 65.9655 65.4502 66.4134 64.9115 66.7554C64.3728 67.0974 63.7702 67.3264 63.1404 67.4284L58.0622 68.2563C56.9406 68.4394 55.7906 68.2113 54.8238 67.6138C53.8571 67.0163 53.1387 66.0898 52.8008 65.0046C50.4688 57.4838 50.2254 51.9823 50.3518 49.0056C50.3858 48.2345 50.6524 47.4919 51.1166 46.8753C51.5808 46.2588 52.2209 45.7973 52.9525 45.5517C53.218 45.46 53.4961 45.3716 53.7805 45.2862C54.008 45.2167 54.2418 45.1535 54.4788 45.0903C56.4243 44.6551 58.393 44.3312 60.3754 44.1202C60.7514 44.0791 61.1306 44.0444 61.5035 44.0159C61.81 44.0064 62.107 43.9875 62.3978 43.9748Z" fill="#CFD8DC"/>
<path d="M62.2461 68.1929C62.2264 68.1932 62.2072 68.1863 62.1921 68.1735C62.177 68.1607 62.167 68.1429 62.164 68.1234C62.1603 68.1012 62.1656 68.0785 62.1786 68.0601C62.1916 68.0418 62.2113 68.0293 62.2335 68.0254C62.8516 67.9263 63.4432 67.7027 63.9723 67.3682C64.5014 67.0336 64.957 66.5951 65.3116 66.0792C65.6662 65.5633 65.9123 64.9808 66.035 64.3669C66.1577 63.753 66.1545 63.1207 66.0255 62.5081C65.7695 61.3073 65.5515 60.2076 65.3587 59.1458C64.9953 57.1392 64.7267 55.2748 64.515 53.4389C64.2717 51.2522 64.1358 49.1539 64.1137 47.201C64.1137 47.1789 64.1222 47.1577 64.1376 47.1418C64.1529 47.1259 64.1738 47.1165 64.1959 47.1157C64.2182 47.1165 64.2395 47.1257 64.2553 47.1416C64.2712 47.1574 64.2804 47.1787 64.2812 47.201C64.3033 49.1476 64.4392 51.2395 64.6793 53.4199C64.8847 55.2527 65.1597 57.114 65.5231 59.1079C65.7158 60.1697 65.9339 61.2694 66.1898 62.467C66.3239 63.1007 66.328 63.7551 66.2019 64.3904C66.0757 65.0258 65.822 65.6289 65.4559 66.1634C65.0899 66.6978 64.6192 67.1524 64.0724 67.4996C63.5256 67.8468 62.9139 68.0795 62.2746 68.1834L62.2461 68.1929Z" fill="#263238"/>
<path opacity="0.2" d="M62.54 48.4523C63.0124 50.5508 64.0864 52.466 65.6305 53.9634C65.5736 53.5652 65.5262 53.1607 65.482 52.7531C65.3114 51.2205 65.1818 49.6247 65.1249 47.9941L62.54 48.4523Z" fill="black"/>
<path d="M58.056 42.2905C57.4175 42.2893 56.7996 42.0649 56.3091 41.6562C55.8186 41.2474 55.4865 40.68 55.3702 40.0522C55.254 39.4244 55.3609 38.7758 55.6725 38.2185C55.984 37.6612 56.4807 37.2304 57.0764 37.0007C57.4506 36.8591 57.8513 36.8013 58.2503 36.8315C58.6492 36.8618 59.0367 36.9792 59.3853 37.1755C59.7339 37.3719 60.0351 37.6424 60.2677 37.9679C60.5004 38.2934 60.6587 38.666 60.7315 39.0594C60.8044 39.4528 60.79 39.8574 60.6894 40.2446C60.5887 40.6319 60.4043 40.9923 60.1491 41.3005C59.894 41.6086 59.5743 41.857 59.2126 42.0281C58.8509 42.1991 58.4561 42.2887 58.056 42.2905ZM57.1364 37.1934C56.6679 37.3693 56.2622 37.6802 55.9705 38.0868C55.6788 38.4934 55.5144 38.9774 55.4981 39.4776C55.4817 39.9777 55.6142 40.4715 55.8786 40.8963C56.1431 41.3211 56.5277 41.6579 56.9837 41.8639C57.4397 42.07 57.9466 42.1361 58.4402 42.0538C58.9338 41.9716 59.3919 41.7447 59.7564 41.4019C60.121 41.0591 60.3756 40.6159 60.4881 40.1283C60.6005 39.6407 60.5657 39.1306 60.3881 38.6628C60.1507 38.0376 59.6752 37.5319 59.0657 37.2565C58.4563 36.9811 57.7626 36.9584 57.1364 37.1934Z" fill="#CFD8DC"/>
<path d="M57.1617 41.5416C56.6704 41.5421 56.1883 41.4077 55.7682 41.1529C55.3058 40.8744 54.9361 40.4654 54.7056 39.9773C54.4751 39.4892 54.3941 38.9438 54.4728 38.4098C54.5515 37.8758 54.7864 37.377 55.1479 36.9761C55.5094 36.5753 55.9814 36.2903 56.5044 36.157C56.882 36.055 57.2771 36.0353 57.6629 36.0991C58.0488 36.163 58.4164 36.3088 58.7411 36.5269C59.0657 36.745 59.3398 37.0302 59.5448 37.3633C59.7497 37.6964 59.8808 38.0696 59.9292 38.4576C59.9776 38.8457 59.9422 39.2397 59.8253 39.6129C59.7084 39.9861 59.5128 40.3299 59.2516 40.621C58.9905 40.9122 58.6699 41.1439 58.3116 41.3005C57.9532 41.4571 57.5654 41.535 57.1744 41.529L57.1617 41.5416ZM56.5297 36.3561C56.0468 36.4813 55.6117 36.7467 55.2792 37.1188C54.9468 37.4909 54.7319 37.953 54.6616 38.447C54.5914 38.941 54.6688 39.4447 54.8843 39.8947C55.0998 40.3448 55.4436 40.721 55.8724 40.976C56.1555 41.1468 56.4695 41.2598 56.7965 41.3086C57.1234 41.3574 57.4568 41.3409 57.7773 41.2601C58.0979 41.1793 58.3993 41.0358 58.664 40.8379C58.9288 40.6399 59.1518 40.3915 59.32 40.107C59.4918 39.8217 59.6055 39.5053 59.6546 39.1759C59.7037 38.8465 59.6873 38.5107 59.6063 38.1877C59.5252 37.8647 59.3812 37.5609 59.1824 37.2938C58.9836 37.0266 58.7339 36.8014 58.4478 36.631C58.1663 36.4606 57.8537 36.3478 57.5283 36.299C57.2029 36.2502 56.871 36.2663 56.5518 36.3466L56.5297 36.3561Z" fill="#263238"/>
<path d="M57.1365 37.6832C56.4773 37.6789 55.8421 37.4352 55.3493 36.9974C54.8565 36.5596 54.5396 35.9576 54.4576 35.3035C54.3757 34.6494 54.5342 33.9879 54.9038 33.442C55.2734 32.8962 55.8288 32.5033 56.4665 32.3365C56.9865 32.2086 57.5327 32.2371 58.0365 32.4186C58.5404 32.6 58.9793 32.9263 59.2984 33.3564C59.6174 33.7865 59.8022 34.3012 59.8297 34.836C59.8572 35.3708 59.726 35.9018 59.4527 36.3623C59.2719 36.6683 59.0322 36.9353 58.7474 37.148C58.4626 37.3606 58.1385 37.5146 57.7937 37.601C57.5787 37.6544 57.358 37.682 57.1365 37.6832ZM56.5045 32.4976C55.8491 32.6653 55.2871 33.0864 54.9422 33.6683C54.5973 34.2503 54.4977 34.9454 54.6653 35.6008C54.833 36.2561 55.2541 36.8181 55.836 37.163C56.418 37.5079 57.1131 37.6075 57.7685 37.4399C58.0919 37.359 58.3959 37.2146 58.6629 37.0149C58.9298 36.8153 59.1543 36.5644 59.3232 36.277C59.5839 35.8449 59.7106 35.3451 59.6871 34.8409C59.6636 34.3367 59.4911 33.8508 59.1913 33.4448C58.8915 33.0388 58.478 32.7308 58.003 32.56C57.5281 32.3891 57.0132 32.363 56.5234 32.485L56.5045 32.4976Z" fill="#263238"/>
<path d="M55.8724 36.8554C55.2132 36.8511 54.5781 36.6073 54.0853 36.1695C53.5924 35.7318 53.2755 35.1298 53.1936 34.4757C53.1116 33.8216 53.2702 33.16 53.6398 32.6142C54.0094 32.0683 54.5648 31.6754 55.2025 31.5086C55.9006 31.3326 56.6401 31.4412 57.2582 31.8104C57.8763 32.1796 58.3224 32.7792 58.4984 33.4773C58.6744 34.1754 58.5658 34.9149 58.1966 35.533C57.8274 36.1511 57.2278 36.5972 56.5297 36.7732C56.3146 36.8266 56.094 36.8541 55.8724 36.8554ZM55.2404 31.6698C54.9161 31.7528 54.6113 31.8989 54.3435 32.0996C54.0756 32.3004 53.8499 32.552 53.6793 32.84C53.3347 33.4217 53.2353 34.1164 53.4029 34.7713C53.5705 35.4263 53.9914 35.9879 54.5731 36.3325C55.1547 36.6771 55.8495 36.7765 56.5044 36.6089C56.8278 36.5289 57.1319 36.3851 57.3989 36.186C57.6658 35.9868 57.8903 35.7363 58.0591 35.4492C58.3199 35.017 58.4466 34.5172 58.4231 34.013C58.3996 33.5089 58.227 33.023 57.9272 32.617C57.6275 32.2109 57.2139 31.903 56.739 31.7321C56.2641 31.5613 55.7491 31.5352 55.2594 31.6572L55.2404 31.6698Z" fill="#263238"/>
<path opacity="0.7" d="M57.4716 39.3907C59.6589 38.5585 60.7545 36.1027 59.9185 33.9055C59.0826 31.7083 56.6317 30.6018 54.4444 31.4341C52.257 32.2663 51.1614 34.7221 51.9974 36.9192C52.8333 39.1164 55.2842 40.2229 57.4716 39.3907Z" fill="#CFD8DC"/>
<path d="M58.7164 37.604C58.6564 39.5632 58.8554 43.0992 60.3912 44.1452C59.5822 45.3081 55.8629 47.7666 55.8629 47.7666C55.8629 47.7666 54.2355 45.8074 54.4946 45.1153C56.5265 44.2621 56.2137 42.7011 55.6038 41.2886L58.7164 37.604Z" fill="#263238"/>
<path opacity="0.2" d="M57.4303 39.0923L55.5912 41.2727C55.7381 41.6 55.8565 41.9394 55.9451 42.287C56.7319 42.0374 57.6957 40.9693 57.642 40.1098C57.6346 39.7605 57.5628 39.4156 57.4303 39.0923Z" fill="black"/>
<path d="M58.4573 34.6969C58.7196 37.2913 59.0072 38.8049 57.9265 40.328C56.3022 42.6317 52.9368 41.9775 51.9035 39.5127C50.9745 37.3007 50.6964 33.4266 53.0443 31.9919C53.5598 31.6725 54.1485 31.4903 54.7544 31.4627C55.3602 31.435 55.9631 31.5628 56.5056 31.8339C57.0481 32.105 57.5123 32.5104 57.8539 33.0115C58.1955 33.5127 58.4032 34.0928 58.4573 34.6969Z" fill="#CFD8DC"/>
<path d="M65.0775 45.2799C65.4978 45.5959 65.8612 45.8645 66.2372 46.1742C66.6132 46.4839 66.9735 46.7809 67.3369 47.0937C68.0542 47.7257 68.7557 48.3735 69.4288 49.0593C70.8279 50.4442 72.068 51.9811 73.126 53.6413L73.1829 53.7266L73.2524 53.8498L73.3883 54.0995C73.4578 54.2511 73.5336 54.4155 73.5874 54.5577C73.6942 54.8328 73.7828 55.1146 73.8528 55.4014C73.9771 55.9124 74.0699 56.4306 74.1309 56.9529C74.2406 57.9212 74.2934 58.8951 74.2889 59.8696C74.2801 61.7579 74.1344 63.643 73.8528 65.5102C73.8165 65.7495 73.694 65.9673 73.5083 66.1225C73.3227 66.2778 73.0867 66.3598 72.8447 66.3532C72.6028 66.3466 72.3716 66.2518 72.1947 66.0867C72.0178 65.9215 71.9073 65.6974 71.8841 65.4565V65.4312C71.7198 63.6395 71.5365 61.8225 71.2964 60.0592C71.1763 59.1839 71.0246 58.3212 70.8413 57.5091C70.7591 57.1259 70.6535 56.7481 70.5253 56.3778C70.4621 56.2103 70.3989 56.0618 70.3357 55.9259C70.3041 55.8627 70.2725 55.8153 70.2441 55.7616C70.2296 55.7474 70.2168 55.7315 70.2062 55.7142L70.1872 55.6889L70.1461 55.6321C69.6437 54.9843 69.0875 54.3523 68.5124 53.7203C67.9373 53.0883 67.3084 52.4847 66.6733 51.8875C66.0381 51.2902 65.3808 50.7088 64.7109 50.1368C64.3791 49.8461 64.041 49.5649 63.7029 49.2868L62.7012 48.4778L62.6538 48.4399C62.2347 48.1185 61.9605 47.6438 61.8915 47.1202C61.8224 46.5966 61.9642 46.0671 62.2856 45.648C62.607 45.229 63.0817 44.9548 63.6053 44.8857C64.1289 44.8167 64.6584 44.9585 65.0775 45.2799Z" fill="#263238"/>
<path d="M73.9134 56.7014C74.383 56.508 74.4128 55.4996 73.98 54.4491C73.5473 53.3986 72.8158 52.7038 72.3462 52.8973C71.8766 53.0907 71.8468 54.0991 72.2796 55.1496C72.7123 56.2001 73.4438 56.8949 73.9134 56.7014Z" fill="#CFD8DC"/>
<path d="M71.6472 65.3427L70.854 67.2671L74.2004 67.3082C74.2917 66.776 74.3129 66.2342 74.2636 65.6966C74.2427 65.5151 74.1856 65.3397 74.0957 65.1806C74.0059 65.0216 73.8851 64.8821 73.7405 64.7705C73.5959 64.6589 73.4304 64.5773 73.2537 64.5307C73.0771 64.4841 72.8929 64.4733 72.7121 64.4989C72.4765 64.5347 72.2543 64.6313 72.0675 64.7793C71.8807 64.9273 71.7358 65.1215 71.6472 65.3427Z" fill="#CFD8DC"/>
<path d="M71.3154 69.4127L74.0898 69.3274L74.2099 67.3177L70.854 67.2671L71.3154 69.4127Z" fill="#CFD8DC"/>
<path d="M58.6943 35.4457C59.3642 35.5184 59.8129 36.3937 59.7023 37.386C59.5917 38.3782 58.9597 39.1334 58.2898 39.0576C57.6199 38.9818 57.1743 38.1096 57.2849 37.1142C57.3955 36.1188 58.0275 35.3699 58.6943 35.4457Z" fill="#263238"/>
<path opacity="0.7" d="M54.2702 36.1409L54.3366 35.6858C54.3459 35.6088 54.3833 35.5378 54.4416 35.4865C54.4998 35.4352 54.575 35.4072 54.6526 35.4078L55.787 35.3319C55.8447 35.3249 55.9031 35.3338 55.9559 35.3578C56.0088 35.3818 56.054 35.4199 56.0867 35.4679C56.1193 35.5158 56.1381 35.5719 56.141 35.6298C56.1439 35.6878 56.1307 35.7454 56.103 35.7964L55.9766 36.065C55.9568 36.1099 55.9267 36.1496 55.8889 36.1809C55.8511 36.2121 55.8064 36.2341 55.7586 36.2452L54.6842 36.5043C54.6313 36.5229 54.5744 36.5271 54.5194 36.5164C54.4643 36.5057 54.4131 36.4806 54.371 36.4436C54.3288 36.4066 54.2973 36.3591 54.2796 36.3059C54.2619 36.2527 54.2587 36.1957 54.2702 36.1409Z" fill="#263238"/>
<g opacity="0.7">
<path d="M52.5355 36.3179L52.3522 35.55C52.3455 35.5218 52.3299 35.4964 52.3077 35.4776C52.2856 35.4588 52.2579 35.4477 52.229 35.4457L51.6886 35.411C51.6664 35.4094 51.6442 35.4133 51.6239 35.4223C51.6036 35.4313 51.5858 35.4451 51.5721 35.4626C51.5584 35.48 51.5492 35.5006 51.5452 35.5225C51.5413 35.5443 51.5428 35.5668 51.5496 35.5879L51.7297 36.1251C51.7347 36.1426 51.7436 36.1588 51.7556 36.1724C51.7676 36.1861 51.7825 36.1969 51.7992 36.2041L52.3427 36.4696C52.3657 36.481 52.3915 36.4856 52.417 36.4829C52.4425 36.4803 52.4668 36.4704 52.4869 36.4546C52.5071 36.4387 52.5224 36.4174 52.531 36.3932C52.5396 36.3691 52.5411 36.3429 52.5355 36.3179Z" fill="#263238"/>
</g>
</g>
<defs>
<clipPath id="clip0_323_7">
<rect width="158" height="158" fill="white" transform="translate(0.25647)"/>
</clipPath>
</defs>
</svg>
