<svg width="99" height="106" viewBox="0 0 99 106" fill="none" xmlns="http://www.w3.org/2000/svg">
<g clip-path="url(#clip0_111_13)">
<path d="M32.7302 33.7455L27.9338 43.7143H47.6114V31.1428H36.7982C35.0764 31.1428 33.506 32.1544 32.7302 33.7455ZM50.6387 43.7143H70.3162L65.5198 33.7455C64.744 32.1544 63.1736 31.1428 61.4518 31.1428H50.6387V43.7143ZM70.3162 46.8571H27.9338V68.8571C27.9338 72.3241 30.649 75.1428 33.9885 75.1428H64.2616C67.6011 75.1428 70.3162 72.3241 70.3162 68.8571V46.8571Z" fill="#F4EDED"/>
</g>
<path d="M95.1459 52.9054C95.1459 80.6838 74.3099 102.811 49.0729 102.811C23.836 102.811 3 80.6838 3 52.9054C3 25.127 23.836 3 49.0729 3C74.3099 3 95.1459 25.127 95.1459 52.9054Z" stroke="url(#paint0_angular_111_13)" stroke-width="6"/>
<defs>
<radialGradient id="paint0_angular_111_13" cx="0" cy="0" r="1" gradientUnits="userSpaceOnUse" gradientTransform="translate(49.0729 52.9054) rotate(133.927) scale(96.8545 93.2019)">
<stop stop-color="#7EE081"/>
<stop offset="1" stop-color="#7EE081" stop-opacity="0"/>
</radialGradient>
<clipPath id="clip0_111_13">
<rect width="42.3824" height="50.2857" fill="white" transform="translate(27.9338 28)"/>
</clipPath>
</defs>
</svg>
